<ttFont>
    <TTGlyph name="A" xMin="28" yMin="-1762" xMax="583" yMax="50">
      <contour>
        <pt x="452" y="49" on="1"/>
        <pt x="558" y="50" on="1"/>
        <pt x="576" y="50" on="0"/>
        <pt x="577" y="49" on="1"/>
        <pt x="582" y="46" on="0"/>
        <pt x="583" y="26" on="1"/>
        <pt x="583" y="15" on="0"/>
        <pt x="583" y="-22" on="1"/>
        <pt x="580" y="-261" on="0"/>
        <pt x="559" y="-476" on="1"/>
        <pt x="479" y="-1268" on="0"/>
        <pt x="89" y="-1741" on="1"/>
        <pt x="82" y="-1750" on="0"/>
        <pt x="74" y="-1758" on="1"/>
        <pt x="68" y="-1762" on="0"/>
        <pt x="36" y="-1758" on="1"/>
        <pt x="28" y="-1754" on="0"/>
        <pt x="32" y="-1747" on="1"/>
        <pt x="32" y="-1746" on="0"/>
        <pt x="51" y="-1717" on="1"/>
        <pt x="150" y="-1569" on="0"/>
        <pt x="221" y="-1402" on="1"/>
        <pt x="405" y="-974" on="0"/>
        <pt x="438" y="-337" on="1"/>
        <pt x="440" y="-301" on="0"/>
        <pt x="441" y="-264" on="1"/>
        <pt x="447" y="-141" on="0"/>
        <pt x="447" y="4" on="1"/>
        <pt x="447" y="46" on="0"/>
      </contour>
    </TTGlyph>
    <TTGlyph name="B" xMin="291" yMin="-609" xMax="427" yMax="9">
      <contour>
        <pt x="296" y="9" on="1"/>
        <pt x="420" y="9" on="1"/>
        <pt x="421" y="9" on="1"/>
        <pt x="425" y="8" on="0"/>
        <pt x="425" y="5" on="1"/>
        <pt x="427" y="-4" on="0"/>
        <pt x="427" y="-300" on="1"/>
        <pt x="427" y="-604" on="0"/>
        <pt x="421" y="-609" on="1"/>
        <pt x="297" y="-609" on="1"/>
        <pt x="293" y="-608" on="0"/>
        <pt x="293" y="-605" on="1"/>
        <pt x="291" y="-595" on="0"/>
        <pt x="291" y="-300" on="1"/>
        <pt x="291" y="2" on="0"/>
        <pt x="292" y="5" on="1"/>
      </contour>
    </TTGlyph>
    <TTGlyph name="C" xMin="447" yMin="-609" xMax="583" yMax="9">
      <contour>
        <pt x="452" y="9" on="1"/>
        <pt x="576" y="9" on="1"/>
        <pt x="577" y="9" on="1"/>
        <pt x="581" y="8" on="0"/>
        <pt x="581" y="5" on="1"/>
        <pt x="583" y="-4" on="0"/>
        <pt x="583" y="-300" on="1"/>
        <pt x="583" y="-604" on="0"/>
        <pt x="577" y="-609" on="1"/>
        <pt x="453" y="-609" on="1"/>
        <pt x="449" y="-608" on="0"/>
        <pt x="449" y="-605" on="1"/>
        <pt x="447" y="-595" on="0"/>
        <pt x="447" y="-300" on="1"/>
        <pt x="447" y="2" on="0"/>
        <pt x="448" y="5" on="1"/>
      </contour>
    </TTGlyph>
    <TTGlyph name="D" xMin="111" yMin="-1762" xMax="528" yMax="41">
      <contour>
        <pt x="490" y="38" on="1"/>
        <pt x="500" y="41" on="0"/>
        <pt x="509" y="38" on="1"/>
        <pt x="526" y="30" on="0"/>
        <pt x="526" y="13" on="1"/>
        <pt x="526" y="10" on="0"/>
        <pt x="525" y="8" on="1"/>
        <pt x="525" y="5" on="0"/>
        <pt x="346" y="-428" on="1"/>
        <pt x="167" y="-860" on="1"/>
        <pt x="333" y="-1262" on="1"/>
        <pt x="512" y="-1695" on="1"/>
        <pt x="528" y="-1732" on="0"/>
        <pt x="524" y="-1742" on="1"/>
        <pt x="516" y="-1762" on="0"/>
        <pt x="491" y="-1759" on="1"/>
        <pt x="485" y="-1757" on="0"/>
        <pt x="483" y="-1753" on="1"/>
        <pt x="473" y="-1738" on="0"/>
        <pt x="307" y="-1338" on="1"/>
        <pt x="112" y="-870" on="0"/>
        <pt x="111" y="-861" on="1"/>
        <pt x="111" y="-857" on="0"/>
        <pt x="117" y="-840" on="1"/>
        <pt x="120" y="-834" on="0"/>
        <pt x="300" y="-399" on="1"/>
        <pt x="475" y="26" on="0"/>
        <pt x="480" y="31" on="1"/>
        <pt x="484" y="37" on="0"/>
      </contour>
    </TTGlyph>
    <TTGlyph name="E" xMin="82" yMin="-1765" xMax="499" yMax="40">
      <contour>
        <pt x="102" y="38" on="1"/>
        <pt x="110" y="40" on="0"/>
        <pt x="119" y="38" on="1"/>
        <pt x="126" y="36" on="0"/>
        <pt x="130" y="32" on="1"/>
        <pt x="135" y="25" on="0"/>
        <pt x="303" y="-382" on="1"/>
        <pt x="485" y="-822" on="1"/>
        <pt x="499" y="-857" on="1"/>
        <pt x="499" y="-863" on="0"/>
        <pt x="498" y="-866" on="1"/>
        <pt x="498" y="-869" on="0"/>
        <pt x="316" y="-1308" on="1"/>
        <pt x="133" y="-1748" on="0"/>
        <pt x="131" y="-1750" on="1"/>
        <pt x="120" y="-1765" on="0"/>
        <pt x="101" y="-1758" on="1"/>
        <pt x="82" y="-1750" on="0"/>
        <pt x="85" y="-1727" on="1"/>
        <pt x="85" y="-1724" on="0"/>
        <pt x="265" y="-1291" on="1"/>
        <pt x="444" y="-860" on="1"/>
        <pt x="267" y="-434" on="1"/>
        <pt x="87" y="0" on="1"/>
        <pt x="82" y="13" on="0"/>
        <pt x="86" y="22" on="1"/>
        <pt x="90" y="34" on="0"/>
      </contour>
    </TTGlyph>
    <TTGlyph name="F" xMin="55" yMin="-1000" xMax="777" yMax="10">
      <contour>
        <pt x="90" y="-2" on="1"/>
        <pt x="108" y="3" on="0"/>
        <pt x="124" y="-6" on="1"/>
        <pt x="137" y="-12" on="0"/>
        <pt x="143" y="-25" on="1"/>
        <pt x="148" y="-34" on="0"/>
        <pt x="148" y="-71" on="1"/>
        <pt x="149" y="-120" on="0"/>
        <pt x="149" y="-474" on="1"/>
        <pt x="149" y="-906" on="1"/>
        <pt x="416" y="-906" on="1"/>
        <pt x="683" y="-906" on="1"/>
        <pt x="683" y="-474" on="1"/>
        <pt x="683" y="-41" on="0"/>
        <pt x="684" y="-36" on="1"/>
        <pt x="688" y="-23" on="0"/>
        <pt x="697" y="-14" on="1"/>
        <pt x="721" y="10" on="0"/>
        <pt x="752" y="-6" on="1"/>
        <pt x="765" y="-12" on="0"/>
        <pt x="771" y="-25" on="1"/>
        <pt x="775" y="-34" on="0"/>
        <pt x="776" y="-70" on="1"/>
        <pt x="777" y="-121" on="0"/>
        <pt x="777" y="-500" on="1"/>
        <pt x="777" y="-962" on="0"/>
        <pt x="773" y="-971" on="1"/>
        <pt x="775" y="-968" on="0"/>
        <pt x="771" y="-975" on="1"/>
        <pt x="765" y="-988" on="0"/>
        <pt x="752" y="-994" on="1"/>
        <pt x="742" y="-999" on="0"/>
        <pt x="701" y="-999" on="1"/>
        <pt x="658" y="-1000" on="0"/>
        <pt x="416" y="-1000" on="1"/>
        <pt x="92" y="-1000" on="0"/>
        <pt x="84" y="-996" on="1"/>
        <pt x="86" y="-997" on="0"/>
        <pt x="80" y="-994" on="1"/>
        <pt x="67" y="-988" on="0"/>
        <pt x="61" y="-975" on="1"/>
        <pt x="57" y="-967" on="0"/>
        <pt x="56" y="-936" on="1"/>
        <pt x="55" y="-889" on="0"/>
        <pt x="55" y="-500" on="1"/>
        <pt x="55" y="-38" on="0"/>
        <pt x="59" y="-29" on="1"/>
        <pt x="57" y="-32" on="0"/>
        <pt x="61" y="-25" on="1"/>
        <pt x="69" y="-7" on="0"/>
      </contour>
    </TTGlyph>
    <TTGlyph name="G" xMin="55" yMin="-1400" xMax="1055" yMax="7">
      <contour>
        <pt x="96" y="-2" on="1"/>
        <pt x="128" y="7" on="0"/>
        <pt x="150" y="-20" on="1"/>
        <pt x="158" y="-29" on="0"/>
        <pt x="161" y="-41" on="1"/>
        <pt x="163" y="-47" on="0"/>
        <pt x="163" y="-670" on="1"/>
        <pt x="163" y="-1292" on="1"/>
        <pt x="555" y="-1292" on="1"/>
        <pt x="947" y="-1292" on="1"/>
        <pt x="947" y="-670" on="1"/>
        <pt x="947" y="-47" on="0"/>
        <pt x="949" y="-41" on="1"/>
        <pt x="957" y="-8" on="0"/>
        <pt x="990" y="-1" on="1"/>
        <pt x="1018" y="5" on="0"/>
        <pt x="1039" y="-16" on="1"/>
        <pt x="1050" y="-27" on="0"/>
        <pt x="1053" y="-41" on="1"/>
        <pt x="1055" y="-47" on="0"/>
        <pt x="1055" y="-1353" on="0"/>
        <pt x="1053" y="-1359" on="1"/>
        <pt x="1045" y="-1390" on="0"/>
        <pt x="1014" y="-1398" on="1"/>
        <pt x="1008" y="-1400" on="0"/>
        <pt x="556" y="-1400" on="1"/>
        <pt x="102" y="-1400" on="0"/>
        <pt x="91" y="-1397" on="1"/>
        <pt x="84" y="-1393" on="1"/>
        <pt x="62" y="-1383" on="0"/>
        <pt x="57" y="-1358" on="1"/>
        <pt x="55" y="-1353" on="0"/>
        <pt x="55" y="-47" on="0"/>
        <pt x="57" y="-41" on="1"/>
        <pt x="65" y="-10" on="0"/>
      </contour>
    </TTGlyph>
    <TTGlyph name="H" xMin="53" yMin="-1110" xMax="612" yMax="3">
      <contour>
        <pt x="478" y="-2" on="1"/>
        <pt x="500" y="3" on="0"/>
        <pt x="523" y="-3" on="1"/>
        <pt x="544" y="-9" on="0"/>
        <pt x="560" y="-20" on="1"/>
        <pt x="577" y="-35" on="0"/>
        <pt x="586" y="-49" on="1"/>
        <pt x="601" y="-71" on="0"/>
        <pt x="607" y="-99" on="1"/>
        <pt x="612" y="-123" on="0"/>
        <pt x="608" y="-145" on="1"/>
        <pt x="602" y="-160" on="0"/>
        <pt x="594" y="-167" on="1"/>
        <pt x="568" y="-192" on="0"/>
        <pt x="535" y="-178" on="1"/>
        <pt x="525" y="-174" on="0"/>
        <pt x="518" y="-167" on="1"/>
        <pt x="510" y="-160" on="0"/>
        <pt x="504" y="-145" on="1"/>
        <pt x="500" y="-130" on="0"/>
        <pt x="504" y="-111" on="1"/>
        <pt x="513" y="-84" on="0"/>
        <pt x="538" y="-77" on="1"/>
        <pt x="545" y="-75" on="1"/>
        <pt x="543" y="-72" on="1"/>
        <pt x="542" y="-70" on="0"/>
        <pt x="534" y="-62" on="1"/>
        <pt x="514" y="-42" on="0"/>
        <pt x="486" y="-48" on="1"/>
        <pt x="477" y="-50" on="0"/>
        <pt x="464" y="-58" on="1"/>
        <pt x="445" y="-74" on="0"/>
        <pt x="434" y="-108" on="1"/>
        <pt x="419" y="-152" on="0"/>
        <pt x="407" y="-321" on="1"/>
        <pt x="403" y="-370" on="0"/>
        <pt x="402" y="-375" on="1"/>
        <pt x="402" y="-382" on="1"/>
        <pt x="414" y="-388" on="1"/>
        <pt x="450" y="-405" on="0"/>
        <pt x="473" y="-433" on="1"/>
        <pt x="507" y="-471" on="0"/>
        <pt x="516" y="-523" on="1"/>
        <pt x="522" y="-556" on="0"/>
        <pt x="516" y="-588" on="1"/>
        <pt x="507" y="-640" on="0"/>
        <pt x="473" y="-678" on="1"/>
        <pt x="434" y="-725" on="0"/>
        <pt x="373" y="-738" on="1"/>
        <pt x="365" y="-739" on="1"/>
        <pt x="357" y="-804" on="1"/>
        <pt x="345" y="-893" on="0"/>
        <pt x="339" y="-916" on="1"/>
        <pt x="322" y="-996" on="0"/>
        <pt x="287" y="-1044" on="1"/>
        <pt x="267" y="-1071" on="0"/>
        <pt x="245" y="-1087" on="1"/>
        <pt x="227" y="-1099" on="0"/>
        <pt x="209" y="-1104" on="1"/>
        <pt x="191" y="-1110" on="0"/>
        <pt x="168" y="-1110" on="1"/>
        <pt x="144" y="-1110" on="0"/>
        <pt x="123" y="-1101" on="1"/>
        <pt x="105" y="-1092" on="0"/>
        <pt x="91" y="-1078" on="1"/>
        <pt x="65" y="-1051" on="0"/>
        <pt x="58" y="-1012" on="1"/>
        <pt x="53" y="-988" on="0"/>
        <pt x="57" y="-966" on="1"/>
        <pt x="63" y="-950" on="0"/>
        <pt x="71" y="-944" on="1"/>
        <pt x="97" y="-919" on="0"/>
        <pt x="130" y="-933" on="1"/>
        <pt x="140" y="-937" on="0"/>
        <pt x="147" y="-944" on="1"/>
        <pt x="155" y="-950" on="0"/>
        <pt x="161" y="-966" on="1"/>
        <pt x="165" y="-981" on="0"/>
        <pt x="161" y="-1000" on="1"/>
        <pt x="152" y="-1027" on="0"/>
        <pt x="127" y="-1034" on="1"/>
        <pt x="120" y="-1036" on="1"/>
        <pt x="122" y="-1039" on="1"/>
        <pt x="123" y="-1041" on="0"/>
        <pt x="131" y="-1049" on="1"/>
        <pt x="151" y="-1069" on="0"/>
        <pt x="180" y="-1062" on="1"/>
        <pt x="216" y="-1055" on="0"/>
        <pt x="232" y="-1002" on="1"/>
        <pt x="247" y="-957" on="0"/>
        <pt x="259" y="-790" on="1"/>
        <pt x="263" y="-741" on="0"/>
        <pt x="264" y="-736" on="1"/>
        <pt x="264" y="-729" on="1"/>
        <pt x="252" y="-723" on="1"/>
        <pt x="216" y="-706" on="0"/>
        <pt x="193" y="-678" on="1"/>
        <pt x="159" y="-640" on="0"/>
        <pt x="150" y="-588" on="1"/>
        <pt x="144" y="-556" on="0"/>
        <pt x="150" y="-523" on="1"/>
        <pt x="159" y="-471" on="0"/>
        <pt x="193" y="-433" on="1"/>
        <pt x="232" y="-386" on="0"/>
        <pt x="293" y="-373" on="1"/>
        <pt x="301" y="-372" on="1"/>
        <pt x="302" y="-362" on="1"/>
        <pt x="322" y="-218" on="1"/>
        <pt x="332" y="-163" on="0"/>
        <pt x="348" y="-124" on="1"/>
        <pt x="393" y="-15" on="0"/>
      </contour>
      <contour>
        <pt x="295" y="-416" on="1"/>
        <pt x="295" y="-414" on="0"/>
        <pt x="285" y="-417" on="1"/>
        <pt x="247" y="-431" on="0"/>
        <pt x="219" y="-463" on="1"/>
        <pt x="172" y="-522" on="0"/>
        <pt x="192" y="-596" on="1"/>
        <pt x="208" y="-652" on="0"/>
        <pt x="259" y="-682" on="1"/>
        <pt x="266" y="-686" on="0"/>
        <pt x="267" y="-686" on="1"/>
        <pt x="267" y="-680" on="0"/>
        <pt x="270" y="-656" on="1"/>
        <pt x="284" y="-494" on="0"/>
        <pt x="294" y="-424" on="1"/>
        <pt x="295" y="-420" on="0"/>
      </contour>
      <contour>
        <pt x="407" y="-429" on="1"/>
        <pt x="401" y="-425" on="0"/>
        <pt x="400" y="-425" on="1"/>
        <pt x="398" y="-425" on="0"/>
        <pt x="397" y="-448" on="1"/>
        <pt x="390" y="-548" on="0"/>
        <pt x="374" y="-667" on="1"/>
        <pt x="371" y="-691" on="0"/>
        <pt x="371" y="-697" on="1"/>
        <pt x="377" y="-697" on="0"/>
        <pt x="397" y="-687" on="1"/>
        <pt x="423" y="-675" on="0"/>
        <pt x="447" y="-648" on="1"/>
        <pt x="494" y="-589" on="0"/>
        <pt x="473" y="-515" on="1"/>
        <pt x="458" y="-459" on="0"/>
      </contour>
    </TTGlyph>
    <TTGlyph name="I" xMin="55" yMin="-2237" xMax="944" yMax="3">
      <contour>
        <pt x="814" y="-1" on="1"/>
        <pt x="835" y="3" on="0"/>
        <pt x="856" y="-3" on="1"/>
        <pt x="878" y="-10" on="0"/>
        <pt x="889" y="-18" on="1"/>
        <pt x="903" y="-29" on="0"/>
        <pt x="917" y="-47" on="1"/>
        <pt x="944" y="-87" on="0"/>
        <pt x="944" y="-137" on="1"/>
        <pt x="944" y="-176" on="0"/>
        <pt x="914" y="-192" on="1"/>
        <pt x="883" y="-209" on="0"/>
        <pt x="852" y="-192" on="1"/>
        <pt x="821" y="-176" on="0"/>
        <pt x="822" y="-137" on="1"/>
        <pt x="823" y="-113" on="0"/>
        <pt x="838" y="-96" on="1"/>
        <pt x="853" y="-83" on="0"/>
        <pt x="871" y="-79" on="1"/>
        <pt x="878" y="-77" on="0"/>
        <pt x="879" y="-77" on="1"/>
        <pt x="866" y="-61" on="1"/>
        <pt x="865" y="-60" on="1"/>
        <pt x="846" y="-43" on="0"/>
        <pt x="827" y="-48" on="1"/>
        <pt x="800" y="-55" on="0"/>
        <pt x="771" y="-129" on="1"/>
        <pt x="738" y="-213" on="0"/>
        <pt x="701" y="-392" on="1"/>
        <pt x="671" y="-534" on="0"/>
        <pt x="637" y="-739" on="1"/>
        <pt x="618" y="-844" on="1"/>
        <pt x="615" y="-865" on="1"/>
        <pt x="615" y="-866" on="0"/>
        <pt x="626" y="-872" on="1"/>
        <pt x="645" y="-882" on="0"/>
        <pt x="671" y="-901" on="1"/>
        <pt x="731" y="-951" on="0"/>
        <pt x="756" y="-1026" on="1"/>
        <pt x="769" y="-1066" on="0"/>
        <pt x="769" y="-1156" on="0"/>
        <pt x="756" y="-1196" on="1"/>
        <pt x="732" y="-1265" on="0"/>
        <pt x="687" y="-1306" on="1"/>
        <pt x="619" y="-1371" on="0"/>
        <pt x="523" y="-1380" on="1"/>
        <pt x="512" y="-1381" on="0"/>
        <pt x="511" y="-1381" on="1"/>
        <pt x="503" y="-1418" on="1"/>
        <pt x="437" y="-1712" on="0"/>
        <pt x="389" y="-1889" on="1"/>
        <pt x="329" y="-2106" on="0"/>
        <pt x="261" y="-2177" on="1"/>
        <pt x="235" y="-2202" on="0"/>
        <pt x="215" y="-2211" on="1"/>
        <pt x="159" y="-2237" on="0"/>
        <pt x="110" y="-2204" on="1"/>
        <pt x="96" y="-2193" on="0"/>
        <pt x="82" y="-2175" on="1"/>
        <pt x="55" y="-2135" on="0"/>
        <pt x="55" y="-2035" on="0"/>
        <pt x="101" y="-2024" on="1"/>
        <pt x="124" y="-2018" on="0"/>
        <pt x="147" y="-2030" on="1"/>
        <pt x="178" y="-2046" on="0"/>
        <pt x="177" y="-2085" on="1"/>
        <pt x="176" y="-2109" on="0"/>
        <pt x="161" y="-2126" on="1"/>
        <pt x="147" y="-2139" on="0"/>
        <pt x="129" y="-2143" on="1"/>
        <pt x="121" y="-2145" on="0"/>
        <pt x="120" y="-2145" on="1"/>
        <pt x="133" y="-2161" on="1"/>
        <pt x="134" y="-2162" on="1"/>
        <pt x="158" y="-2182" on="0"/>
        <pt x="179" y="-2171" on="1"/>
        <pt x="195" y="-2162" on="0"/>
        <pt x="216" y="-2124" on="1"/>
        <pt x="255" y="-2045" on="0"/>
        <pt x="299" y="-1830" on="1"/>
        <pt x="329" y="-1687" on="0"/>
        <pt x="363" y="-1482" on="1"/>
        <pt x="364" y="-1475" on="0"/>
        <pt x="382" y="-1378" on="1"/>
        <pt x="385" y="-1357" on="1"/>
        <pt x="385" y="-1356" on="0"/>
        <pt x="374" y="-1350" on="1"/>
        <pt x="355" y="-1340" on="0"/>
        <pt x="329" y="-1321" on="1"/>
        <pt x="269" y="-1271" on="0"/>
        <pt x="244" y="-1196" on="1"/>
        <pt x="231" y="-1156" on="0"/>
        <pt x="231" y="-1066" on="0"/>
        <pt x="244" y="-1026" on="1"/>
        <pt x="268" y="-957" on="0"/>
        <pt x="313" y="-916" on="1"/>
        <pt x="381" y="-851" on="0"/>
        <pt x="477" y="-842" on="1"/>
        <pt x="488" y="-841" on="0"/>
        <pt x="489" y="-841" on="1"/>
        <pt x="497" y="-804" on="1"/>
        <pt x="563" y="-510" on="0"/>
        <pt x="611" y="-333" on="1"/>
        <pt x="668" y="-125" on="0"/>
        <pt x="734" y="-50" on="1"/>
        <pt x="770" y="-10" on="0"/>
      </contour>
      <contour>
        <pt x="480" y="-884" on="1"/>
        <pt x="480" y="-882" on="0"/>
        <pt x="465" y="-884" on="1"/>
        <pt x="370" y="-897" on="0"/>
        <pt x="312" y="-978" on="1"/>
        <pt x="310" y="-981" on="0"/>
        <pt x="308" y="-984" on="1"/>
        <pt x="281" y="-1026" on="0"/>
        <pt x="272" y="-1078" on="1"/>
        <pt x="268" y="-1109" on="0"/>
        <pt x="272" y="-1144" on="1"/>
        <pt x="289" y="-1252" on="0"/>
        <pt x="382" y="-1309" on="1"/>
        <pt x="392" y="-1314" on="0"/>
        <pt x="393" y="-1314" on="1"/>
        <pt x="400" y="-1275" on="1"/>
        <pt x="417" y="-1184" on="0"/>
        <pt x="436" y="-1093" on="1"/>
        <pt x="477" y="-893" on="0"/>
      </contour>
      <contour>
        <pt x="625" y="-918" on="1"/>
        <pt x="612" y="-910" on="1"/>
        <pt x="607" y="-907" on="1"/>
        <pt x="601" y="-941" on="1"/>
        <pt x="572" y="-1102" on="0"/>
        <pt x="525" y="-1317" on="1"/>
        <pt x="520" y="-1340" on="0"/>
        <pt x="521" y="-1340" on="1"/>
        <pt x="533" y="-1339" on="1"/>
        <pt x="635" y="-1323" on="0"/>
        <pt x="692" y="-1238" on="1"/>
        <pt x="719" y="-1196" on="0"/>
        <pt x="728" y="-1144" on="1"/>
        <pt x="732" y="-1113" on="0"/>
        <pt x="728" y="-1078" on="1"/>
        <pt x="717" y="-1011" on="0"/>
        <pt x="675" y="-961" on="1"/>
        <pt x="652" y="-935" on="0"/>
      </contour>
    </TTGlyph>
    <TTGlyph name="J" xMin="53" yMin="-999" xMax="1057" yMax="-1">
      <contour>
        <pt x="528" y="-1" on="1"/>
        <pt x="605" y="-2" on="1"/>
        <pt x="695" y="-12" on="0"/>
        <pt x="773" y="-50" on="1"/>
        <pt x="921" y="-122" on="0"/>
        <pt x="998" y="-268" on="1"/>
        <pt x="1002" y="-275" on="0"/>
        <pt x="1005" y="-282" on="1"/>
        <pt x="1044" y="-365" on="0"/>
        <pt x="1053" y="-455" on="1"/>
        <pt x="1057" y="-486" on="0"/>
        <pt x="1054" y="-537" on="1"/>
        <pt x="1053" y="-542" on="0"/>
        <pt x="1053" y="-545" on="1"/>
        <pt x="1039" y="-674" on="0"/>
        <pt x="972" y="-776" on="1"/>
        <pt x="879" y="-916" on="0"/>
        <pt x="719" y="-972" on="1"/>
        <pt x="678" y="-986" on="0"/>
        <pt x="635" y="-993" on="1"/>
        <pt x="598" y="-999" on="0"/>
        <pt x="512" y="-999" on="0"/>
        <pt x="475" y="-993" on="1"/>
        <pt x="300" y="-965" on="0"/>
        <pt x="182" y="-833" on="1"/>
        <pt x="123" y="-767" on="0"/>
        <pt x="91" y="-686" on="1"/>
        <pt x="64" y="-621" on="0"/>
        <pt x="57" y="-545" on="1"/>
        <pt x="53" y="-514" on="0"/>
        <pt x="56" y="-463" on="1"/>
        <pt x="57" y="-458" on="0"/>
        <pt x="57" y="-455" on="1"/>
        <pt x="71" y="-326" on="0"/>
        <pt x="138" y="-223" on="1"/>
        <pt x="230" y="-84" on="0"/>
        <pt x="389" y="-28" on="1"/>
        <pt x="449" y="-7" on="0"/>
        <pt x="511" y="-2" on="1"/>
        <pt x="518" y="-1" on="0"/>
      </contour>
      <contour>
        <pt x="596" y="-96" on="1"/>
        <pt x="533" y="-95" on="1"/>
        <pt x="523" y="-95" on="0"/>
        <pt x="516" y="-96" on="1"/>
        <pt x="440" y="-102" on="0"/>
        <pt x="368" y="-140" on="1"/>
        <pt x="232" y="-210" on="0"/>
        <pt x="177" y="-353" on="1"/>
        <pt x="157" y="-403" on="0"/>
        <pt x="151" y="-457" on="1"/>
        <pt x="147" y="-498" on="0"/>
        <pt x="151" y="-543" on="1"/>
        <pt x="169" y="-699" on="0"/>
        <pt x="284" y="-803" on="1"/>
        <pt x="347" y="-858" on="0"/>
        <pt x="427" y="-885" on="1"/>
        <pt x="486" y="-905" on="0"/>
        <pt x="624" y="-905" on="0"/>
        <pt x="683" y="-885" on="1"/>
        <pt x="826" y="-838" on="0"/>
        <pt x="903" y="-709" on="1"/>
        <pt x="949" y="-633" on="0"/>
        <pt x="959" y="-543" on="1"/>
        <pt x="963" y="-502" on="0"/>
        <pt x="959" y="-457" on="1"/>
        <pt x="940" y="-296" on="0"/>
        <pt x="820" y="-193" on="1"/>
        <pt x="805" y="-180" on="0"/>
        <pt x="788" y="-168" on="1"/>
        <pt x="702" y="-107" on="0"/>
      </contour>
      <contour>
        <pt x="538" y="-420" on="1"/>
        <pt x="582" y="-411" on="0"/>
        <pt x="614" y="-443" on="1"/>
        <pt x="631" y="-461" on="0"/>
        <pt x="635" y="-483" on="1"/>
        <pt x="644" y="-525" on="0"/>
        <pt x="614" y="-557" on="1"/>
        <pt x="582" y="-590" on="0"/>
        <pt x="537" y="-580" on="1"/>
        <pt x="529" y="-578" on="0"/>
        <pt x="522" y="-575" on="1"/>
        <pt x="477" y="-554" on="0"/>
        <pt x="473" y="-506" on="1"/>
        <pt x="473" y="-495" on="0"/>
        <pt x="475" y="-483" on="1"/>
        <pt x="477" y="-473" on="0"/>
        <pt x="480" y="-467" on="1"/>
        <pt x="498" y="-428" on="0"/>
      </contour>
    </TTGlyph>
    <TTGlyph name="K" xMin="25" yMin="-1402" xMax="1485" yMax="-1">
      <contour>
        <pt x="722" y="-1" on="1"/>
        <pt x="814" y="-2" on="1"/>
        <pt x="961" y="-17" on="0"/>
        <pt x="1084" y="-83" on="1"/>
        <pt x="1195" y="-142" on="0"/>
        <pt x="1277" y="-235" on="1"/>
        <pt x="1374" y="-342" on="0"/>
        <pt x="1420" y="-485" on="1"/>
        <pt x="1485" y="-683" on="0"/>
        <pt x="1429" y="-884" on="1"/>
        <pt x="1425" y="-899" on="0"/>
        <pt x="1420" y="-914" on="1"/>
        <pt x="1386" y="-1022" on="0"/>
        <pt x="1318" y="-1114" on="1"/>
        <pt x="1202" y="-1274" on="0"/>
        <pt x="1016" y="-1350" on="1"/>
        <pt x="917" y="-1388" on="0"/>
        <pt x="813" y="-1398" on="1"/>
        <pt x="764" y="-1402" on="0"/>
        <pt x="703" y="-1398" on="1"/>
        <pt x="700" y="-1398" on="0"/>
        <pt x="697" y="-1398" on="1"/>
        <pt x="550" y="-1383" on="0"/>
        <pt x="426" y="-1317" on="1"/>
        <pt x="315" y="-1258" on="0"/>
        <pt x="233" y="-1165" on="1"/>
        <pt x="136" y="-1057" on="0"/>
        <pt x="90" y="-914" on="1"/>
        <pt x="25" y="-717" on="0"/>
        <pt x="81" y="-515" on="1"/>
        <pt x="85" y="-500" on="0"/>
        <pt x="90" y="-485" on="1"/>
        <pt x="136" y="-342" on="0"/>
        <pt x="233" y="-235" on="1"/>
        <pt x="284" y="-178" on="0"/>
        <pt x="335" y="-141" on="1"/>
        <pt x="455" y="-49" on="0"/>
        <pt x="604" y="-17" on="1"/>
        <pt x="660" y="-4" on="0"/>
      </contour>
      <contour>
        <pt x="804" y="-110" on="1"/>
        <pt x="752" y="-107" on="0"/>
        <pt x="720" y="-109" on="1"/>
        <pt x="596" y="-118" on="0"/>
        <pt x="491" y="-170" on="1"/>
        <pt x="321" y="-255" on="0"/>
        <pt x="233" y="-422" on="1"/>
        <pt x="211" y="-463" on="0"/>
        <pt x="196" y="-507" on="1"/>
        <pt x="173" y="-578" on="0"/>
        <pt x="166" y="-652" on="1"/>
        <pt x="162" y="-684" on="0"/>
        <pt x="165" y="-738" on="1"/>
        <pt x="166" y="-744" on="0"/>
        <pt x="166" y="-747" on="1"/>
        <pt x="173" y="-822" on="0"/>
        <pt x="196" y="-893" on="1"/>
        <pt x="258" y="-1073" on="0"/>
        <pt x="414" y="-1184" on="1"/>
        <pt x="433" y="-1197" on="0"/>
        <pt x="453" y="-1209" on="1"/>
        <pt x="559" y="-1272" on="0"/>
        <pt x="682" y="-1287" on="1"/>
        <pt x="755" y="-1297" on="0"/>
        <pt x="828" y="-1287" on="1"/>
        <pt x="985" y="-1267" on="0"/>
        <pt x="1110" y="-1174" on="1"/>
        <pt x="1271" y="-1052" on="0"/>
        <pt x="1324" y="-857" on="1"/>
        <pt x="1336" y="-815" on="0"/>
        <pt x="1341" y="-772" on="1"/>
        <pt x="1345" y="-746" on="0"/>
        <pt x="1345" y="-654" on="0"/>
        <pt x="1341" y="-627" on="1"/>
        <pt x="1323" y="-471" on="0"/>
        <pt x="1228" y="-345" on="1"/>
        <pt x="1099" y="-174" on="0"/>
        <pt x="893" y="-125" on="1"/>
        <pt x="850" y="-114" on="0"/>
      </contour>
      <contour>
        <pt x="744" y="-605" on="1"/>
        <pt x="761" y="-603" on="0"/>
        <pt x="778" y="-607" on="1"/>
        <pt x="780" y="-608" on="0"/>
        <pt x="798" y="-615" on="1"/>
        <pt x="826" y="-628" on="0"/>
        <pt x="840" y="-657" on="1"/>
        <pt x="850" y="-677" on="0"/>
        <pt x="850" y="-723" on="0"/>
        <pt x="840" y="-742" on="1"/>
        <pt x="827" y="-771" on="0"/>
        <pt x="798" y="-785" on="1"/>
        <pt x="778" y="-795" on="0"/>
        <pt x="732" y="-795" on="0"/>
        <pt x="713" y="-785" on="1"/>
        <pt x="683" y="-772" on="0"/>
        <pt x="670" y="-742" on="1"/>
        <pt x="660" y="-723" on="0"/>
        <pt x="660" y="-677" on="0"/>
        <pt x="670" y="-657" on="1"/>
        <pt x="679" y="-640" on="0"/>
        <pt x="694" y="-626" on="1"/>
        <pt x="717" y="-608" on="0"/>
      </contour>
    </TTGlyph>
    <TTGlyph name="L" xMin="53" yMin="-999" xMax="1057" yMax="-1">
      <contour>
        <pt x="528" y="-1" on="1"/>
        <pt x="605" y="-2" on="1"/>
        <pt x="695" y="-12" on="0"/>
        <pt x="773" y="-50" on="1"/>
        <pt x="921" y="-122" on="0"/>
        <pt x="998" y="-268" on="1"/>
        <pt x="1002" y="-275" on="0"/>
        <pt x="1005" y="-282" on="1"/>
        <pt x="1044" y="-365" on="0"/>
        <pt x="1053" y="-455" on="1"/>
        <pt x="1057" y="-486" on="0"/>
        <pt x="1054" y="-537" on="1"/>
        <pt x="1053" y="-542" on="0"/>
        <pt x="1053" y="-545" on="1"/>
        <pt x="1039" y="-674" on="0"/>
        <pt x="972" y="-776" on="1"/>
        <pt x="879" y="-916" on="0"/>
        <pt x="719" y="-972" on="1"/>
        <pt x="678" y="-986" on="0"/>
        <pt x="635" y="-993" on="1"/>
        <pt x="598" y="-999" on="0"/>
        <pt x="512" y="-999" on="0"/>
        <pt x="475" y="-993" on="1"/>
        <pt x="300" y="-965" on="0"/>
        <pt x="182" y="-833" on="1"/>
        <pt x="123" y="-767" on="0"/>
        <pt x="91" y="-686" on="1"/>
        <pt x="64" y="-621" on="0"/>
        <pt x="57" y="-545" on="1"/>
        <pt x="53" y="-514" on="0"/>
        <pt x="56" y="-463" on="1"/>
        <pt x="57" y="-458" on="0"/>
        <pt x="57" y="-455" on="1"/>
        <pt x="71" y="-326" on="0"/>
        <pt x="138" y="-223" on="1"/>
        <pt x="230" y="-84" on="0"/>
        <pt x="389" y="-28" on="1"/>
        <pt x="449" y="-7" on="0"/>
        <pt x="511" y="-2" on="1"/>
        <pt x="518" y="-1" on="0"/>
      </contour>
      <contour>
        <pt x="508" y="-275" on="1"/>
        <pt x="508" y="-97" on="1"/>
        <pt x="505" y="-97" on="1"/>
        <pt x="500" y="-97" on="0"/>
        <pt x="486" y="-100" on="1"/>
        <pt x="336" y="-125" on="0"/>
        <pt x="240" y="-244" on="1"/>
        <pt x="195" y="-301" on="0"/>
        <pt x="171" y="-370" on="1"/>
        <pt x="157" y="-409" on="0"/>
        <pt x="152" y="-447" on="1"/>
        <pt x="152" y="-453" on="1"/>
        <pt x="330" y="-453" on="1"/>
        <pt x="508" y="-453" on="1"/>
      </contour>
      <contour>
        <pt x="621" y="-100" on="1"/>
        <pt x="609" y="-97" on="0"/>
        <pt x="604" y="-97" on="1"/>
        <pt x="602" y="-97" on="0"/>
        <pt x="602" y="-275" on="1"/>
        <pt x="602" y="-453" on="1"/>
        <pt x="780" y="-453" on="1"/>
        <pt x="958" y="-453" on="1"/>
        <pt x="958" y="-447" on="1"/>
        <pt x="952" y="-396" on="0"/>
        <pt x="928" y="-340" on="1"/>
        <pt x="873" y="-210" on="0"/>
        <pt x="747" y="-143" on="1"/>
        <pt x="688" y="-111" on="0"/>
      </contour>
      <contour>
        <pt x="508" y="-725" on="1"/>
        <pt x="508" y="-547" on="1"/>
        <pt x="330" y="-547" on="1"/>
        <pt x="152" y="-547" on="1"/>
        <pt x="152" y="-553" on="1"/>
        <pt x="156" y="-572" on="1"/>
        <pt x="182" y="-721" on="0"/>
        <pt x="301" y="-816" on="1"/>
        <pt x="371" y="-873" on="0"/>
        <pt x="459" y="-894" on="1"/>
        <pt x="488" y="-903" on="0"/>
        <pt x="506" y="-903" on="1"/>
        <pt x="508" y="-903" on="0"/>
      </contour>
      <contour>
        <pt x="958" y="-553" on="1"/>
        <pt x="958" y="-547" on="1"/>
        <pt x="780" y="-547" on="1"/>
        <pt x="602" y="-547" on="1"/>
        <pt x="602" y="-725" on="1"/>
        <pt x="602" y="-903" on="0"/>
        <pt x="604" y="-903" on="1"/>
        <pt x="622" y="-903" on="0"/>
        <pt x="651" y="-894" on="1"/>
        <pt x="797" y="-858" on="0"/>
        <pt x="884" y="-737" on="1"/>
        <pt x="920" y="-688" on="0"/>
        <pt x="939" y="-630" on="1"/>
        <pt x="953" y="-591" on="0"/>
      </contour>
    </TTGlyph>
    <TTGlyph name="M" xMin="25" yMin="-1402" xMax="1485" yMax="-1">
      <contour>
        <pt x="722" y="-1" on="1"/>
        <pt x="814" y="-2" on="1"/>
        <pt x="961" y="-17" on="0"/>
        <pt x="1084" y="-83" on="1"/>
        <pt x="1195" y="-142" on="0"/>
        <pt x="1277" y="-235" on="1"/>
        <pt x="1374" y="-342" on="0"/>
        <pt x="1420" y="-485" on="1"/>
        <pt x="1485" y="-683" on="0"/>
        <pt x="1429" y="-884" on="1"/>
        <pt x="1425" y="-899" on="0"/>
        <pt x="1420" y="-914" on="1"/>
        <pt x="1386" y="-1022" on="0"/>
        <pt x="1318" y="-1114" on="1"/>
        <pt x="1202" y="-1274" on="0"/>
        <pt x="1016" y="-1350" on="1"/>
        <pt x="917" y="-1388" on="0"/>
        <pt x="813" y="-1398" on="1"/>
        <pt x="764" y="-1402" on="0"/>
        <pt x="703" y="-1398" on="1"/>
        <pt x="700" y="-1398" on="0"/>
        <pt x="697" y="-1398" on="1"/>
        <pt x="550" y="-1383" on="0"/>
        <pt x="426" y="-1317" on="1"/>
        <pt x="315" y="-1258" on="0"/>
        <pt x="233" y="-1165" on="1"/>
        <pt x="136" y="-1057" on="0"/>
        <pt x="90" y="-914" on="1"/>
        <pt x="25" y="-717" on="0"/>
        <pt x="81" y="-515" on="1"/>
        <pt x="85" y="-500" on="0"/>
        <pt x="90" y="-485" on="1"/>
        <pt x="136" y="-342" on="0"/>
        <pt x="233" y="-235" on="1"/>
        <pt x="284" y="-178" on="0"/>
        <pt x="335" y="-141" on="1"/>
        <pt x="455" y="-49" on="0"/>
        <pt x="604" y="-17" on="1"/>
        <pt x="660" y="-4" on="0"/>
      </contour>
      <contour>
        <pt x="701" y="-378" on="1"/>
        <pt x="701" y="-111" on="1"/>
        <pt x="696" y="-111" on="1"/>
        <pt x="693" y="-111" on="0"/>
        <pt x="681" y="-113" on="1"/>
        <pt x="525" y="-134" on="0"/>
        <pt x="401" y="-226" on="1"/>
        <pt x="245" y="-344" on="0"/>
        <pt x="189" y="-532" on="1"/>
        <pt x="183" y="-552" on="0"/>
        <pt x="178" y="-572" on="1"/>
        <pt x="167" y="-620" on="0"/>
        <pt x="167" y="-643" on="1"/>
        <pt x="167" y="-646" on="1"/>
        <pt x="434" y="-646" on="1"/>
        <pt x="701" y="-646" on="1"/>
      </contour>
      <contour>
        <pt x="842" y="-114" on="1"/>
        <pt x="820" y="-112" on="0"/>
        <pt x="817" y="-111" on="1"/>
        <pt x="809" y="-111" on="1"/>
        <pt x="809" y="-378" on="1"/>
        <pt x="809" y="-646" on="1"/>
        <pt x="1076" y="-646" on="1"/>
        <pt x="1343" y="-646" on="1"/>
        <pt x="1343" y="-643" on="1"/>
        <pt x="1343" y="-629" on="0"/>
        <pt x="1337" y="-597" on="1"/>
        <pt x="1323" y="-516" on="0"/>
        <pt x="1284" y="-436" on="1"/>
        <pt x="1199" y="-266" on="0"/>
        <pt x="1031" y="-176" on="1"/>
        <pt x="942" y="-129" on="0"/>
      </contour>
      <contour>
        <pt x="701" y="-1022" on="1"/>
        <pt x="701" y="-754" on="1"/>
        <pt x="434" y="-754" on="1"/>
        <pt x="167" y="-754" on="1"/>
        <pt x="167" y="-757" on="1"/>
        <pt x="167" y="-771" on="0"/>
        <pt x="173" y="-803" on="1"/>
        <pt x="187" y="-885" on="0"/>
        <pt x="226" y="-963" on="1"/>
        <pt x="311" y="-1134" on="0"/>
        <pt x="479" y="-1224" on="1"/>
        <pt x="568" y="-1271" on="0"/>
        <pt x="668" y="-1286" on="1"/>
        <pt x="691" y="-1288" on="0"/>
        <pt x="693" y="-1289" on="1"/>
        <pt x="701" y="-1289" on="1"/>
      </contour>
      <contour>
        <pt x="1343" y="-757" on="1"/>
        <pt x="1343" y="-754" on="1"/>
        <pt x="1076" y="-754" on="1"/>
        <pt x="809" y="-754" on="1"/>
        <pt x="809" y="-1022" on="1"/>
        <pt x="809" y="-1289" on="1"/>
        <pt x="817" y="-1289" on="1"/>
        <pt x="887" y="-1282" on="0"/>
        <pt x="959" y="-1255" on="1"/>
        <pt x="1144" y="-1187" on="0"/>
        <pt x="1251" y="-1022" on="1"/>
        <pt x="1309" y="-933" on="0"/>
        <pt x="1332" y="-828" on="1"/>
        <pt x="1343" y="-780" on="0"/>
      </contour>
    </TTGlyph>
    <TTGlyph name="N" xMin="53" yMin="-999" xMax="1057" yMax="-1">
      <contour>
        <pt x="528" y="-1" on="1"/>
        <pt x="605" y="-2" on="1"/>
        <pt x="695" y="-12" on="0"/>
        <pt x="773" y="-50" on="1"/>
        <pt x="921" y="-122" on="0"/>
        <pt x="998" y="-268" on="1"/>
        <pt x="1002" y="-275" on="0"/>
        <pt x="1005" y="-282" on="1"/>
        <pt x="1044" y="-365" on="0"/>
        <pt x="1053" y="-455" on="1"/>
        <pt x="1057" y="-486" on="0"/>
        <pt x="1054" y="-537" on="1"/>
        <pt x="1053" y="-542" on="0"/>
        <pt x="1053" y="-545" on="1"/>
        <pt x="1039" y="-674" on="0"/>
        <pt x="972" y="-776" on="1"/>
        <pt x="879" y="-916" on="0"/>
        <pt x="719" y="-972" on="1"/>
        <pt x="678" y="-986" on="0"/>
        <pt x="635" y="-993" on="1"/>
        <pt x="598" y="-999" on="0"/>
        <pt x="512" y="-999" on="0"/>
        <pt x="475" y="-993" on="1"/>
        <pt x="300" y="-965" on="0"/>
        <pt x="182" y="-833" on="1"/>
        <pt x="123" y="-767" on="0"/>
        <pt x="91" y="-686" on="1"/>
        <pt x="64" y="-621" on="0"/>
        <pt x="57" y="-545" on="1"/>
        <pt x="53" y="-514" on="0"/>
        <pt x="56" y="-463" on="1"/>
        <pt x="57" y="-458" on="0"/>
        <pt x="57" y="-455" on="1"/>
        <pt x="71" y="-326" on="0"/>
        <pt x="138" y="-223" on="1"/>
        <pt x="230" y="-84" on="0"/>
        <pt x="389" y="-28" on="1"/>
        <pt x="449" y="-7" on="0"/>
        <pt x="511" y="-2" on="1"/>
        <pt x="518" y="-1" on="0"/>
      </contour>
      <contour>
        <pt x="596" y="-96" on="1"/>
        <pt x="533" y="-95" on="1"/>
        <pt x="523" y="-95" on="0"/>
        <pt x="516" y="-96" on="1"/>
        <pt x="431" y="-104" on="0"/>
        <pt x="356" y="-146" on="1"/>
        <pt x="327" y="-162" on="0"/>
        <pt x="309" y="-177" on="1"/>
        <pt x="303" y="-182" on="1"/>
        <pt x="429" y="-308" on="1"/>
        <pt x="555" y="-433" on="1"/>
        <pt x="681" y="-308" on="1"/>
        <pt x="807" y="-182" on="1"/>
        <pt x="801" y="-177" on="1"/>
        <pt x="786" y="-165" on="0"/>
        <pt x="755" y="-146" on="1"/>
        <pt x="679" y="-105" on="0"/>
      </contour>
      <contour>
        <pt x="363" y="-626" on="1"/>
        <pt x="488" y="-500" on="1"/>
        <pt x="362" y="-374" on="1"/>
        <pt x="237" y="-248" on="1"/>
        <pt x="229" y="-258" on="1"/>
        <pt x="214" y="-278" on="0"/>
        <pt x="202" y="-300" on="1"/>
        <pt x="162" y="-372" on="0"/>
        <pt x="151" y="-457" on="1"/>
        <pt x="147" y="-498" on="0"/>
        <pt x="151" y="-543" on="1"/>
        <pt x="165" y="-659" on="0"/>
        <pt x="232" y="-746" on="1"/>
        <pt x="237" y="-752" on="1"/>
      </contour>
      <contour>
        <pt x="889" y="-269" on="1"/>
        <pt x="883" y="-262" on="0"/>
        <pt x="878" y="-254" on="1"/>
        <pt x="873" y="-248" on="1"/>
        <pt x="747" y="-374" on="1"/>
        <pt x="622" y="-500" on="1"/>
        <pt x="747" y="-626" on="1"/>
        <pt x="873" y="-752" on="1"/>
        <pt x="878" y="-746" on="1"/>
        <pt x="945" y="-659" on="0"/>
        <pt x="959" y="-543" on="1"/>
        <pt x="963" y="-502" on="0"/>
        <pt x="959" y="-457" on="1"/>
        <pt x="946" y="-351" on="0"/>
      </contour>
      <contour>
        <pt x="681" y="-693" on="1"/>
        <pt x="555" y="-567" on="1"/>
        <pt x="429" y="-693" on="1"/>
        <pt x="303" y="-818" on="1"/>
        <pt x="313" y="-826" on="1"/>
        <pt x="392" y="-885" on="0"/>
        <pt x="489" y="-900" on="1"/>
        <pt x="519" y="-905" on="0"/>
        <pt x="591" y="-905" on="0"/>
        <pt x="622" y="-900" on="1"/>
        <pt x="689" y="-890" on="0"/>
        <pt x="755" y="-854" on="1"/>
        <pt x="786" y="-835" on="0"/>
        <pt x="801" y="-823" on="1"/>
        <pt x="807" y="-818" on="1"/>
      </contour>
    </TTGlyph>
    <TTGlyph name="O" xMin="25" yMin="-1402" xMax="1485" yMax="-1">
      <contour>
        <pt x="722" y="-1" on="1"/>
        <pt x="814" y="-2" on="1"/>
        <pt x="961" y="-17" on="0"/>
        <pt x="1084" y="-83" on="1"/>
        <pt x="1195" y="-142" on="0"/>
        <pt x="1277" y="-235" on="1"/>
        <pt x="1374" y="-342" on="0"/>
        <pt x="1420" y="-485" on="1"/>
        <pt x="1485" y="-683" on="0"/>
        <pt x="1429" y="-884" on="1"/>
        <pt x="1425" y="-899" on="0"/>
        <pt x="1420" y="-914" on="1"/>
        <pt x="1386" y="-1022" on="0"/>
        <pt x="1318" y="-1114" on="1"/>
        <pt x="1202" y="-1274" on="0"/>
        <pt x="1016" y="-1350" on="1"/>
        <pt x="917" y="-1388" on="0"/>
        <pt x="813" y="-1398" on="1"/>
        <pt x="764" y="-1402" on="0"/>
        <pt x="703" y="-1398" on="1"/>
        <pt x="700" y="-1398" on="0"/>
        <pt x="697" y="-1398" on="1"/>
        <pt x="550" y="-1383" on="0"/>
        <pt x="426" y="-1317" on="1"/>
        <pt x="315" y="-1258" on="0"/>
        <pt x="233" y="-1165" on="1"/>
        <pt x="136" y="-1057" on="0"/>
        <pt x="90" y="-914" on="1"/>
        <pt x="25" y="-717" on="0"/>
        <pt x="81" y="-515" on="1"/>
        <pt x="85" y="-500" on="0"/>
        <pt x="90" y="-485" on="1"/>
        <pt x="136" y="-342" on="0"/>
        <pt x="233" y="-235" on="1"/>
        <pt x="284" y="-178" on="0"/>
        <pt x="335" y="-141" on="1"/>
        <pt x="455" y="-49" on="0"/>
        <pt x="604" y="-17" on="1"/>
        <pt x="660" y="-4" on="0"/>
      </contour>
      <contour>
        <pt x="804" y="-110" on="1"/>
        <pt x="752" y="-107" on="0"/>
        <pt x="720" y="-109" on="1"/>
        <pt x="567" y="-120" on="0"/>
        <pt x="441" y="-199" on="1"/>
        <pt x="398" y="-225" on="0"/>
        <pt x="378" y="-245" on="1"/>
        <pt x="566" y="-435" on="1"/>
        <pt x="755" y="-623" on="1"/>
        <pt x="851" y="-527" on="1"/>
        <pt x="1040" y="-338" on="1"/>
        <pt x="1132" y="-245" on="1"/>
        <pt x="1128" y="-241" on="1"/>
        <pt x="1127" y="-240" on="0"/>
        <pt x="1083" y="-207" on="1"/>
        <pt x="955" y="-123" on="0"/>
      </contour>
      <contour>
        <pt x="490" y="-511" on="1"/>
        <pt x="301" y="-322" on="1"/>
        <pt x="297" y="-320" on="0"/>
        <pt x="263" y="-372" on="1"/>
        <pt x="260" y="-378" on="0"/>
        <pt x="257" y="-382" on="1"/>
        <pt x="186" y="-494" on="0"/>
        <pt x="169" y="-627" on="1"/>
        <pt x="165" y="-654" on="0"/>
        <pt x="165" y="-746" on="0"/>
        <pt x="169" y="-772" on="1"/>
        <pt x="186" y="-911" on="0"/>
        <pt x="262" y="-1027" on="1"/>
        <pt x="282" y="-1056" on="0"/>
        <pt x="297" y="-1074" on="1"/>
        <pt x="301" y="-1078" on="1"/>
        <pt x="336" y="-1043" on="1"/>
        <pt x="524" y="-854" on="1"/>
        <pt x="678" y="-700" on="1"/>
      </contour>
      <contour>
        <pt x="1218" y="-332" on="1"/>
        <pt x="1210" y="-322" on="0"/>
        <pt x="1209" y="-322" on="1"/>
        <pt x="1020" y="-511" on="1"/>
        <pt x="832" y="-700" on="1"/>
        <pt x="986" y="-855" on="1"/>
        <pt x="1175" y="-1044" on="1"/>
        <pt x="1209" y="-1078" on="1"/>
        <pt x="1213" y="-1074" on="1"/>
        <pt x="1228" y="-1056" on="0"/>
        <pt x="1248" y="-1027" on="1"/>
        <pt x="1324" y="-911" on="0"/>
        <pt x="1341" y="-772" on="1"/>
        <pt x="1345" y="-746" on="0"/>
        <pt x="1345" y="-700" on="1"/>
        <pt x="1345" y="-645" on="0"/>
        <pt x="1337" y="-600" on="1"/>
        <pt x="1312" y="-449" on="0"/>
      </contour>
      <contour>
        <pt x="944" y="-966" on="1"/>
        <pt x="756" y="-778" on="0"/>
        <pt x="755" y="-777" on="1"/>
        <pt x="424" y="-1108" on="1"/>
        <pt x="378" y="-1155" on="1"/>
        <pt x="382" y="-1159" on="1"/>
        <pt x="389" y="-1166" on="0"/>
        <pt x="428" y="-1193" on="1"/>
        <pt x="543" y="-1270" on="0"/>
        <pt x="682" y="-1287" on="1"/>
        <pt x="882" y="-1313" on="0"/>
        <pt x="1057" y="-1208" on="1"/>
        <pt x="1077" y="-1197" on="0"/>
        <pt x="1096" y="-1183" on="1"/>
        <pt x="1128" y="-1162" on="0"/>
        <pt x="1132" y="-1155" on="1"/>
      </contour>
    </TTGlyph>
    <TTGlyph name="P" xMin="56" yMin="-1000" xMax="1000" yMax="0">
      <contour>
        <pt x="61" y="-2" on="1"/>
        <pt x="64" y="0" on="0"/>
        <pt x="489" y="0" on="1"/>
        <pt x="913" y="0" on="1"/>
        <pt x="954" y="-110" on="1"/>
        <pt x="995" y="-224" on="0"/>
        <pt x="997" y="-227" on="1"/>
        <pt x="999" y="-234" on="1"/>
        <pt x="974" y="-234" on="1"/>
        <pt x="949" y="-233" on="1"/>
        <pt x="946" y="-225" on="1"/>
        <pt x="904" y="-127" on="0"/>
        <pt x="802" y="-80" on="1"/>
        <pt x="789" y="-75" on="0"/>
        <pt x="776" y="-70" on="1"/>
        <pt x="723" y="-51" on="0"/>
        <pt x="650" y="-45" on="1"/>
        <pt x="607" y="-41" on="0"/>
        <pt x="397" y="-40" on="1"/>
        <pt x="195" y="-40" on="1"/>
        <pt x="199" y="-45" on="1"/>
        <pt x="527" y="-497" on="1"/>
        <pt x="528" y="-500" on="0"/>
        <pt x="527" y="-503" on="1"/>
        <pt x="527" y="-505" on="0"/>
        <pt x="341" y="-718" on="1"/>
        <pt x="157" y="-931" on="0"/>
        <pt x="156" y="-932" on="1"/>
        <pt x="380" y="-933" on="1"/>
        <pt x="613" y="-932" on="0"/>
        <pt x="656" y="-928" on="1"/>
        <pt x="715" y="-923" on="0"/>
        <pt x="757" y="-911" on="1"/>
        <pt x="871" y="-879" on="0"/>
        <pt x="926" y="-788" on="1"/>
        <pt x="937" y="-769" on="0"/>
        <pt x="945" y="-749" on="1"/>
        <pt x="949" y="-739" on="1"/>
        <pt x="974" y="-739" on="1"/>
        <pt x="999" y="-739" on="0"/>
        <pt x="999" y="-740" on="1"/>
        <pt x="1000" y="-739" on="0"/>
        <pt x="970" y="-827" on="1"/>
        <pt x="927" y="-956" on="1"/>
        <pt x="913" y="-1000" on="1"/>
        <pt x="489" y="-1000" on="1"/>
        <pt x="65" y="-1000" on="0"/>
        <pt x="62" y="-998" on="1"/>
        <pt x="56" y="-996" on="0"/>
        <pt x="56" y="-989" on="1"/>
        <pt x="56" y="-987" on="0"/>
        <pt x="58" y="-983" on="1"/>
        <pt x="61" y="-980" on="0"/>
        <pt x="246" y="-766" on="1"/>
        <pt x="433" y="-551" on="1"/>
        <pt x="245" y="-292" on="1"/>
        <pt x="57" y="-33" on="1"/>
        <pt x="56" y="-22" on="1"/>
        <pt x="56" y="-6" on="0"/>
      </contour>
    </TTGlyph>
    <TTGlyph name="Q" xMin="55" yMin="-1000" xMax="888" yMax="0">
      <contour>
        <pt x="55" y="-20" on="1"/>
        <pt x="55" y="0" on="1"/>
        <pt x="472" y="0" on="1"/>
        <pt x="888" y="0" on="1"/>
        <pt x="888" y="-20" on="1"/>
        <pt x="888" y="-40" on="1"/>
        <pt x="874" y="-40" on="1"/>
        <pt x="804" y="-44" on="0"/>
        <pt x="788" y="-87" on="1"/>
        <pt x="786" y="-94" on="1"/>
        <pt x="786" y="-500" on="1"/>
        <pt x="786" y="-905" on="1"/>
        <pt x="788" y="-913" on="1"/>
        <pt x="804" y="-956" on="0"/>
        <pt x="874" y="-960" on="1"/>
        <pt x="888" y="-960" on="1"/>
        <pt x="888" y="-980" on="1"/>
        <pt x="888" y="-1000" on="1"/>
        <pt x="724" y="-1000" on="1"/>
        <pt x="560" y="-1000" on="1"/>
        <pt x="560" y="-980" on="1"/>
        <pt x="560" y="-960" on="1"/>
        <pt x="574" y="-960" on="1"/>
        <pt x="644" y="-956" on="0"/>
        <pt x="660" y="-913" on="1"/>
        <pt x="663" y="-905" on="1"/>
        <pt x="663" y="-473" on="1"/>
        <pt x="663" y="-40" on="1"/>
        <pt x="471" y="-40" on="1"/>
        <pt x="280" y="-40" on="1"/>
        <pt x="280" y="-473" on="1"/>
        <pt x="281" y="-905" on="1"/>
        <pt x="283" y="-913" on="1"/>
        <pt x="299" y="-956" on="0"/>
        <pt x="369" y="-960" on="1"/>
        <pt x="383" y="-960" on="1"/>
        <pt x="383" y="-980" on="1"/>
        <pt x="383" y="-1000" on="1"/>
        <pt x="219" y="-1000" on="1"/>
        <pt x="55" y="-1000" on="1"/>
        <pt x="55" y="-980" on="1"/>
        <pt x="55" y="-960" on="1"/>
        <pt x="69" y="-960" on="1"/>
        <pt x="139" y="-956" on="0"/>
        <pt x="155" y="-913" on="1"/>
        <pt x="158" y="-905" on="1"/>
        <pt x="158" y="-500" on="1"/>
        <pt x="158" y="-94" on="1"/>
        <pt x="155" y="-87" on="1"/>
        <pt x="139" y="-44" on="0"/>
        <pt x="69" y="-40" on="1"/>
        <pt x="55" y="-40" on="1"/>
      </contour>
    </TTGlyph>
    <TTGlyph name="R" xMin="53" yMin="-1110" xMax="612" yMax="3">
      <contour>
        <pt x="478" y="-2" on="1"/>
        <pt x="500" y="3" on="0"/>
        <pt x="523" y="-3" on="1"/>
        <pt x="544" y="-9" on="0"/>
        <pt x="560" y="-20" on="1"/>
        <pt x="577" y="-35" on="0"/>
        <pt x="586" y="-49" on="1"/>
        <pt x="601" y="-71" on="0"/>
        <pt x="607" y="-99" on="1"/>
        <pt x="612" y="-123" on="0"/>
        <pt x="608" y="-145" on="1"/>
        <pt x="602" y="-160" on="0"/>
        <pt x="594" y="-167" on="1"/>
        <pt x="568" y="-192" on="0"/>
        <pt x="535" y="-178" on="1"/>
        <pt x="525" y="-174" on="0"/>
        <pt x="518" y="-167" on="1"/>
        <pt x="510" y="-160" on="0"/>
        <pt x="504" y="-145" on="1"/>
        <pt x="500" y="-130" on="0"/>
        <pt x="504" y="-111" on="1"/>
        <pt x="513" y="-84" on="0"/>
        <pt x="538" y="-77" on="1"/>
        <pt x="545" y="-75" on="1"/>
        <pt x="543" y="-72" on="1"/>
        <pt x="542" y="-70" on="0"/>
        <pt x="534" y="-62" on="1"/>
        <pt x="514" y="-42" on="0"/>
        <pt x="486" y="-48" on="1"/>
        <pt x="477" y="-50" on="0"/>
        <pt x="464" y="-58" on="1"/>
        <pt x="445" y="-74" on="0"/>
        <pt x="434" y="-108" on="1"/>
        <pt x="420" y="-150" on="0"/>
        <pt x="407" y="-315" on="1"/>
        <pt x="405" y="-336" on="0"/>
        <pt x="403" y="-362" on="1"/>
        <pt x="392" y="-519" on="0"/>
        <pt x="378" y="-633" on="1"/>
        <pt x="365" y="-754" on="0"/>
        <pt x="345" y="-884" on="1"/>
        <pt x="331" y="-981" on="0"/>
        <pt x="287" y="-1044" on="1"/>
        <pt x="267" y="-1071" on="0"/>
        <pt x="245" y="-1087" on="1"/>
        <pt x="227" y="-1099" on="0"/>
        <pt x="209" y="-1104" on="1"/>
        <pt x="191" y="-1110" on="0"/>
        <pt x="168" y="-1110" on="1"/>
        <pt x="144" y="-1110" on="0"/>
        <pt x="123" y="-1101" on="1"/>
        <pt x="105" y="-1092" on="0"/>
        <pt x="91" y="-1078" on="1"/>
        <pt x="65" y="-1051" on="0"/>
        <pt x="58" y="-1012" on="1"/>
        <pt x="53" y="-988" on="0"/>
        <pt x="57" y="-966" on="1"/>
        <pt x="63" y="-950" on="0"/>
        <pt x="71" y="-944" on="1"/>
        <pt x="97" y="-919" on="0"/>
        <pt x="130" y="-933" on="1"/>
        <pt x="140" y="-937" on="0"/>
        <pt x="147" y="-944" on="1"/>
        <pt x="155" y="-950" on="0"/>
        <pt x="161" y="-966" on="1"/>
        <pt x="165" y="-981" on="0"/>
        <pt x="161" y="-1000" on="1"/>
        <pt x="152" y="-1027" on="0"/>
        <pt x="127" y="-1034" on="1"/>
        <pt x="120" y="-1036" on="1"/>
        <pt x="122" y="-1039" on="1"/>
        <pt x="123" y="-1041" on="0"/>
        <pt x="131" y="-1049" on="1"/>
        <pt x="151" y="-1069" on="0"/>
        <pt x="180" y="-1062" on="1"/>
        <pt x="231" y="-1052" on="0"/>
        <pt x="245" y="-941" on="1"/>
        <pt x="253" y="-894" on="0"/>
        <pt x="260" y="-776" on="1"/>
        <pt x="271" y="-632" on="0"/>
        <pt x="281" y="-540" on="1"/>
        <pt x="306" y="-302" on="0"/>
        <pt x="325" y="-204" on="1"/>
        <pt x="326" y="-201" on="0"/>
        <pt x="326" y="-199" on="1"/>
        <pt x="364" y="-20" on="0"/>
      </contour>
    </TTGlyph>
    <TTGlyph name="S" xMin="55" yMin="-999" xMax="777" yMax="10">
      <contour>
        <pt x="90" y="-2" on="1"/>
        <pt x="108" y="3" on="0"/>
        <pt x="124" y="-6" on="1"/>
        <pt x="137" y="-12" on="0"/>
        <pt x="143" y="-25" on="1"/>
        <pt x="148" y="-35" on="0"/>
        <pt x="148" y="-77" on="1"/>
        <pt x="149" y="-119" on="0"/>
        <pt x="149" y="-351" on="1"/>
        <pt x="149" y="-664" on="0"/>
        <pt x="150" y="-672" on="1"/>
        <pt x="157" y="-760" on="0"/>
        <pt x="221" y="-825" on="1"/>
        <pt x="286" y="-890" on="0"/>
        <pt x="376" y="-903" on="1"/>
        <pt x="416" y="-909" on="0"/>
        <pt x="456" y="-903" on="1"/>
        <pt x="546" y="-890" on="0"/>
        <pt x="611" y="-825" on="1"/>
        <pt x="675" y="-760" on="0"/>
        <pt x="682" y="-672" on="1"/>
        <pt x="683" y="-664" on="0"/>
        <pt x="683" y="-38" on="0"/>
        <pt x="687" y="-29" on="1"/>
        <pt x="686" y="-32" on="0"/>
        <pt x="689" y="-25" on="1"/>
        <pt x="690" y="-21" on="0"/>
        <pt x="697" y="-14" on="1"/>
        <pt x="721" y="10" on="0"/>
        <pt x="752" y="-6" on="1"/>
        <pt x="765" y="-12" on="0"/>
        <pt x="771" y="-25" on="1"/>
        <pt x="776" y="-35" on="0"/>
        <pt x="776" y="-78" on="1"/>
        <pt x="777" y="-120" on="0"/>
        <pt x="777" y="-354" on="1"/>
        <pt x="777" y="-671" on="0"/>
        <pt x="776" y="-679" on="1"/>
        <pt x="772" y="-706" on="1"/>
        <pt x="751" y="-838" on="0"/>
        <pt x="642" y="-923" on="1"/>
        <pt x="575" y="-976" on="0"/>
        <pt x="490" y="-993" on="1"/>
        <pt x="455" y="-999" on="0"/>
        <pt x="377" y="-999" on="0"/>
        <pt x="343" y="-993" on="1"/>
        <pt x="260" y="-976" on="0"/>
        <pt x="196" y="-927" on="1"/>
        <pt x="77" y="-839" on="0"/>
        <pt x="58" y="-695" on="1"/>
        <pt x="57" y="-687" on="0"/>
        <pt x="55" y="-671" on="0"/>
        <pt x="55" y="-354" on="1"/>
        <pt x="55" y="-38" on="0"/>
        <pt x="59" y="-29" on="1"/>
        <pt x="58" y="-31" on="0"/>
        <pt x="61" y="-25" on="1"/>
        <pt x="69" y="-7" on="0"/>
      </contour>
    </TTGlyph>
    <TTGlyph name="T" xMin="55" yMin="-1010" xMax="777" yMax="2">
      <contour>
        <pt x="391" y="-1" on="1"/>
        <pt x="423" y="2" on="0"/>
        <pt x="463" y="-3" on="1"/>
        <pt x="562" y="-17" on="0"/>
        <pt x="636" y="-73" on="1"/>
        <pt x="755" y="-161" on="0"/>
        <pt x="774" y="-305" on="1"/>
        <pt x="775" y="-313" on="0"/>
        <pt x="777" y="-329" on="0"/>
        <pt x="777" y="-646" on="1"/>
        <pt x="777" y="-962" on="0"/>
        <pt x="773" y="-971" on="1"/>
        <pt x="774" y="-969" on="0"/>
        <pt x="771" y="-975" on="1"/>
        <pt x="770" y="-980" on="0"/>
        <pt x="763" y="-986" on="1"/>
        <pt x="739" y="-1010" on="0"/>
        <pt x="708" y="-994" on="1"/>
        <pt x="695" y="-988" on="0"/>
        <pt x="689" y="-975" on="1"/>
        <pt x="684" y="-965" on="0"/>
        <pt x="684" y="-923" on="1"/>
        <pt x="683" y="-881" on="0"/>
        <pt x="683" y="-649" on="1"/>
        <pt x="683" y="-336" on="0"/>
        <pt x="682" y="-328" on="1"/>
        <pt x="675" y="-240" on="0"/>
        <pt x="611" y="-175" on="1"/>
        <pt x="546" y="-110" on="0"/>
        <pt x="456" y="-97" on="1"/>
        <pt x="416" y="-91" on="0"/>
        <pt x="376" y="-97" on="1"/>
        <pt x="286" y="-110" on="0"/>
        <pt x="221" y="-175" on="1"/>
        <pt x="157" y="-240" on="0"/>
        <pt x="150" y="-328" on="1"/>
        <pt x="149" y="-336" on="0"/>
        <pt x="149" y="-962" on="0"/>
        <pt x="145" y="-971" on="1"/>
        <pt x="146" y="-968" on="0"/>
        <pt x="143" y="-975" on="1"/>
        <pt x="137" y="-988" on="0"/>
        <pt x="124" y="-994" on="1"/>
        <pt x="102" y="-1007" on="0"/>
        <pt x="80" y="-994" on="1"/>
        <pt x="67" y="-988" on="0"/>
        <pt x="61" y="-975" on="1"/>
        <pt x="56" y="-965" on="0"/>
        <pt x="56" y="-922" on="1"/>
        <pt x="55" y="-880" on="0"/>
        <pt x="55" y="-646" on="1"/>
        <pt x="55" y="-329" on="0"/>
        <pt x="56" y="-321" on="1"/>
        <pt x="60" y="-294" on="1"/>
        <pt x="81" y="-163" on="0"/>
        <pt x="189" y="-78" on="1"/>
        <pt x="244" y="-34" on="0"/>
        <pt x="313" y="-14" on="1"/>
        <pt x="349" y="-4" on="0"/>
      </contour>
    </TTGlyph>
    <TTGlyph name="U" xMin="55" yMin="-999" xMax="777" yMax="10">
      <contour>
        <pt x="90" y="-2" on="1"/>
        <pt x="108" y="3" on="0"/>
        <pt x="124" y="-6" on="1"/>
        <pt x="137" y="-12" on="0"/>
        <pt x="143" y="-25" on="1"/>
        <pt x="148" y="-35" on="0"/>
        <pt x="148" y="-77" on="1"/>
        <pt x="149" y="-119" on="0"/>
        <pt x="149" y="-351" on="1"/>
        <pt x="149" y="-664" on="0"/>
        <pt x="150" y="-672" on="1"/>
        <pt x="157" y="-760" on="0"/>
        <pt x="221" y="-825" on="1"/>
        <pt x="286" y="-890" on="0"/>
        <pt x="376" y="-903" on="1"/>
        <pt x="416" y="-909" on="0"/>
        <pt x="456" y="-903" on="1"/>
        <pt x="546" y="-890" on="0"/>
        <pt x="611" y="-825" on="1"/>
        <pt x="675" y="-760" on="0"/>
        <pt x="682" y="-672" on="1"/>
        <pt x="683" y="-664" on="0"/>
        <pt x="683" y="-38" on="0"/>
        <pt x="687" y="-29" on="1"/>
        <pt x="686" y="-32" on="0"/>
        <pt x="689" y="-25" on="1"/>
        <pt x="690" y="-21" on="0"/>
        <pt x="697" y="-14" on="1"/>
        <pt x="721" y="10" on="0"/>
        <pt x="752" y="-6" on="1"/>
        <pt x="765" y="-12" on="0"/>
        <pt x="771" y="-25" on="1"/>
        <pt x="776" y="-35" on="0"/>
        <pt x="776" y="-78" on="1"/>
        <pt x="777" y="-120" on="0"/>
        <pt x="777" y="-354" on="1"/>
        <pt x="777" y="-671" on="0"/>
        <pt x="776" y="-679" on="1"/>
        <pt x="772" y="-706" on="1"/>
        <pt x="751" y="-838" on="0"/>
        <pt x="642" y="-923" on="1"/>
        <pt x="575" y="-976" on="0"/>
        <pt x="490" y="-993" on="1"/>
        <pt x="455" y="-999" on="0"/>
        <pt x="377" y="-999" on="0"/>
        <pt x="343" y="-993" on="1"/>
        <pt x="260" y="-976" on="0"/>
        <pt x="196" y="-927" on="1"/>
        <pt x="77" y="-839" on="0"/>
        <pt x="58" y="-695" on="1"/>
        <pt x="57" y="-687" on="0"/>
        <pt x="55" y="-671" on="0"/>
        <pt x="55" y="-354" on="1"/>
        <pt x="55" y="-38" on="0"/>
        <pt x="59" y="-29" on="1"/>
        <pt x="58" y="-31" on="0"/>
        <pt x="61" y="-25" on="1"/>
        <pt x="69" y="-7" on="0"/>
      </contour>
      <contour>
        <pt x="405" y="-301" on="1"/>
        <pt x="417" y="-300" on="1"/>
        <pt x="418" y="-300" on="1"/>
        <pt x="430" y="-301" on="0"/>
        <pt x="435" y="-304" on="1"/>
        <pt x="457" y="-315" on="0"/>
        <pt x="461" y="-336" on="1"/>
        <pt x="463" y="-340" on="0"/>
        <pt x="463" y="-384" on="1"/>
        <pt x="463" y="-426" on="1"/>
        <pt x="508" y="-426" on="1"/>
        <pt x="554" y="-426" on="1"/>
        <pt x="561" y="-430" on="1"/>
        <pt x="591" y="-444" on="0"/>
        <pt x="589" y="-476" on="1"/>
        <pt x="586" y="-506" on="0"/>
        <pt x="558" y="-517" on="1"/>
        <pt x="552" y="-519" on="1"/>
        <pt x="507" y="-520" on="1"/>
        <pt x="463" y="-520" on="1"/>
        <pt x="463" y="-565" on="1"/>
        <pt x="463" y="-608" on="0"/>
        <pt x="460" y="-615" on="1"/>
        <pt x="449" y="-645" on="0"/>
        <pt x="383" y="-645" on="0"/>
        <pt x="372" y="-615" on="1"/>
        <pt x="369" y="-608" on="0"/>
        <pt x="369" y="-565" on="1"/>
        <pt x="369" y="-520" on="1"/>
        <pt x="325" y="-520" on="1"/>
        <pt x="281" y="-519" on="1"/>
        <pt x="274" y="-517" on="1"/>
        <pt x="246" y="-506" on="0"/>
        <pt x="243" y="-476" on="1"/>
        <pt x="241" y="-444" on="0"/>
        <pt x="271" y="-430" on="1"/>
        <pt x="279" y="-426" on="1"/>
        <pt x="324" y="-426" on="1"/>
        <pt x="369" y="-426" on="1"/>
        <pt x="369" y="-384" on="1"/>
        <pt x="369" y="-335" on="0"/>
        <pt x="375" y="-324" on="1"/>
        <pt x="386" y="-306" on="0"/>
      </contour>
    </TTGlyph>
    <TTGlyph name="V" xMin="54" yMin="-1010" xMax="778" yMax="3">
      <contour>
        <pt x="404" y="-2" on="1"/>
        <pt x="422" y="3" on="0"/>
        <pt x="438" y="-6" on="1"/>
        <pt x="451" y="-11" on="0"/>
        <pt x="457" y="-24" on="1"/>
        <pt x="461" y="-32" on="0"/>
        <pt x="618" y="-485" on="1"/>
        <pt x="776" y="-940" on="0"/>
        <pt x="777" y="-950" on="1"/>
        <pt x="778" y="-982" on="0"/>
        <pt x="750" y="-996" on="1"/>
        <pt x="746" y="-998" on="0"/>
        <pt x="741" y="-999" on="1"/>
        <pt x="713" y="-1006" on="0"/>
        <pt x="694" y="-983" on="1"/>
        <pt x="691" y="-979" on="0"/>
        <pt x="689" y="-975" on="1"/>
        <pt x="551" y="-581" on="1"/>
        <pt x="416" y="-192" on="1"/>
        <pt x="281" y="-581" on="1"/>
        <pt x="143" y="-974" on="0"/>
        <pt x="143" y="-975" on="1"/>
        <pt x="137" y="-988" on="0"/>
        <pt x="124" y="-994" on="1"/>
        <pt x="93" y="-1010" on="0"/>
        <pt x="69" y="-986" on="1"/>
        <pt x="54" y="-971" on="0"/>
        <pt x="55" y="-950" on="1"/>
        <pt x="56" y="-940" on="0"/>
        <pt x="214" y="-485" on="1"/>
        <pt x="376" y="-23" on="0"/>
        <pt x="376" y="-22" on="1"/>
        <pt x="386" y="-7" on="0"/>
      </contour>
    </TTGlyph>
    <TTGlyph name="W" xMin="54" yMin="-1009" xMax="778" yMax="10">
      <contour>
        <pt x="90" y="-2" on="1"/>
        <pt x="108" y="3" on="0"/>
        <pt x="124" y="-6" on="1"/>
        <pt x="137" y="-11" on="0"/>
        <pt x="143" y="-24" on="1"/>
        <pt x="142" y="-23" on="0"/>
        <pt x="281" y="-419" on="1"/>
        <pt x="416" y="-808" on="1"/>
        <pt x="551" y="-419" on="1"/>
        <pt x="690" y="-23" on="0"/>
        <pt x="689" y="-24" on="1"/>
        <pt x="691" y="-20" on="0"/>
        <pt x="697" y="-14" on="1"/>
        <pt x="720" y="10" on="0"/>
        <pt x="749" y="-4" on="1"/>
        <pt x="757" y="-8" on="0"/>
        <pt x="763" y="-14" on="1"/>
        <pt x="778" y="-29" on="0"/>
        <pt x="777" y="-50" on="1"/>
        <pt x="776" y="-60" on="0"/>
        <pt x="618" y="-514" on="1"/>
        <pt x="462" y="-966" on="0"/>
        <pt x="457" y="-976" on="1"/>
        <pt x="455" y="-980" on="0"/>
        <pt x="449" y="-986" on="1"/>
        <pt x="426" y="-1009" on="0"/>
        <pt x="396" y="-995" on="1"/>
        <pt x="383" y="-990" on="0"/>
        <pt x="376" y="-978" on="1"/>
        <pt x="376" y="-977" on="0"/>
        <pt x="214" y="-515" on="1"/>
        <pt x="56" y="-60" on="0"/>
        <pt x="55" y="-50" on="1"/>
        <pt x="54" y="-18" on="0"/>
        <pt x="81" y="-5" on="1"/>
        <pt x="85" y="-3" on="0"/>
      </contour>
    </TTGlyph>
    <TTGlyph name="X" xMin="55" yMin="-1400" xMax="1388" yMax="0">
      <contour>
        <pt x="60" y="-2" on="1"/>
        <pt x="63" y="0" on="0"/>
        <pt x="665" y="0" on="1"/>
        <pt x="1267" y="0" on="1"/>
        <pt x="1324" y="-132" on="1"/>
        <pt x="1386" y="-278" on="0"/>
        <pt x="1384" y="-273" on="1"/>
        <pt x="1388" y="-281" on="1"/>
        <pt x="1363" y="-281" on="1"/>
        <pt x="1338" y="-281" on="1"/>
        <pt x="1333" y="-271" on="1"/>
        <pt x="1314" y="-229" on="0"/>
        <pt x="1276" y="-191" on="1"/>
        <pt x="1231" y="-146" on="0"/>
        <pt x="1172" y="-116" on="1"/>
        <pt x="1136" y="-98" on="0"/>
        <pt x="1085" y="-82" on="1"/>
        <pt x="1009" y="-60" on="0"/>
        <pt x="896" y="-52" on="1"/>
        <pt x="845" y="-49" on="0"/>
        <pt x="550" y="-48" on="1"/>
        <pt x="264" y="-48" on="1"/>
        <pt x="264" y="-50" on="0"/>
        <pt x="500" y="-371" on="1"/>
        <pt x="735" y="-696" on="0"/>
        <pt x="737" y="-698" on="0"/>
        <pt x="737" y="-702" on="1"/>
        <pt x="735" y="-707" on="0"/>
        <pt x="473" y="-999" on="1"/>
        <pt x="210" y="-1293" on="0"/>
        <pt x="206" y="-1297" on="1"/>
        <pt x="202" y="-1302" on="1"/>
        <pt x="510" y="-1302" on="1"/>
        <pt x="868" y="-1301" on="0"/>
        <pt x="927" y="-1296" on="1"/>
        <pt x="931" y="-1295" on="0"/>
        <pt x="936" y="-1295" on="1"/>
        <pt x="1097" y="-1282" on="0"/>
        <pt x="1193" y="-1228" on="1"/>
        <pt x="1229" y="-1207" on="0"/>
        <pt x="1245" y="-1193" on="1"/>
        <pt x="1310" y="-1141" on="0"/>
        <pt x="1334" y="-1078" on="1"/>
        <pt x="1338" y="-1070" on="1"/>
        <pt x="1338" y="-1069" on="0"/>
        <pt x="1363" y="-1069" on="1"/>
        <pt x="1388" y="-1069" on="1"/>
        <pt x="1327" y="-1234" on="1"/>
        <pt x="1267" y="-1399" on="1"/>
        <pt x="666" y="-1400" on="1"/>
        <pt x="64" y="-1400" on="0"/>
        <pt x="62" y="-1399" on="1"/>
        <pt x="55" y="-1396" on="0"/>
        <pt x="55" y="-1389" on="1"/>
        <pt x="55" y="-1387" on="0"/>
        <pt x="57" y="-1383" on="1"/>
        <pt x="66" y="-1374" on="0"/>
        <pt x="327" y="-1081" on="1"/>
        <pt x="596" y="-781" on="0"/>
        <pt x="595" y="-779" on="1"/>
        <pt x="590" y="-774" on="0"/>
        <pt x="324" y="-409" on="1"/>
        <pt x="56" y="-41" on="1"/>
        <pt x="55" y="-26" on="1"/>
        <pt x="55" y="-5" on="0"/>
      </contour>
    </TTGlyph>
    <TTGlyph name="Y" xMin="56" yMin="-1400" xMax="1221" yMax="0">
      <contour>
        <pt x="56" y="-27" on="1"/>
        <pt x="56" y="0" on="1"/>
        <pt x="639" y="0" on="1"/>
        <pt x="1221" y="0" on="1"/>
        <pt x="1221" y="-27" on="1"/>
        <pt x="1221" y="-54" on="1"/>
        <pt x="1211" y="-54" on="1"/>
        <pt x="1156" y="-54" on="0"/>
        <pt x="1118" y="-69" on="1"/>
        <pt x="1074" y="-87" on="0"/>
        <pt x="1060" y="-130" on="1"/>
        <pt x="1058" y="-138" on="1"/>
        <pt x="1058" y="-700" on="1"/>
        <pt x="1058" y="-1261" on="1"/>
        <pt x="1060" y="-1270" on="1"/>
        <pt x="1074" y="-1313" on="0"/>
        <pt x="1118" y="-1331" on="1"/>
        <pt x="1156" y="-1346" on="0"/>
        <pt x="1211" y="-1346" on="1"/>
        <pt x="1221" y="-1346" on="1"/>
        <pt x="1221" y="-1373" on="1"/>
        <pt x="1221" y="-1400" on="1"/>
        <pt x="968" y="-1400" on="1"/>
        <pt x="715" y="-1400" on="1"/>
        <pt x="715" y="-1373" on="1"/>
        <pt x="715" y="-1346" on="1"/>
        <pt x="725" y="-1346" on="1"/>
        <pt x="780" y="-1346" on="0"/>
        <pt x="818" y="-1331" on="1"/>
        <pt x="862" y="-1313" on="0"/>
        <pt x="876" y="-1270" on="1"/>
        <pt x="879" y="-1261" on="1"/>
        <pt x="879" y="-658" on="1"/>
        <pt x="879" y="-54" on="1"/>
        <pt x="639" y="-54" on="1"/>
        <pt x="398" y="-54" on="1"/>
        <pt x="398" y="-658" on="1"/>
        <pt x="399" y="-1261" on="1"/>
        <pt x="401" y="-1270" on="1"/>
        <pt x="415" y="-1313" on="0"/>
        <pt x="459" y="-1331" on="1"/>
        <pt x="497" y="-1346" on="0"/>
        <pt x="552" y="-1346" on="1"/>
        <pt x="562" y="-1346" on="1"/>
        <pt x="562" y="-1373" on="1"/>
        <pt x="562" y="-1400" on="1"/>
        <pt x="309" y="-1400" on="1"/>
        <pt x="56" y="-1400" on="1"/>
        <pt x="56" y="-1373" on="1"/>
        <pt x="56" y="-1346" on="1"/>
        <pt x="66" y="-1346" on="1"/>
        <pt x="121" y="-1346" on="0"/>
        <pt x="159" y="-1331" on="1"/>
        <pt x="203" y="-1313" on="0"/>
        <pt x="217" y="-1270" on="1"/>
        <pt x="220" y="-1261" on="1"/>
        <pt x="220" y="-700" on="1"/>
        <pt x="220" y="-138" on="1"/>
        <pt x="217" y="-130" on="1"/>
        <pt x="203" y="-87" on="0"/>
        <pt x="159" y="-69" on="1"/>
        <pt x="121" y="-54" on="0"/>
        <pt x="66" y="-54" on="1"/>
        <pt x="56" y="-54" on="1"/>
      </contour>
    </TTGlyph>
    <TTGlyph name="Z" xMin="55" yMin="-2237" xMax="944" yMax="3">
      <contour>
        <pt x="814" y="-1" on="1"/>
        <pt x="835" y="3" on="0"/>
        <pt x="856" y="-3" on="1"/>
        <pt x="878" y="-10" on="0"/>
        <pt x="889" y="-18" on="1"/>
        <pt x="903" y="-29" on="0"/>
        <pt x="917" y="-47" on="1"/>
        <pt x="944" y="-87" on="0"/>
        <pt x="944" y="-137" on="1"/>
        <pt x="944" y="-176" on="0"/>
        <pt x="914" y="-192" on="1"/>
        <pt x="883" y="-209" on="0"/>
        <pt x="852" y="-192" on="1"/>
        <pt x="821" y="-176" on="0"/>
        <pt x="822" y="-137" on="1"/>
        <pt x="823" y="-113" on="0"/>
        <pt x="838" y="-96" on="1"/>
        <pt x="853" y="-83" on="0"/>
        <pt x="871" y="-79" on="1"/>
        <pt x="878" y="-77" on="0"/>
        <pt x="879" y="-77" on="1"/>
        <pt x="866" y="-61" on="1"/>
        <pt x="865" y="-60" on="1"/>
        <pt x="846" y="-43" on="0"/>
        <pt x="827" y="-48" on="1"/>
        <pt x="800" y="-55" on="0"/>
        <pt x="771" y="-129" on="1"/>
        <pt x="738" y="-213" on="0"/>
        <pt x="701" y="-392" on="1"/>
        <pt x="671" y="-534" on="0"/>
        <pt x="637" y="-739" on="1"/>
        <pt x="586" y="-1037" on="0"/>
        <pt x="522" y="-1332" on="1"/>
        <pt x="444" y="-1687" on="0"/>
        <pt x="389" y="-1889" on="1"/>
        <pt x="329" y="-2106" on="0"/>
        <pt x="261" y="-2177" on="1"/>
        <pt x="235" y="-2202" on="0"/>
        <pt x="215" y="-2211" on="1"/>
        <pt x="159" y="-2237" on="0"/>
        <pt x="110" y="-2204" on="1"/>
        <pt x="96" y="-2193" on="0"/>
        <pt x="82" y="-2175" on="1"/>
        <pt x="55" y="-2135" on="0"/>
        <pt x="55" y="-2035" on="0"/>
        <pt x="101" y="-2024" on="1"/>
        <pt x="124" y="-2018" on="0"/>
        <pt x="147" y="-2030" on="1"/>
        <pt x="178" y="-2046" on="0"/>
        <pt x="177" y="-2085" on="1"/>
        <pt x="176" y="-2109" on="0"/>
        <pt x="161" y="-2126" on="1"/>
        <pt x="147" y="-2139" on="0"/>
        <pt x="129" y="-2143" on="1"/>
        <pt x="121" y="-2145" on="0"/>
        <pt x="120" y="-2145" on="1"/>
        <pt x="133" y="-2161" on="1"/>
        <pt x="134" y="-2162" on="1"/>
        <pt x="158" y="-2182" on="0"/>
        <pt x="179" y="-2171" on="1"/>
        <pt x="195" y="-2162" on="0"/>
        <pt x="216" y="-2124" on="1"/>
        <pt x="255" y="-2045" on="0"/>
        <pt x="299" y="-1830" on="1"/>
        <pt x="329" y="-1687" on="0"/>
        <pt x="363" y="-1482" on="1"/>
        <pt x="403" y="-1254" on="0"/>
        <pt x="436" y="-1090" on="1"/>
        <pt x="502" y="-773" on="0"/>
        <pt x="573" y="-482" on="1"/>
        <pt x="629" y="-253" on="0"/>
        <pt x="666" y="-168" on="1"/>
        <pt x="724" y="-27" on="0"/>
        <pt x="803" y="-4" on="1"/>
        <pt x="808" y="-2" on="0"/>
      </contour>
    </TTGlyph>
    <TTGlyph name="a" xMin="56" yMin="-1400" xMax="1221" yMax="0">
      <contour>
        <pt x="56" y="-27" on="1"/>
        <pt x="56" y="0" on="1"/>
        <pt x="309" y="0" on="1"/>
        <pt x="562" y="0" on="1"/>
        <pt x="562" y="-27" on="1"/>
        <pt x="562" y="-54" on="1"/>
        <pt x="557" y="-54" on="1"/>
        <pt x="535" y="-54" on="0"/>
        <pt x="505" y="-57" on="1"/>
        <pt x="455" y="-65" on="0"/>
        <pt x="428" y="-87" on="1"/>
        <pt x="410" y="-102" on="0"/>
        <pt x="401" y="-130" on="1"/>
        <pt x="399" y="-138" on="1"/>
        <pt x="398" y="-742" on="1"/>
        <pt x="398" y="-1346" on="1"/>
        <pt x="638" y="-1346" on="1"/>
        <pt x="879" y="-1346" on="1"/>
        <pt x="879" y="-744" on="1"/>
        <pt x="879" y="-148" on="0"/>
        <pt x="877" y="-134" on="1"/>
        <pt x="869" y="-102" on="0"/>
        <pt x="846" y="-85" on="1"/>
        <pt x="834" y="-75" on="0"/>
        <pt x="810" y="-66" on="1"/>
        <pt x="783" y="-57" on="0"/>
        <pt x="735" y="-54" on="1"/>
        <pt x="715" y="-54" on="1"/>
        <pt x="715" y="-27" on="1"/>
        <pt x="715" y="0" on="1"/>
        <pt x="968" y="0" on="1"/>
        <pt x="1221" y="0" on="1"/>
        <pt x="1221" y="-27" on="1"/>
        <pt x="1221" y="-54" on="1"/>
        <pt x="1216" y="-54" on="1"/>
        <pt x="1194" y="-54" on="0"/>
        <pt x="1164" y="-57" on="1"/>
        <pt x="1114" y="-65" on="0"/>
        <pt x="1087" y="-87" on="1"/>
        <pt x="1069" y="-102" on="0"/>
        <pt x="1060" y="-130" on="1"/>
        <pt x="1058" y="-138" on="1"/>
        <pt x="1058" y="-699" on="1"/>
        <pt x="1058" y="-1259" on="0"/>
        <pt x="1059" y="-1266" on="1"/>
        <pt x="1067" y="-1298" on="0"/>
        <pt x="1090" y="-1315" on="1"/>
        <pt x="1102" y="-1325" on="0"/>
        <pt x="1126" y="-1334" on="1"/>
        <pt x="1153" y="-1343" on="0"/>
        <pt x="1201" y="-1346" on="1"/>
        <pt x="1221" y="-1346" on="1"/>
        <pt x="1221" y="-1373" on="1"/>
        <pt x="1221" y="-1400" on="1"/>
        <pt x="639" y="-1400" on="1"/>
        <pt x="56" y="-1400" on="1"/>
        <pt x="56" y="-1373" on="1"/>
        <pt x="56" y="-1346" on="1"/>
        <pt x="66" y="-1346" on="1"/>
        <pt x="121" y="-1346" on="0"/>
        <pt x="159" y="-1331" on="1"/>
        <pt x="203" y="-1313" on="0"/>
        <pt x="217" y="-1270" on="1"/>
        <pt x="220" y="-1261" on="1"/>
        <pt x="220" y="-700" on="1"/>
        <pt x="220" y="-138" on="1"/>
        <pt x="217" y="-130" on="1"/>
        <pt x="203" y="-87" on="0"/>
        <pt x="159" y="-69" on="1"/>
        <pt x="121" y="-54" on="0"/>
        <pt x="66" y="-54" on="1"/>
        <pt x="56" y="-54" on="1"/>
      </contour>
    </TTGlyph>
    <TTGlyph name="ampersand" xMin="265" yMin="-2958" xMax="637" yMax="40">
      <contour>
        <pt x="265" y="-1459" on="1"/>
        <pt x="265" y="40" on="1"/>
        <pt x="451" y="40" on="1"/>
        <pt x="637" y="40" on="1"/>
        <pt x="637" y="0" on="1"/>
        <pt x="637" y="-41" on="1"/>
        <pt x="492" y="-41" on="1"/>
        <pt x="346" y="-41" on="1"/>
        <pt x="346" y="-1500" on="1"/>
        <pt x="346" y="-2958" on="1"/>
        <pt x="306" y="-2958" on="1"/>
        <pt x="265" y="-2958" on="1"/>
      </contour>
    </TTGlyph>
    <TTGlyph name="asciicircum" xMin="50" yMin="-1410" xMax="1056" yMax="6">
      <contour>
        <pt x="543" y="-2" on="1"/>
        <pt x="571" y="6" on="0"/>
        <pt x="593" y="-16" on="1"/>
        <pt x="600" y="-23" on="0"/>
        <pt x="603" y="-29" on="1"/>
        <pt x="1054" y="-1335" on="1"/>
        <pt x="1056" y="-1349" on="0"/>
        <pt x="1053" y="-1359" on="1"/>
        <pt x="1045" y="-1392" on="0"/>
        <pt x="1011" y="-1399" on="1"/>
        <pt x="984" y="-1405" on="0"/>
        <pt x="964" y="-1385" on="1"/>
        <pt x="957" y="-1378" on="0"/>
        <pt x="953" y="-1369" on="1"/>
        <pt x="946" y="-1355" on="0"/>
        <pt x="752" y="-790" on="1"/>
        <pt x="555" y="-221" on="1"/>
        <pt x="358" y="-790" on="1"/>
        <pt x="164" y="-1355" on="0"/>
        <pt x="157" y="-1369" on="1"/>
        <pt x="153" y="-1378" on="0"/>
        <pt x="146" y="-1385" on="1"/>
        <pt x="120" y="-1410" on="0"/>
        <pt x="87" y="-1395" on="1"/>
        <pt x="78" y="-1391" on="0"/>
        <pt x="71" y="-1384" on="1"/>
        <pt x="50" y="-1363" on="0"/>
        <pt x="56" y="-1335" on="1"/>
        <pt x="502" y="-45" on="1"/>
        <pt x="508" y="-29" on="0"/>
        <pt x="508" y="-28" on="1"/>
        <pt x="519" y="-7" on="0"/>
      </contour>
    </TTGlyph>
    <TTGlyph name="asciitilde" xMin="57" yMin="-600" xMax="721" yMax="-1">
      <contour>
        <pt x="381" y="-17" on="1"/>
        <pt x="389" y="-2" on="0"/>
        <pt x="389" y="-1" on="1"/>
        <pt x="397" y="-17" on="1"/>
        <pt x="471" y="-169" on="0"/>
        <pt x="617" y="-259" on="1"/>
        <pt x="626" y="-265" on="0"/>
        <pt x="636" y="-271" on="1"/>
        <pt x="677" y="-295" on="0"/>
        <pt x="708" y="-306" on="1"/>
        <pt x="721" y="-311" on="1"/>
        <pt x="721" y="-333" on="1"/>
        <pt x="721" y="-354" on="1"/>
        <pt x="719" y="-353" on="1"/>
        <pt x="700" y="-348" on="0"/>
        <pt x="667" y="-331" on="1"/>
        <pt x="597" y="-297" on="0"/>
        <pt x="532" y="-244" on="1"/>
        <pt x="522" y="-236" on="1"/>
        <pt x="521" y="-418" on="1"/>
        <pt x="521" y="-600" on="1"/>
        <pt x="499" y="-600" on="1"/>
        <pt x="478" y="-600" on="1"/>
        <pt x="478" y="-398" on="1"/>
        <pt x="478" y="-195" on="1"/>
        <pt x="466" y="-183" on="1"/>
        <pt x="427" y="-140" on="0"/>
        <pt x="399" y="-98" on="1"/>
        <pt x="390" y="-85" on="0"/>
        <pt x="389" y="-84" on="1"/>
        <pt x="379" y="-98" on="1"/>
        <pt x="351" y="-140" on="0"/>
        <pt x="312" y="-183" on="1"/>
        <pt x="300" y="-195" on="1"/>
        <pt x="300" y="-398" on="1"/>
        <pt x="300" y="-600" on="1"/>
        <pt x="279" y="-600" on="1"/>
        <pt x="257" y="-600" on="1"/>
        <pt x="257" y="-418" on="1"/>
        <pt x="257" y="-236" on="1"/>
        <pt x="247" y="-244" on="1"/>
        <pt x="180" y="-298" on="0"/>
        <pt x="111" y="-331" on="1"/>
        <pt x="78" y="-348" on="0"/>
        <pt x="59" y="-353" on="1"/>
        <pt x="57" y="-354" on="1"/>
        <pt x="57" y="-333" on="1"/>
        <pt x="57" y="-311" on="1"/>
        <pt x="70" y="-306" on="1"/>
        <pt x="101" y="-295" on="0"/>
        <pt x="142" y="-271" on="1"/>
        <pt x="289" y="-187" on="0"/>
        <pt x="370" y="-39" on="1"/>
        <pt x="376" y="-28" on="0"/>
      </contour>
    </TTGlyph>
    <TTGlyph name="asterisk" xMin="140" yMin="-2963" xMax="711" yMax="40">
      <contour>
        <pt x="656" y="38" on="1"/>
        <pt x="664" y="40" on="0"/>
        <pt x="673" y="39" on="1"/>
        <pt x="691" y="36" on="0"/>
        <pt x="700" y="22" on="1"/>
        <pt x="706" y="12" on="0"/>
        <pt x="706" y="0" on="1"/>
        <pt x="707" y="-8" on="1"/>
        <pt x="464" y="-734" on="1"/>
        <pt x="222" y="-1459" on="1"/>
        <pt x="464" y="-2182" on="1"/>
        <pt x="706" y="-2908" on="0"/>
        <pt x="706" y="-2912" on="1"/>
        <pt x="711" y="-2940" on="0"/>
        <pt x="685" y="-2954" on="1"/>
        <pt x="679" y="-2957" on="0"/>
        <pt x="673" y="-2958" on="1"/>
        <pt x="649" y="-2963" on="0"/>
        <pt x="634" y="-2942" on="1"/>
        <pt x="633" y="-2940" on="0"/>
        <pt x="632" y="-2938" on="1"/>
        <pt x="385" y="-2201" on="1"/>
        <pt x="140" y="-1469" on="1"/>
        <pt x="140" y="-1460" on="1"/>
        <pt x="140" y="-1450" on="1"/>
        <pt x="384" y="-718" on="1"/>
        <pt x="631" y="18" on="1"/>
        <pt x="640" y="35" on="0"/>
      </contour>
    </TTGlyph>
    <TTGlyph name="at" xMin="291" yMin="-1759" xMax="845" yMax="49">
      <contour>
        <pt x="296" y="49" on="1"/>
        <pt x="420" y="49" on="1"/>
        <pt x="421" y="49" on="1"/>
        <pt x="427" y="47" on="0"/>
        <pt x="427" y="30" on="1"/>
        <pt x="427" y="23" on="0"/>
        <pt x="427" y="4" on="1"/>
        <pt x="427" y="-222" on="0"/>
        <pt x="441" y="-416" on="1"/>
        <pt x="484" y="-1075" on="0"/>
        <pt x="702" y="-1508" on="1"/>
        <pt x="755" y="-1616" on="0"/>
        <pt x="824" y="-1719" on="1"/>
        <pt x="845" y="-1750" on="0"/>
        <pt x="840" y="-1756" on="1"/>
        <pt x="837" y="-1759" on="1"/>
        <pt x="820" y="-1759" on="1"/>
        <pt x="801" y="-1759" on="0"/>
        <pt x="800" y="-1758" on="1"/>
        <pt x="792" y="-1750" on="0"/>
        <pt x="785" y="-1741" on="1"/>
        <pt x="421" y="-1299" on="0"/>
        <pt x="327" y="-579" on="1"/>
        <pt x="295" y="-334" on="0"/>
        <pt x="291" y="-22" on="1"/>
        <pt x="291" y="46" on="0"/>
      </contour>
    </TTGlyph>
    <TTGlyph name="b" xMin="-10" yMin="543" xMax="566" yMax="744">
      <contour>
        <pt x="134" y="667" on="1"/>
        <pt x="277" y="744" on="1"/>
        <pt x="280" y="742" on="1"/>
        <pt x="561" y="592" on="1"/>
        <pt x="566" y="589" on="1"/>
        <pt x="555" y="567" on="1"/>
        <pt x="544" y="545" on="0"/>
        <pt x="543" y="545" on="1"/>
        <pt x="412" y="602" on="1"/>
        <pt x="281" y="659" on="0"/>
        <pt x="280" y="659" on="1"/>
        <pt x="277" y="661" on="0"/>
        <pt x="145" y="603" on="1"/>
        <pt x="12" y="545" on="1"/>
        <pt x="9" y="543" on="0"/>
        <pt x="-8" y="585" on="1"/>
        <pt x="-10" y="589" on="0"/>
        <pt x="-10" y="590" on="1"/>
        <pt x="-9" y="590" on="0"/>
      </contour>
    </TTGlyph>
    <TTGlyph name="backslash" xMin="55" yMin="-1405" xMax="1055" yMax="1">
      <contour>
        <pt x="520" y="-1" on="1"/>
        <pt x="552" y="0" on="1"/>
        <pt x="553" y="0" on="1"/>
        <pt x="734" y="1" on="0"/>
        <pt x="875" y="-112" on="1"/>
        <pt x="960" y="-181" on="0"/>
        <pt x="1008" y="-279" on="1"/>
        <pt x="1048" y="-361" on="0"/>
        <pt x="1054" y="-453" on="1"/>
        <pt x="1055" y="-462" on="0"/>
        <pt x="1055" y="-910" on="1"/>
        <pt x="1055" y="-1353" on="0"/>
        <pt x="1053" y="-1359" on="1"/>
        <pt x="1045" y="-1392" on="0"/>
        <pt x="1012" y="-1399" on="1"/>
        <pt x="984" y="-1405" on="0"/>
        <pt x="963" y="-1384" on="1"/>
        <pt x="952" y="-1373" on="0"/>
        <pt x="949" y="-1359" on="1"/>
        <pt x="947" y="-1353" on="0"/>
        <pt x="947" y="-912" on="1"/>
        <pt x="947" y="-467" on="0"/>
        <pt x="946" y="-458" on="1"/>
        <pt x="937" y="-345" on="0"/>
        <pt x="866" y="-255" on="1"/>
        <pt x="845" y="-228" on="0"/>
        <pt x="809" y="-198" on="1"/>
        <pt x="720" y="-125" on="0"/>
        <pt x="600" y="-110" on="1"/>
        <pt x="588" y="-109" on="0"/>
        <pt x="522" y="-109" on="0"/>
        <pt x="511" y="-110" on="1"/>
        <pt x="390" y="-125" on="0"/>
        <pt x="301" y="-198" on="1"/>
        <pt x="272" y="-221" on="0"/>
        <pt x="244" y="-255" on="1"/>
        <pt x="173" y="-345" on="0"/>
        <pt x="164" y="-458" on="1"/>
        <pt x="163" y="-467" on="0"/>
        <pt x="163" y="-912" on="1"/>
        <pt x="163" y="-1353" on="0"/>
        <pt x="161" y="-1359" on="1"/>
        <pt x="153" y="-1392" on="0"/>
        <pt x="120" y="-1399" on="1"/>
        <pt x="92" y="-1405" on="0"/>
        <pt x="71" y="-1384" on="1"/>
        <pt x="60" y="-1373" on="0"/>
        <pt x="57" y="-1359" on="1"/>
        <pt x="55" y="-1353" on="0"/>
        <pt x="55" y="-910" on="1"/>
        <pt x="55" y="-462" on="0"/>
        <pt x="56" y="-453" on="1"/>
        <pt x="65" y="-327" on="0"/>
        <pt x="134" y="-223" on="1"/>
        <pt x="230" y="-79" on="0"/>
        <pt x="397" y="-25" on="1"/>
        <pt x="457" y="-5" on="0"/>
      </contour>
    </TTGlyph>
    <TTGlyph name="bar" xMin="-24" yMin="0" xMax="459" yMax="333">
      <contour>
        <pt x="-21" y="330" on="1"/>
        <pt x="-18" y="333" on="1"/>
        <pt x="-1" y="333" on="1"/>
        <pt x="20" y="333" on="0"/>
        <pt x="25" y="325" on="1"/>
        <pt x="38" y="302" on="0"/>
        <pt x="54" y="284" on="1"/>
        <pt x="77" y="253" on="0"/>
        <pt x="112" y="226" on="1"/>
        <pt x="197" y="157" on="0"/>
        <pt x="321" y="133" on="1"/>
        <pt x="383" y="120" on="0"/>
        <pt x="441" y="120" on="1"/>
        <pt x="457" y="120" on="0"/>
        <pt x="459" y="114" on="1"/>
        <pt x="459" y="6" on="1"/>
        <pt x="457" y="0" on="0"/>
        <pt x="442" y="0" on="1"/>
        <pt x="355" y="0" on="0"/>
        <pt x="260" y="36" on="1"/>
        <pt x="212" y="57" on="0"/>
        <pt x="188" y="72" on="1"/>
        <pt x="60" y="145" on="0"/>
        <pt x="-16" y="278" on="1"/>
        <pt x="-24" y="292" on="1"/>
        <pt x="-24" y="309" on="1"/>
        <pt x="-24" y="327" on="1"/>
      </contour>
    </TTGlyph>
    <TTGlyph name="braceleft" xMin="-9" yMin="-213" xMax="474" yMax="121">
      <contour>
        <pt x="-5" y="118" on="1"/>
        <pt x="-1" y="121" on="0"/>
        <pt x="33" y="119" on="1"/>
        <pt x="114" y="113" on="0"/>
        <pt x="190" y="84" on="1"/>
        <pt x="238" y="63" on="0"/>
        <pt x="262" y="48" on="1"/>
        <pt x="390" y="-25" on="0"/>
        <pt x="466" y="-158" on="1"/>
        <pt x="474" y="-172" on="1"/>
        <pt x="474" y="-189" on="1"/>
        <pt x="474" y="-207" on="1"/>
        <pt x="471" y="-210" on="1"/>
        <pt x="468" y="-213" on="1"/>
        <pt x="451" y="-213" on="1"/>
        <pt x="430" y="-213" on="0"/>
        <pt x="425" y="-205" on="1"/>
        <pt x="414" y="-185" on="0"/>
        <pt x="396" y="-163" on="1"/>
        <pt x="370" y="-130" on="0"/>
        <pt x="338" y="-106" on="1"/>
        <pt x="253" y="-37" on="0"/>
        <pt x="129" y="-13" on="1"/>
        <pt x="67" y="0" on="0"/>
        <pt x="9" y="0" on="1"/>
        <pt x="-7" y="0" on="0"/>
        <pt x="-9" y="6" on="1"/>
        <pt x="-9" y="114" on="1"/>
        <pt x="-7" y="118" on="0"/>
      </contour>
    </TTGlyph>
    <TTGlyph name="braceright" xMin="-9" yMin="0" xMax="474" yMax="333">
      <contour>
        <pt x="431" y="331" on="1"/>
        <pt x="433" y="333" on="0"/>
        <pt x="451" y="333" on="1"/>
        <pt x="468" y="333" on="1"/>
        <pt x="471" y="330" on="1"/>
        <pt x="474" y="327" on="1"/>
        <pt x="474" y="309" on="1"/>
        <pt x="474" y="292" on="1"/>
        <pt x="466" y="278" on="1"/>
        <pt x="390" y="145" on="0"/>
        <pt x="262" y="72" on="1"/>
        <pt x="238" y="57" on="0"/>
        <pt x="190" y="36" on="1"/>
        <pt x="95" y="0" on="0"/>
        <pt x="8" y="0" on="1"/>
        <pt x="-7" y="0" on="0"/>
        <pt x="-9" y="6" on="1"/>
        <pt x="-9" y="114" on="1"/>
        <pt x="-7" y="120" on="0"/>
        <pt x="9" y="120" on="1"/>
        <pt x="27" y="120" on="0"/>
        <pt x="37" y="121" on="1"/>
        <pt x="221" y="132" on="0"/>
        <pt x="338" y="226" on="1"/>
        <pt x="369" y="249" on="0"/>
        <pt x="396" y="284" on="1"/>
        <pt x="412" y="302" on="0"/>
        <pt x="425" y="325" on="1"/>
        <pt x="429" y="331" on="0"/>
      </contour>
    </TTGlyph>
    <TTGlyph name="bracketleft" xMin="55" yMin="-1428" xMax="1055" yMax="7">
      <contour>
        <pt x="96" y="-2" on="1"/>
        <pt x="128" y="7" on="0"/>
        <pt x="150" y="-20" on="1"/>
        <pt x="158" y="-29" on="0"/>
        <pt x="161" y="-41" on="1"/>
        <pt x="163" y="-47" on="0"/>
        <pt x="163" y="-488" on="1"/>
        <pt x="163" y="-933" on="0"/>
        <pt x="164" y="-942" on="1"/>
        <pt x="173" y="-1055" on="0"/>
        <pt x="244" y="-1145" on="1"/>
        <pt x="265" y="-1172" on="0"/>
        <pt x="301" y="-1202" on="1"/>
        <pt x="390" y="-1275" on="0"/>
        <pt x="511" y="-1290" on="1"/>
        <pt x="551" y="-1294" on="0"/>
        <pt x="600" y="-1290" on="1"/>
        <pt x="720" y="-1275" on="0"/>
        <pt x="809" y="-1202" on="1"/>
        <pt x="838" y="-1179" on="0"/>
        <pt x="866" y="-1145" on="1"/>
        <pt x="937" y="-1055" on="0"/>
        <pt x="946" y="-942" on="1"/>
        <pt x="947" y="-933" on="0"/>
        <pt x="947" y="-488" on="1"/>
        <pt x="947" y="-47" on="0"/>
        <pt x="949" y="-41" on="1"/>
        <pt x="957" y="-8" on="0"/>
        <pt x="990" y="-1" on="1"/>
        <pt x="1018" y="5" on="0"/>
        <pt x="1039" y="-16" on="1"/>
        <pt x="1050" y="-27" on="0"/>
        <pt x="1053" y="-41" on="1"/>
        <pt x="1055" y="-47" on="0"/>
        <pt x="1055" y="-490" on="1"/>
        <pt x="1055" y="-938" on="0"/>
        <pt x="1054" y="-946" on="1"/>
        <pt x="1047" y="-1055" on="0"/>
        <pt x="992" y="-1151" on="1"/>
        <pt x="915" y="-1285" on="0"/>
        <pt x="770" y="-1353" on="1"/>
        <pt x="745" y="-1364" on="0"/>
        <pt x="719" y="-1373" on="1"/>
        <pt x="556" y="-1428" on="0"/>
        <pt x="391" y="-1373" on="1"/>
        <pt x="236" y="-1321" on="0"/>
        <pt x="143" y="-1191" on="1"/>
        <pt x="130" y="-1171" on="0"/>
        <pt x="118" y="-1151" on="1"/>
        <pt x="63" y="-1055" on="0"/>
        <pt x="56" y="-946" on="1"/>
        <pt x="55" y="-938" on="0"/>
        <pt x="55" y="-490" on="1"/>
        <pt x="55" y="-47" on="0"/>
        <pt x="57" y="-41" on="1"/>
        <pt x="65" y="-10" on="0"/>
      </contour>
    </TTGlyph>
    <TTGlyph name="bracketright" xMin="55" yMin="-1428" xMax="1055" yMax="7">
      <contour>
        <pt x="96" y="-2" on="1"/>
        <pt x="128" y="7" on="0"/>
        <pt x="150" y="-20" on="1"/>
        <pt x="158" y="-29" on="0"/>
        <pt x="161" y="-41" on="1"/>
        <pt x="163" y="-47" on="0"/>
        <pt x="163" y="-488" on="1"/>
        <pt x="163" y="-933" on="0"/>
        <pt x="164" y="-942" on="1"/>
        <pt x="173" y="-1055" on="0"/>
        <pt x="244" y="-1145" on="1"/>
        <pt x="265" y="-1172" on="0"/>
        <pt x="301" y="-1202" on="1"/>
        <pt x="390" y="-1275" on="0"/>
        <pt x="511" y="-1290" on="1"/>
        <pt x="551" y="-1294" on="0"/>
        <pt x="600" y="-1290" on="1"/>
        <pt x="720" y="-1275" on="0"/>
        <pt x="809" y="-1202" on="1"/>
        <pt x="838" y="-1179" on="0"/>
        <pt x="866" y="-1145" on="1"/>
        <pt x="937" y="-1055" on="0"/>
        <pt x="946" y="-942" on="1"/>
        <pt x="947" y="-933" on="0"/>
        <pt x="947" y="-488" on="1"/>
        <pt x="947" y="-47" on="0"/>
        <pt x="949" y="-41" on="1"/>
        <pt x="957" y="-8" on="0"/>
        <pt x="990" y="-1" on="1"/>
        <pt x="1018" y="5" on="0"/>
        <pt x="1039" y="-16" on="1"/>
        <pt x="1050" y="-27" on="0"/>
        <pt x="1053" y="-41" on="1"/>
        <pt x="1055" y="-47" on="0"/>
        <pt x="1055" y="-490" on="1"/>
        <pt x="1055" y="-938" on="0"/>
        <pt x="1054" y="-946" on="1"/>
        <pt x="1047" y="-1055" on="0"/>
        <pt x="992" y="-1151" on="1"/>
        <pt x="915" y="-1285" on="0"/>
        <pt x="770" y="-1353" on="1"/>
        <pt x="745" y="-1364" on="0"/>
        <pt x="719" y="-1373" on="1"/>
        <pt x="556" y="-1428" on="0"/>
        <pt x="391" y="-1373" on="1"/>
        <pt x="236" y="-1321" on="0"/>
        <pt x="143" y="-1191" on="1"/>
        <pt x="130" y="-1171" on="0"/>
        <pt x="118" y="-1151" on="1"/>
        <pt x="63" y="-1055" on="0"/>
        <pt x="56" y="-946" on="1"/>
        <pt x="55" y="-938" on="0"/>
        <pt x="55" y="-490" on="1"/>
        <pt x="55" y="-47" on="0"/>
        <pt x="57" y="-41" on="1"/>
        <pt x="65" y="-10" on="0"/>
      </contour>
      <contour>
        <pt x="548" y="-378" on="1"/>
        <pt x="556" y="-376" on="0"/>
        <pt x="570" y="-379" on="1"/>
        <pt x="593" y="-387" on="0"/>
        <pt x="602" y="-406" on="1"/>
        <pt x="608" y="-418" on="0"/>
        <pt x="609" y="-452" on="1"/>
        <pt x="609" y="-466" on="0"/>
        <pt x="609" y="-516" on="1"/>
        <pt x="609" y="-607" on="1"/>
        <pt x="702" y="-607" on="1"/>
        <pt x="799" y="-608" on="0"/>
        <pt x="806" y="-611" on="1"/>
        <pt x="811" y="-614" on="1"/>
        <pt x="836" y="-628" on="0"/>
        <pt x="839" y="-661" on="1"/>
        <pt x="839" y="-694" on="0"/>
        <pt x="809" y="-709" on="1"/>
        <pt x="803" y="-712" on="0"/>
        <pt x="798" y="-713" on="1"/>
        <pt x="793" y="-715" on="0"/>
        <pt x="701" y="-715" on="1"/>
        <pt x="609" y="-715" on="1"/>
        <pt x="609" y="-806" on="1"/>
        <pt x="609" y="-899" on="0"/>
        <pt x="608" y="-902" on="1"/>
        <pt x="605" y="-917" on="0"/>
        <pt x="593" y="-929" on="1"/>
        <pt x="565" y="-957" on="0"/>
        <pt x="531" y="-939" on="1"/>
        <pt x="523" y="-935" on="0"/>
        <pt x="517" y="-929" on="1"/>
        <pt x="505" y="-917" on="0"/>
        <pt x="502" y="-902" on="1"/>
        <pt x="501" y="-899" on="0"/>
        <pt x="501" y="-806" on="1"/>
        <pt x="501" y="-715" on="1"/>
        <pt x="409" y="-715" on="1"/>
        <pt x="317" y="-715" on="0"/>
        <pt x="312" y="-713" on="1"/>
        <pt x="282" y="-706" on="0"/>
        <pt x="273" y="-676" on="1"/>
        <pt x="269" y="-662" on="0"/>
        <pt x="273" y="-649" on="1"/>
        <pt x="277" y="-627" on="0"/>
        <pt x="299" y="-614" on="1"/>
        <pt x="310" y="-608" on="0"/>
        <pt x="340" y="-608" on="1"/>
        <pt x="339" y="-608" on="0"/>
        <pt x="408" y="-607" on="1"/>
        <pt x="501" y="-607" on="1"/>
        <pt x="501" y="-516" on="1"/>
        <pt x="501" y="-420" on="0"/>
        <pt x="505" y="-411" on="1"/>
        <pt x="506" y="-410" on="0"/>
        <pt x="508" y="-406" on="1"/>
        <pt x="520" y="-383" on="0"/>
      </contour>
    </TTGlyph>
    <TTGlyph name="c" xMin="-7" yMin="557" xMax="1006" yMax="772">
      <contour>
        <pt x="246" y="688" on="1"/>
        <pt x="499" y="772" on="1"/>
        <pt x="1006" y="605" on="1"/>
        <pt x="992" y="557" on="1"/>
        <pt x="990" y="557" on="0"/>
        <pt x="746" y="622" on="1"/>
        <pt x="500" y="688" on="1"/>
        <pt x="253" y="622" on="1"/>
        <pt x="9" y="557" on="0"/>
        <pt x="7" y="557" on="1"/>
        <pt x="-7" y="605" on="1"/>
      </contour>
    </TTGlyph>
    <TTGlyph name="colon" xMin="385" yMin="-899" xMax="718" yMax="10">
      <contour>
        <pt x="389" y="9" on="1"/>
        <pt x="392" y="10" on="0"/>
        <pt x="444" y="10" on="1"/>
        <pt x="500" y="10" on="0"/>
        <pt x="503" y="4" on="1"/>
        <pt x="504" y="2" on="0"/>
        <pt x="504" y="-239" on="1"/>
        <pt x="505" y="-484" on="0"/>
        <pt x="506" y="-496" on="1"/>
        <pt x="514" y="-561" on="0"/>
        <pt x="530" y="-609" on="1"/>
        <pt x="579" y="-759" on="0"/>
        <pt x="704" y="-846" on="1"/>
        <pt x="711" y="-850" on="0"/>
        <pt x="717" y="-856" on="1"/>
        <pt x="718" y="-857" on="0"/>
        <pt x="718" y="-876" on="1"/>
        <pt x="718" y="-893" on="1"/>
        <pt x="715" y="-896" on="1"/>
        <pt x="712" y="-899" on="1"/>
        <pt x="695" y="-899" on="1"/>
        <pt x="677" y="-899" on="1"/>
        <pt x="666" y="-893" on="1"/>
        <pt x="598" y="-856" on="0"/>
        <pt x="546" y="-807" on="1"/>
        <pt x="475" y="-739" on="0"/>
        <pt x="434" y="-655" on="1"/>
        <pt x="391" y="-569" on="0"/>
        <pt x="385" y="-476" on="1"/>
        <pt x="385" y="-20" on="1"/>
        <pt x="385" y="4" on="0"/>
        <pt x="385" y="5" on="1"/>
      </contour>
    </TTGlyph>
    <TTGlyph name="comma" xMin="57" yMin="-2963" xMax="1221" yMax="44">
      <contour>
        <pt x="1181" y="39" on="1"/>
        <pt x="1199" y="44" on="0"/>
        <pt x="1212" y="31" on="1"/>
        <pt x="1221" y="22" on="0"/>
        <pt x="1220" y="10" on="1"/>
        <pt x="1220" y="2" on="0"/>
        <pt x="1157" y="-164" on="1"/>
        <pt x="606" y="-1634" on="1"/>
        <pt x="118" y="-2933" on="0"/>
        <pt x="114" y="-2941" on="1"/>
        <pt x="110" y="-2952" on="0"/>
        <pt x="99" y="-2956" on="1"/>
        <pt x="87" y="-2963" on="0"/>
        <pt x="74" y="-2956" on="1"/>
        <pt x="64" y="-2952" on="0"/>
        <pt x="59" y="-2941" on="1"/>
        <pt x="57" y="-2938" on="0"/>
        <pt x="57" y="-2920" on="0"/>
        <pt x="76" y="-2871" on="1"/>
        <pt x="73" y="-2879" on="0"/>
        <pt x="628" y="-1400" on="1"/>
        <pt x="1161" y="18" on="0"/>
        <pt x="1165" y="26" on="1"/>
        <pt x="1172" y="36" on="0"/>
      </contour>
    </TTGlyph>
    <TTGlyph name="d" xMin="-5" yMin="556" xMax="1448" yMax="772">
      <contour>
        <pt x="358" y="689" on="1"/>
        <pt x="725" y="772" on="0"/>
        <pt x="721" y="772" on="1"/>
        <pt x="1448" y="605" on="1"/>
        <pt x="1438" y="556" on="1"/>
        <pt x="1084" y="622" on="1"/>
        <pt x="724" y="688" on="0"/>
        <pt x="725" y="688" on="1"/>
        <pt x="718" y="688" on="0"/>
        <pt x="363" y="622" on="1"/>
        <pt x="5" y="556" on="1"/>
        <pt x="-5" y="605" on="1"/>
      </contour>
    </TTGlyph>
    <TTGlyph name="dollar" xMin="265" yMin="-2959" xMax="637" yMax="40">
      <contour>
        <pt x="265" y="-1459" on="1"/>
        <pt x="265" y="40" on="1"/>
        <pt x="306" y="40" on="1"/>
        <pt x="346" y="40" on="1"/>
        <pt x="346" y="-1419" on="1"/>
        <pt x="346" y="-2877" on="1"/>
        <pt x="492" y="-2878" on="1"/>
        <pt x="637" y="-2878" on="1"/>
        <pt x="637" y="-2918" on="1"/>
        <pt x="637" y="-2959" on="1"/>
        <pt x="451" y="-2959" on="1"/>
        <pt x="265" y="-2958" on="1"/>
      </contour>
    </TTGlyph>
    <TTGlyph name="e" xMin="0" yMin="584" xMax="555" yMax="724">
      <contour>
        <pt x="156" y="720" on="1"/>
        <pt x="182" y="724" on="0"/>
        <pt x="215" y="718" on="1"/>
        <pt x="241" y="712" on="0"/>
        <pt x="287" y="695" on="1"/>
        <pt x="360" y="668" on="0"/>
        <pt x="393" y="668" on="1"/>
        <pt x="397" y="668" on="0"/>
        <pt x="402" y="668" on="1"/>
        <pt x="428" y="669" on="0"/>
        <pt x="451" y="677" on="1"/>
        <pt x="486" y="690" on="0"/>
        <pt x="516" y="715" on="1"/>
        <pt x="525" y="722" on="0"/>
        <pt x="526" y="721" on="1"/>
        <pt x="526" y="720" on="0"/>
        <pt x="552" y="690" on="0"/>
        <pt x="553" y="688" on="1"/>
        <pt x="555" y="686" on="0"/>
        <pt x="537" y="670" on="1"/>
        <pt x="534" y="668" on="0"/>
        <pt x="528" y="663" on="1"/>
        <pt x="489" y="630" on="0"/>
        <pt x="475" y="621" on="1"/>
        <pt x="419" y="584" on="0"/>
        <pt x="359" y="590" on="1"/>
        <pt x="328" y="594" on="0"/>
        <pt x="269" y="616" on="1"/>
        <pt x="195" y="643" on="0"/>
        <pt x="161" y="643" on="1"/>
        <pt x="158" y="643" on="0"/>
        <pt x="153" y="643" on="1"/>
        <pt x="127" y="642" on="0"/>
        <pt x="105" y="634" on="1"/>
        <pt x="69" y="621" on="0"/>
        <pt x="39" y="596" on="1"/>
        <pt x="30" y="589" on="0"/>
        <pt x="29" y="590" on="1"/>
        <pt x="29" y="591" on="0"/>
        <pt x="3" y="621" on="0"/>
        <pt x="2" y="623" on="1"/>
        <pt x="0" y="625" on="0"/>
        <pt x="18" y="641" on="1"/>
        <pt x="21" y="643" on="0"/>
        <pt x="27" y="648" on="1"/>
        <pt x="66" y="681" on="0"/>
        <pt x="80" y="690" on="1"/>
        <pt x="117" y="715" on="0"/>
      </contour>
    </TTGlyph>
    <TTGlyph name="eight" xMin="384" yMin="-910" xMax="718" yMax="-1">
      <contour>
        <pt x="664" y="-8" on="1"/>
        <pt x="677" y="-1" on="1"/>
        <pt x="694" y="-1" on="1"/>
        <pt x="712" y="-1" on="1"/>
        <pt x="715" y="-4" on="1"/>
        <pt x="718" y="-7" on="1"/>
        <pt x="718" y="-24" on="1"/>
        <pt x="718" y="-43" on="0"/>
        <pt x="717" y="-44" on="1"/>
        <pt x="711" y="-50" on="0"/>
        <pt x="704" y="-54" on="1"/>
        <pt x="572" y="-145" on="0"/>
        <pt x="524" y="-310" on="1"/>
        <pt x="515" y="-342" on="0"/>
        <pt x="510" y="-375" on="1"/>
        <pt x="505" y="-407" on="0"/>
        <pt x="504" y="-520" on="1"/>
        <pt x="504" y="-660" on="1"/>
        <pt x="504" y="-902" on="0"/>
        <pt x="503" y="-904" on="1"/>
        <pt x="501" y="-909" on="0"/>
        <pt x="481" y="-910" on="1"/>
        <pt x="473" y="-910" on="0"/>
        <pt x="444" y="-910" on="1"/>
        <pt x="392" y="-910" on="0"/>
        <pt x="390" y="-909" on="1"/>
        <pt x="387" y="-908" on="0"/>
        <pt x="386" y="-905" on="1"/>
        <pt x="384" y="-895" on="0"/>
        <pt x="384" y="-670" on="1"/>
        <pt x="384" y="-433" on="0"/>
        <pt x="385" y="-424" on="1"/>
        <pt x="391" y="-332" on="0"/>
        <pt x="434" y="-244" on="1"/>
        <pt x="476" y="-160" on="0"/>
        <pt x="546" y="-93" on="1"/>
        <pt x="596" y="-46" on="0"/>
      </contour>
    </TTGlyph>
    <TTGlyph name="equal" xMin="384" yMin="-1809" xMax="717" yMax="9">
      <contour>
        <pt x="389" y="9" on="1"/>
        <pt x="496" y="9" on="1"/>
        <pt x="498" y="9" on="1"/>
        <pt x="501" y="8" on="0"/>
        <pt x="502" y="5" on="1"/>
        <pt x="504" y="-5" on="0"/>
        <pt x="504" y="-225" on="1"/>
        <pt x="504" y="-459" on="0"/>
        <pt x="505" y="-471" on="1"/>
        <pt x="511" y="-574" on="0"/>
        <pt x="546" y="-660" on="1"/>
        <pt x="597" y="-790" on="0"/>
        <pt x="705" y="-871" on="1"/>
        <pt x="717" y="-880" on="0"/>
        <pt x="717" y="-882" on="1"/>
        <pt x="717" y="-918" on="1"/>
        <pt x="717" y="-920" on="0"/>
        <pt x="705" y="-929" on="1"/>
        <pt x="551" y="-1044" on="0"/>
        <pt x="514" y="-1252" on="1"/>
        <pt x="507" y="-1290" on="0"/>
        <pt x="505" y="-1329" on="1"/>
        <pt x="504" y="-1341" on="0"/>
        <pt x="504" y="-1575" on="1"/>
        <pt x="504" y="-1806" on="0"/>
        <pt x="498" y="-1809" on="1"/>
        <pt x="390" y="-1809" on="1"/>
        <pt x="387" y="-1808" on="0"/>
        <pt x="386" y="-1805" on="1"/>
        <pt x="384" y="-1795" on="0"/>
        <pt x="384" y="-1574" on="1"/>
        <pt x="384" y="-1341" on="0"/>
        <pt x="385" y="-1332" on="1"/>
        <pt x="396" y="-1175" on="0"/>
        <pt x="492" y="-1048" on="1"/>
        <pt x="555" y="-965" on="0"/>
        <pt x="645" y="-909" on="1"/>
        <pt x="659" y="-900" on="1"/>
        <pt x="645" y="-891" on="1"/>
        <pt x="515" y="-811" on="0"/>
        <pt x="446" y="-680" on="1"/>
        <pt x="392" y="-580" on="0"/>
        <pt x="385" y="-468" on="1"/>
        <pt x="385" y="-19" on="1"/>
        <pt x="385" y="4" on="0"/>
        <pt x="385" y="5" on="1"/>
      </contour>
    </TTGlyph>
    <TTGlyph name="exclam" xMin="33" yMin="-2958" xMax="554" yMax="39">
      <contour>
        <pt x="38" y="39" on="1"/>
        <pt x="73" y="39" on="1"/>
        <pt x="74" y="39" on="1"/>
        <pt x="80" y="36" on="0"/>
        <pt x="119" y="-10" on="1"/>
        <pt x="299" y="-213" on="0"/>
        <pt x="406" y="-498" on="1"/>
        <pt x="524" y="-813" on="0"/>
        <pt x="548" y="-1229" on="1"/>
        <pt x="554" y="-1330" on="0"/>
        <pt x="554" y="-1459" on="1"/>
        <pt x="554" y="-1589" on="0"/>
        <pt x="548" y="-1689" on="1"/>
        <pt x="524" y="-2107" on="0"/>
        <pt x="406" y="-2420" on="1"/>
        <pt x="299" y="-2705" on="0"/>
        <pt x="119" y="-2909" on="1"/>
        <pt x="80" y="-2955" on="0"/>
        <pt x="74" y="-2958" on="1"/>
        <pt x="38" y="-2958" on="1"/>
        <pt x="33" y="-2956" on="0"/>
        <pt x="33" y="-2949" on="1"/>
        <pt x="33" y="-2946" on="0"/>
        <pt x="51" y="-2923" on="1"/>
        <pt x="112" y="-2845" on="0"/>
        <pt x="166" y="-2752" on="1"/>
        <pt x="383" y="-2371" on="0"/>
        <pt x="423" y="-1782" on="1"/>
        <pt x="432" y="-1646" on="0"/>
        <pt x="432" y="-1459" on="1"/>
        <pt x="432" y="-1317" on="0"/>
        <pt x="429" y="-1249" on="1"/>
        <pt x="409" y="-769" on="0"/>
        <pt x="287" y="-431" on="1"/>
        <pt x="200" y="-188" on="0"/>
        <pt x="51" y="4" on="1"/>
        <pt x="33" y="28" on="0"/>
        <pt x="33" y="31" on="1"/>
        <pt x="33" y="36" on="0"/>
      </contour>
    </TTGlyph>
    <TTGlyph name="f" xMin="0" yMin="599" xMax="999" yMax="751">
      <contour>
        <pt x="300" y="749" on="1"/>
        <pt x="330" y="751" on="0"/>
        <pt x="376" y="748" on="1"/>
        <pt x="428" y="742" on="0"/>
        <pt x="515" y="713" on="1"/>
        <pt x="609" y="682" on="0"/>
        <pt x="662" y="676" on="1"/>
        <pt x="669" y="675" on="0"/>
        <pt x="707" y="675" on="1"/>
        <pt x="744" y="675" on="0"/>
        <pt x="759" y="677" on="1"/>
        <pt x="851" y="689" on="0"/>
        <pt x="962" y="742" on="1"/>
        <pt x="978" y="750" on="1"/>
        <pt x="989" y="729" on="1"/>
        <pt x="999" y="708" on="1"/>
        <pt x="958" y="687" on="1"/>
        <pt x="898" y="658" on="1"/>
        <pt x="765" y="599" on="0"/>
        <pt x="657" y="602" on="1"/>
        <pt x="590" y="605" on="0"/>
        <pt x="484" y="639" on="1"/>
        <pt x="390" y="670" on="0"/>
        <pt x="337" y="676" on="1"/>
        <pt x="330" y="677" on="0"/>
        <pt x="292" y="677" on="1"/>
        <pt x="255" y="677" on="0"/>
        <pt x="241" y="675" on="1"/>
        <pt x="148" y="663" on="0"/>
        <pt x="37" y="610" on="1"/>
        <pt x="21" y="602" on="1"/>
        <pt x="10" y="623" on="1"/>
        <pt x="0" y="644" on="1"/>
        <pt x="41" y="665" on="1"/>
        <pt x="101" y="694" on="1"/>
        <pt x="208" y="741" on="0"/>
      </contour>
    </TTGlyph>
    <TTGlyph name="five" xMin="-5" yMin="-1759" xMax="352" yMax="40">
      <contour>
        <pt x="258" y="-812" on="1"/>
        <pt x="258" y="40" on="1"/>
        <pt x="305" y="40" on="1"/>
        <pt x="352" y="40" on="1"/>
        <pt x="352" y="-859" on="1"/>
        <pt x="352" y="-1759" on="1"/>
        <pt x="174" y="-1759" on="1"/>
        <pt x="-5" y="-1759" on="1"/>
        <pt x="-5" y="-1712" on="1"/>
        <pt x="-5" y="-1665" on="1"/>
        <pt x="127" y="-1665" on="1"/>
        <pt x="258" y="-1665" on="1"/>
      </contour>
    </TTGlyph>
    <TTGlyph name="four" xMin="314" yMin="-1759" xMax="671" yMax="40">
      <contour>
        <pt x="314" y="-859" on="1"/>
        <pt x="314" y="40" on="1"/>
        <pt x="361" y="40" on="1"/>
        <pt x="408" y="40" on="1"/>
        <pt x="408" y="-812" on="1"/>
        <pt x="408" y="-1665" on="1"/>
        <pt x="540" y="-1665" on="1"/>
        <pt x="671" y="-1665" on="1"/>
        <pt x="671" y="-1712" on="1"/>
        <pt x="671" y="-1759" on="1"/>
        <pt x="493" y="-1759" on="1"/>
        <pt x="314" y="-1759" on="1"/>
      </contour>
    </TTGlyph>
    <TTGlyph name="g" xMin="0" yMin="582" xMax="1448" yMax="752">
      <contour>
        <pt x="443" y="749" on="1"/>
        <pt x="518" y="752" on="0"/>
        <pt x="588" y="743" on="1"/>
        <pt x="644" y="735" on="0"/>
        <pt x="746" y="707" on="1"/>
        <pt x="883" y="670" on="0"/>
        <pt x="971" y="666" on="1"/>
        <pt x="981" y="665" on="0"/>
        <pt x="992" y="665" on="1"/>
        <pt x="1061" y="665" on="0"/>
        <pt x="1115" y="672" on="1"/>
        <pt x="1250" y="690" on="0"/>
        <pt x="1410" y="744" on="1"/>
        <pt x="1427" y="750" on="0"/>
        <pt x="1428" y="750" on="1"/>
        <pt x="1443" y="705" on="1"/>
        <pt x="1448" y="705" on="0"/>
        <pt x="1325" y="666" on="1"/>
        <pt x="1054" y="582" on="0"/>
        <pt x="870" y="604" on="1"/>
        <pt x="863" y="605" on="0"/>
        <pt x="856" y="606" on="1"/>
        <pt x="799" y="614" on="0"/>
        <pt x="697" y="642" on="1"/>
        <pt x="560" y="679" on="0"/>
        <pt x="472" y="683" on="1"/>
        <pt x="462" y="684" on="0"/>
        <pt x="451" y="684" on="1"/>
        <pt x="382" y="684" on="0"/>
        <pt x="329" y="677" on="1"/>
        <pt x="193" y="659" on="0"/>
        <pt x="33" y="605" on="1"/>
        <pt x="16" y="599" on="0"/>
        <pt x="15" y="599" on="1"/>
        <pt x="0" y="644" on="1"/>
        <pt x="119" y="683" on="1"/>
        <pt x="302" y="741" on="0"/>
      </contour>
    </TTGlyph>
    <TTGlyph name="grave" xMin="55" yMin="-1000" xMax="888" yMax="0">
      <contour>
        <pt x="55" y="-20" on="1"/>
        <pt x="55" y="0" on="1"/>
        <pt x="219" y="0" on="1"/>
        <pt x="383" y="0" on="1"/>
        <pt x="383" y="-20" on="1"/>
        <pt x="383" y="-40" on="1"/>
        <pt x="369" y="-40" on="1"/>
        <pt x="299" y="-44" on="0"/>
        <pt x="283" y="-87" on="1"/>
        <pt x="281" y="-94" on="1"/>
        <pt x="280" y="-527" on="1"/>
        <pt x="280" y="-960" on="1"/>
        <pt x="471" y="-960" on="1"/>
        <pt x="663" y="-960" on="1"/>
        <pt x="663" y="-527" on="1"/>
        <pt x="663" y="-94" on="1"/>
        <pt x="660" y="-87" on="1"/>
        <pt x="644" y="-44" on="0"/>
        <pt x="574" y="-40" on="1"/>
        <pt x="560" y="-40" on="1"/>
        <pt x="560" y="-20" on="1"/>
        <pt x="560" y="0" on="1"/>
        <pt x="724" y="0" on="1"/>
        <pt x="888" y="0" on="1"/>
        <pt x="888" y="-20" on="1"/>
        <pt x="888" y="-40" on="1"/>
        <pt x="874" y="-40" on="1"/>
        <pt x="804" y="-44" on="0"/>
        <pt x="788" y="-87" on="1"/>
        <pt x="786" y="-94" on="1"/>
        <pt x="786" y="-500" on="1"/>
        <pt x="786" y="-905" on="1"/>
        <pt x="788" y="-913" on="1"/>
        <pt x="804" y="-956" on="0"/>
        <pt x="874" y="-960" on="1"/>
        <pt x="888" y="-960" on="1"/>
        <pt x="888" y="-980" on="1"/>
        <pt x="888" y="-1000" on="1"/>
        <pt x="472" y="-1000" on="1"/>
        <pt x="55" y="-1000" on="1"/>
        <pt x="55" y="-980" on="1"/>
        <pt x="55" y="-960" on="1"/>
        <pt x="69" y="-960" on="1"/>
        <pt x="139" y="-956" on="0"/>
        <pt x="155" y="-913" on="1"/>
        <pt x="158" y="-905" on="1"/>
        <pt x="158" y="-500" on="1"/>
        <pt x="158" y="-94" on="1"/>
        <pt x="155" y="-87" on="1"/>
        <pt x="139" y="-44" on="0"/>
        <pt x="69" y="-40" on="1"/>
        <pt x="55" y="-40" on="1"/>
      </contour>
    </TTGlyph>
    <TTGlyph name="greater" xMin="384" yMin="-309" xMax="504" yMax="9">
      <contour>
        <pt x="389" y="9" on="1"/>
        <pt x="496" y="9" on="1"/>
        <pt x="498" y="9" on="1"/>
        <pt x="502" y="8" on="0"/>
        <pt x="503" y="-2" on="1"/>
        <pt x="504" y="-17" on="0"/>
        <pt x="504" y="-150" on="1"/>
        <pt x="504" y="-306" on="0"/>
        <pt x="498" y="-309" on="1"/>
        <pt x="390" y="-309" on="1"/>
        <pt x="386" y="-308" on="0"/>
        <pt x="385" y="-298" on="1"/>
        <pt x="384" y="-283" on="0"/>
        <pt x="384" y="-150" on="1"/>
        <pt x="384" y="3" on="0"/>
        <pt x="385" y="5" on="1"/>
      </contour>
    </TTGlyph>
    <TTGlyph name="h" xMin="222" yMin="-1759" xMax="456" yMax="40">
      <contour>
        <pt x="222" y="-859" on="1"/>
        <pt x="222" y="40" on="1"/>
        <pt x="339" y="40" on="1"/>
        <pt x="456" y="40" on="1"/>
        <pt x="456" y="13" on="1"/>
        <pt x="456" y="-14" on="1"/>
        <pt x="366" y="-14" on="1"/>
        <pt x="276" y="-14" on="1"/>
        <pt x="276" y="-859" on="1"/>
        <pt x="276" y="-1705" on="1"/>
        <pt x="366" y="-1705" on="1"/>
        <pt x="456" y="-1705" on="1"/>
        <pt x="456" y="-1732" on="1"/>
        <pt x="456" y="-1759" on="1"/>
        <pt x="339" y="-1759" on="1"/>
        <pt x="222" y="-1759" on="1"/>
      </contour>
    </TTGlyph>
    <TTGlyph name="hyphen" xMin="56" yMin="-2963" xMax="1221" yMax="44">
      <contour>
        <pt x="77" y="39" on="1"/>
        <pt x="99" y="44" on="0"/>
        <pt x="110" y="28" on="1"/>
        <pt x="112" y="26" on="0"/>
        <pt x="604" y="-1282" on="1"/>
        <pt x="1158" y="-2754" on="1"/>
        <pt x="1221" y="-2920" on="1"/>
        <pt x="1221" y="-2928" on="1"/>
        <pt x="1221" y="-2935" on="0"/>
        <pt x="1218" y="-2941" on="1"/>
        <pt x="1214" y="-2952" on="0"/>
        <pt x="1203" y="-2956" on="1"/>
        <pt x="1191" y="-2963" on="0"/>
        <pt x="1178" y="-2956" on="1"/>
        <pt x="1168" y="-2952" on="0"/>
        <pt x="1163" y="-2941" on="1"/>
        <pt x="57" y="4" on="1"/>
        <pt x="56" y="10" on="0"/>
        <pt x="57" y="16" on="1"/>
        <pt x="60" y="32" on="0"/>
      </contour>
    </TTGlyph>
    <TTGlyph name="i" xMin="15" yMin="-1759" xMax="249" yMax="40">
      <contour>
        <pt x="15" y="13" on="1"/>
        <pt x="15" y="40" on="1"/>
        <pt x="132" y="40" on="1"/>
        <pt x="249" y="40" on="1"/>
        <pt x="249" y="-859" on="1"/>
        <pt x="249" y="-1759" on="1"/>
        <pt x="132" y="-1759" on="1"/>
        <pt x="15" y="-1759" on="1"/>
        <pt x="15" y="-1732" on="1"/>
        <pt x="15" y="-1705" on="1"/>
        <pt x="105" y="-1705" on="1"/>
        <pt x="195" y="-1705" on="1"/>
        <pt x="195" y="-859" on="1"/>
        <pt x="195" y="-14" on="1"/>
        <pt x="105" y="-14" on="1"/>
        <pt x="15" y="-14" on="1"/>
      </contour>
    </TTGlyph>
    <TTGlyph name="idieresis" xMin="237" yMin="-2959" xMax="760" yMax="40">
      <contour>
        <pt x="716" y="39" on="1"/>
        <pt x="718" y="40" on="0"/>
        <pt x="735" y="40" on="1"/>
        <pt x="752" y="40" on="1"/>
        <pt x="755" y="37" on="1"/>
        <pt x="760" y="32" on="0"/>
        <pt x="754" y="22" on="1"/>
        <pt x="751" y="18" on="0"/>
        <pt x="742" y="6" on="1"/>
        <pt x="451" y="-366" on="0"/>
        <pt x="382" y="-977" on="1"/>
        <pt x="371" y="-1082" on="0"/>
        <pt x="365" y="-1196" on="1"/>
        <pt x="359" y="-1311" on="0"/>
        <pt x="359" y="-1459" on="1"/>
        <pt x="359" y="-1602" on="0"/>
        <pt x="362" y="-1669" on="1"/>
        <pt x="382" y="-2150" on="0"/>
        <pt x="504" y="-2488" on="1"/>
        <pt x="593" y="-2735" on="0"/>
        <pt x="742" y="-2925" on="1"/>
        <pt x="760" y="-2949" on="0"/>
        <pt x="758" y="-2953" on="1"/>
        <pt x="757" y="-2954" on="0"/>
        <pt x="755" y="-2956" on="1"/>
        <pt x="752" y="-2959" on="1"/>
        <pt x="736" y="-2959" on="1"/>
        <pt x="718" y="-2959" on="0"/>
        <pt x="717" y="-2958" on="1"/>
        <pt x="711" y="-2955" on="0"/>
        <pt x="672" y="-2909" on="1"/>
        <pt x="492" y="-2705" on="0"/>
        <pt x="385" y="-2420" on="1"/>
        <pt x="267" y="-2107" on="0"/>
        <pt x="243" y="-1689" on="1"/>
        <pt x="237" y="-1589" on="0"/>
        <pt x="237" y="-1459" on="1"/>
        <pt x="237" y="-1330" on="0"/>
        <pt x="243" y="-1229" on="1"/>
        <pt x="267" y="-813" on="0"/>
        <pt x="385" y="-498" on="1"/>
        <pt x="492" y="-213" on="0"/>
        <pt x="672" y="-10" on="1"/>
        <pt x="697" y="20" on="0"/>
      </contour>
    </TTGlyph>
    <TTGlyph name="j" xMin="223" yMin="-1759" xMax="512" yMax="40">
      <contour>
        <pt x="223" y="-859" on="1"/>
        <pt x="223" y="40" on="1"/>
        <pt x="250" y="40" on="1"/>
        <pt x="277" y="40" on="1"/>
        <pt x="277" y="-832" on="1"/>
        <pt x="277" y="-1705" on="1"/>
        <pt x="395" y="-1705" on="1"/>
        <pt x="512" y="-1705" on="1"/>
        <pt x="512" y="-1732" on="1"/>
        <pt x="512" y="-1759" on="1"/>
        <pt x="368" y="-1759" on="1"/>
        <pt x="223" y="-1759" on="1"/>
      </contour>
    </TTGlyph>
    <TTGlyph name="k" xMin="15" yMin="-1759" xMax="304" yMax="40">
      <contour>
        <pt x="250" y="-832" on="1"/>
        <pt x="250" y="40" on="1"/>
        <pt x="277" y="40" on="1"/>
        <pt x="304" y="40" on="1"/>
        <pt x="304" y="-859" on="1"/>
        <pt x="304" y="-1759" on="1"/>
        <pt x="160" y="-1759" on="1"/>
        <pt x="15" y="-1759" on="1"/>
        <pt x="15" y="-1732" on="1"/>
        <pt x="15" y="-1705" on="1"/>
        <pt x="133" y="-1705" on="1"/>
        <pt x="250" y="-1705" on="1"/>
      </contour>
    </TTGlyph>
    <TTGlyph name="l" xMin="223" yMin="-1759" xMax="512" yMax="40">
      <contour>
        <pt x="223" y="-859" on="1"/>
        <pt x="223" y="40" on="1"/>
        <pt x="368" y="40" on="1"/>
        <pt x="512" y="40" on="1"/>
        <pt x="512" y="13" on="1"/>
        <pt x="512" y="-14" on="1"/>
        <pt x="395" y="-14" on="1"/>
        <pt x="277" y="-14" on="1"/>
        <pt x="277" y="-886" on="1"/>
        <pt x="277" y="-1759" on="1"/>
        <pt x="250" y="-1759" on="1"/>
        <pt x="223" y="-1759" on="1"/>
      </contour>
    </TTGlyph>
    <TTGlyph name="less" xMin="171" yMin="-1809" xMax="504" yMax="9">
      <contour>
        <pt x="389" y="9" on="1"/>
        <pt x="496" y="9" on="1"/>
        <pt x="498" y="9" on="1"/>
        <pt x="501" y="8" on="0"/>
        <pt x="502" y="5" on="1"/>
        <pt x="504" y="-5" on="0"/>
        <pt x="504" y="-226" on="1"/>
        <pt x="504" y="-459" on="0"/>
        <pt x="503" y="-468" on="1"/>
        <pt x="492" y="-625" on="0"/>
        <pt x="396" y="-752" on="1"/>
        <pt x="333" y="-835" on="0"/>
        <pt x="243" y="-891" on="1"/>
        <pt x="229" y="-900" on="1"/>
        <pt x="243" y="-909" on="1"/>
        <pt x="373" y="-989" on="0"/>
        <pt x="442" y="-1120" on="1"/>
        <pt x="496" y="-1220" on="0"/>
        <pt x="503" y="-1332" on="1"/>
        <pt x="504" y="-1341" on="0"/>
        <pt x="504" y="-1574" on="1"/>
        <pt x="504" y="-1806" on="0"/>
        <pt x="498" y="-1809" on="1"/>
        <pt x="390" y="-1809" on="1"/>
        <pt x="387" y="-1808" on="0"/>
        <pt x="386" y="-1805" on="1"/>
        <pt x="384" y="-1795" on="0"/>
        <pt x="384" y="-1575" on="1"/>
        <pt x="384" y="-1341" on="0"/>
        <pt x="383" y="-1329" on="1"/>
        <pt x="377" y="-1226" on="0"/>
        <pt x="342" y="-1140" on="1"/>
        <pt x="291" y="-1010" on="0"/>
        <pt x="183" y="-929" on="1"/>
        <pt x="171" y="-920" on="0"/>
        <pt x="171" y="-918" on="1"/>
        <pt x="171" y="-882" on="1"/>
        <pt x="171" y="-880" on="0"/>
        <pt x="183" y="-871" on="1"/>
        <pt x="337" y="-756" on="0"/>
        <pt x="374" y="-548" on="1"/>
        <pt x="381" y="-510" on="0"/>
        <pt x="383" y="-471" on="1"/>
        <pt x="384" y="-459" on="0"/>
        <pt x="384" y="-225" on="1"/>
        <pt x="384" y="2" on="0"/>
        <pt x="385" y="5" on="1"/>
      </contour>
    </TTGlyph>
    <TTGlyph name="m" xMin="15" yMin="-1759" xMax="304" yMax="40">
      <contour>
        <pt x="15" y="13" on="1"/>
        <pt x="15" y="40" on="1"/>
        <pt x="160" y="40" on="1"/>
        <pt x="304" y="40" on="1"/>
        <pt x="304" y="-859" on="1"/>
        <pt x="304" y="-1759" on="1"/>
        <pt x="277" y="-1759" on="1"/>
        <pt x="250" y="-1759" on="1"/>
        <pt x="250" y="-886" on="1"/>
        <pt x="250" y="-14" on="1"/>
        <pt x="133" y="-14" on="1"/>
        <pt x="15" y="-14" on="1"/>
      </contour>
    </TTGlyph>
    <TTGlyph name="n" xMin="116" yMin="-1759" xMax="547" yMax="40">
      <contour>
        <pt x="497" y="34" on="1"/>
        <pt x="514" y="40" on="1"/>
        <pt x="527" y="40" on="1"/>
        <pt x="541" y="40" on="1"/>
        <pt x="544" y="37" on="1"/>
        <pt x="547" y="34" on="1"/>
        <pt x="547" y="20" on="1"/>
        <pt x="547" y="4" on="0"/>
        <pt x="541" y="1" on="1"/>
        <pt x="539" y="0" on="0"/>
        <pt x="534" y="-2" on="1"/>
        <pt x="493" y="-20" on="0"/>
        <pt x="463" y="-44" on="1"/>
        <pt x="403" y="-90" on="0"/>
        <pt x="388" y="-150" on="1"/>
        <pt x="383" y="-169" on="0"/>
        <pt x="383" y="-288" on="1"/>
        <pt x="383" y="-320" on="0"/>
        <pt x="383" y="-410" on="1"/>
        <pt x="383" y="-642" on="0"/>
        <pt x="381" y="-652" on="1"/>
        <pt x="366" y="-779" on="0"/>
        <pt x="194" y="-852" on="1"/>
        <pt x="177" y="-860" on="1"/>
        <pt x="188" y="-864" on="1"/>
        <pt x="216" y="-875" on="0"/>
        <pt x="247" y="-893" on="1"/>
        <pt x="354" y="-953" on="0"/>
        <pt x="377" y="-1044" on="1"/>
        <pt x="383" y="-1066" on="0"/>
        <pt x="383" y="-1152" on="1"/>
        <pt x="383" y="-1188" on="0"/>
        <pt x="383" y="-1309" on="1"/>
        <pt x="383" y="-1548" on="0"/>
        <pt x="387" y="-1564" on="1"/>
        <pt x="387" y="-1565" on="0"/>
        <pt x="388" y="-1569" on="1"/>
        <pt x="397" y="-1606" on="0"/>
        <pt x="428" y="-1642" on="1"/>
        <pt x="470" y="-1691" on="0"/>
        <pt x="534" y="-1717" on="1"/>
        <pt x="546" y="-1721" on="0"/>
        <pt x="547" y="-1727" on="1"/>
        <pt x="547" y="-1730" on="0"/>
        <pt x="547" y="-1739" on="1"/>
        <pt x="547" y="-1753" on="1"/>
        <pt x="544" y="-1756" on="1"/>
        <pt x="541" y="-1759" on="1"/>
        <pt x="528" y="-1759" on="1"/>
        <pt x="514" y="-1759" on="1"/>
        <pt x="498" y="-1753" on="1"/>
        <pt x="301" y="-1683" on="0"/>
        <pt x="283" y="-1552" on="1"/>
        <pt x="282" y="-1542" on="0"/>
        <pt x="282" y="-1311" on="1"/>
        <pt x="282" y="-1077" on="0"/>
        <pt x="281" y="-1071" on="1"/>
        <pt x="275" y="-1016" on="0"/>
        <pt x="240" y="-969" on="1"/>
        <pt x="202" y="-917" on="0"/>
        <pt x="137" y="-885" on="1"/>
        <pt x="122" y="-876" on="0"/>
        <pt x="121" y="-875" on="1"/>
        <pt x="116" y="-870" on="0"/>
        <pt x="119" y="-849" on="1"/>
        <pt x="120" y="-845" on="0"/>
        <pt x="121" y="-844" on="1"/>
        <pt x="137" y="-834" on="1"/>
        <pt x="202" y="-802" on="0"/>
        <pt x="240" y="-750" on="1"/>
        <pt x="275" y="-703" on="0"/>
        <pt x="281" y="-648" on="1"/>
        <pt x="282" y="-642" on="0"/>
        <pt x="282" y="-408" on="1"/>
        <pt x="282" y="-169" on="0"/>
        <pt x="286" y="-153" on="1"/>
        <pt x="286" y="-152" on="0"/>
        <pt x="288" y="-146" on="1"/>
        <pt x="312" y="-53" on="0"/>
        <pt x="435" y="7" on="1"/>
        <pt x="456" y="18" on="0"/>
      </contour>
    </TTGlyph>
    <TTGlyph name="nine" xMin="170" yMin="-910" xMax="504" yMax="-1">
      <contour>
        <pt x="175" y="-2" on="1"/>
        <pt x="177" y="-1" on="0"/>
        <pt x="194" y="-1" on="1"/>
        <pt x="211" y="-1" on="1"/>
        <pt x="222" y="-7" on="1"/>
        <pt x="356" y="-80" on="0"/>
        <pt x="435" y="-208" on="1"/>
        <pt x="458" y="-250" on="0"/>
        <pt x="470" y="-280" on="1"/>
        <pt x="499" y="-352" on="0"/>
        <pt x="503" y="-424" on="1"/>
        <pt x="504" y="-433" on="0"/>
        <pt x="504" y="-670" on="1"/>
        <pt x="504" y="-906" on="0"/>
        <pt x="498" y="-909" on="1"/>
        <pt x="496" y="-910" on="0"/>
        <pt x="444" y="-910" on="1"/>
        <pt x="388" y="-910" on="0"/>
        <pt x="385" y="-904" on="1"/>
        <pt x="384" y="-902" on="0"/>
        <pt x="384" y="-660" on="1"/>
        <pt x="383" y="-416" on="0"/>
        <pt x="382" y="-404" on="1"/>
        <pt x="374" y="-339" on="0"/>
        <pt x="358" y="-291" on="1"/>
        <pt x="309" y="-141" on="0"/>
        <pt x="184" y="-54" on="1"/>
        <pt x="177" y="-50" on="0"/>
        <pt x="171" y="-44" on="1"/>
        <pt x="170" y="-43" on="0"/>
        <pt x="170" y="-25" on="1"/>
        <pt x="170" y="-6" on="0"/>
      </contour>
    </TTGlyph>
    <TTGlyph name="numbersign" xMin="1" yMin="-2959" xMax="317" yMax="40">
      <contour>
        <pt x="1" y="0" on="1"/>
        <pt x="1" y="40" on="1"/>
        <pt x="159" y="40" on="1"/>
        <pt x="317" y="40" on="1"/>
        <pt x="317" y="-1459" on="1"/>
        <pt x="317" y="-2958" on="1"/>
        <pt x="159" y="-2959" on="1"/>
        <pt x="1" y="-2959" on="1"/>
        <pt x="1" y="-2918" on="1"/>
        <pt x="1" y="-2878" on="1"/>
        <pt x="119" y="-2878" on="1"/>
        <pt x="236" y="-2877" on="1"/>
        <pt x="236" y="-1459" on="1"/>
        <pt x="236" y="-41" on="1"/>
        <pt x="119" y="-41" on="1"/>
        <pt x="1" y="-41" on="1"/>
      </contour>
    </TTGlyph>
    <TTGlyph name="o" xMin="116" yMin="-1759" xMax="546" yMax="40">
      <contour>
        <pt x="124" y="39" on="1"/>
        <pt x="126" y="40" on="0"/>
        <pt x="152" y="40" on="0"/>
        <pt x="164" y="36" on="1"/>
        <pt x="347" y="-29" on="0"/>
        <pt x="377" y="-145" on="1"/>
        <pt x="383" y="-166" on="0"/>
        <pt x="383" y="-250" on="1"/>
        <pt x="383" y="-286" on="0"/>
        <pt x="383" y="-408" on="1"/>
        <pt x="383" y="-642" on="0"/>
        <pt x="384" y="-648" on="1"/>
        <pt x="387" y="-679" on="0"/>
        <pt x="400" y="-708" on="1"/>
        <pt x="434" y="-786" on="0"/>
        <pt x="525" y="-832" on="1"/>
        <pt x="527" y="-834" on="0"/>
        <pt x="530" y="-835" on="1"/>
        <pt x="543" y="-841" on="0"/>
        <pt x="546" y="-844" on="1"/>
        <pt x="546" y="-875" on="1"/>
        <pt x="543" y="-878" on="0"/>
        <pt x="530" y="-884" on="1"/>
        <pt x="438" y="-929" on="0"/>
        <pt x="400" y="-1011" on="1"/>
        <pt x="387" y="-1040" on="0"/>
        <pt x="384" y="-1071" on="1"/>
        <pt x="383" y="-1077" on="0"/>
        <pt x="383" y="-1311" on="1"/>
        <pt x="383" y="-1550" on="0"/>
        <pt x="379" y="-1566" on="1"/>
        <pt x="377" y="-1574" on="1"/>
        <pt x="359" y="-1642" on="0"/>
        <pt x="288" y="-1693" on="1"/>
        <pt x="238" y="-1728" on="0"/>
        <pt x="164" y="-1755" on="1"/>
        <pt x="152" y="-1759" on="0"/>
        <pt x="139" y="-1759" on="1"/>
        <pt x="122" y="-1759" on="0"/>
        <pt x="120" y="-1754" on="1"/>
        <pt x="116" y="-1747" on="0"/>
        <pt x="120" y="-1724" on="1"/>
        <pt x="123" y="-1721" on="0"/>
        <pt x="136" y="-1715" on="1"/>
        <pt x="235" y="-1671" on="0"/>
        <pt x="269" y="-1593" on="1"/>
        <pt x="274" y="-1581" on="0"/>
        <pt x="277" y="-1569" on="1"/>
        <pt x="282" y="-1550" on="0"/>
        <pt x="282" y="-1431" on="1"/>
        <pt x="282" y="-1399" on="0"/>
        <pt x="282" y="-1309" on="1"/>
        <pt x="282" y="-1069" on="0"/>
        <pt x="286" y="-1052" on="1"/>
        <pt x="288" y="-1044" on="1"/>
        <pt x="304" y="-978" on="0"/>
        <pt x="370" y="-925" on="1"/>
        <pt x="394" y="-906" on="0"/>
        <pt x="421" y="-892" on="1"/>
        <pt x="447" y="-876" on="0"/>
        <pt x="478" y="-864" on="1"/>
        <pt x="489" y="-859" on="1"/>
        <pt x="478" y="-855" on="1"/>
        <pt x="454" y="-846" on="0"/>
        <pt x="419" y="-827" on="1"/>
        <pt x="395" y="-812" on="0"/>
        <pt x="370" y="-794" on="1"/>
        <pt x="304" y="-741" on="0"/>
        <pt x="288" y="-675" on="1"/>
        <pt x="282" y="-653" on="0"/>
        <pt x="282" y="-567" on="1"/>
        <pt x="282" y="-531" on="0"/>
        <pt x="282" y="-410" on="1"/>
        <pt x="282" y="-171" on="0"/>
        <pt x="278" y="-155" on="1"/>
        <pt x="278" y="-154" on="0"/>
        <pt x="277" y="-150" on="1"/>
        <pt x="257" y="-70" on="0"/>
        <pt x="164" y="-18" on="1"/>
        <pt x="150" y="-10" on="0"/>
        <pt x="136" y="-4" on="1"/>
        <pt x="123" y="2" on="0"/>
        <pt x="120" y="5" on="1"/>
        <pt x="119" y="7" on="0"/>
        <pt x="119" y="20" on="1"/>
        <pt x="119" y="35" on="0"/>
      </contour>
    </TTGlyph>
    <TTGlyph name="one" xMin="28" yMin="-1769" xMax="583" yMax="38">
      <contour>
        <pt x="36" y="38" on="1"/>
        <pt x="73" y="38" on="1"/>
        <pt x="74" y="38" on="1"/>
        <pt x="82" y="30" on="0"/>
        <pt x="89" y="21" on="1"/>
        <pt x="453" y="-421" on="0"/>
        <pt x="547" y="-1140" on="1"/>
        <pt x="579" y="-1387" on="0"/>
        <pt x="583" y="-1698" on="1"/>
        <pt x="583" y="-1765" on="0"/>
        <pt x="577" y="-1769" on="1"/>
        <pt x="454" y="-1769" on="1"/>
        <pt x="453" y="-1769" on="1"/>
        <pt x="447" y="-1767" on="0"/>
        <pt x="447" y="-1750" on="1"/>
        <pt x="447" y="-1743" on="0"/>
        <pt x="447" y="-1724" on="1"/>
        <pt x="447" y="-1579" on="0"/>
        <pt x="441" y="-1456" on="1"/>
        <pt x="416" y="-802" on="0"/>
        <pt x="241" y="-364" on="1"/>
        <pt x="231" y="-341" on="0"/>
        <pt x="221" y="-317" on="1"/>
        <pt x="149" y="-150" on="0"/>
        <pt x="51" y="-3" on="1"/>
        <pt x="32" y="26" on="0"/>
        <pt x="32" y="27" on="1"/>
        <pt x="28" y="34" on="0"/>
      </contour>
    </TTGlyph>
    <TTGlyph name="p" xMin="111" yMin="-1160" xMax="1020" yMax="42">
      <contour>
        <pt x="991" y="37" on="1"/>
        <pt x="1000" y="42" on="0"/>
        <pt x="1009" y="38" on="1"/>
        <pt x="1018" y="32" on="0"/>
        <pt x="1020" y="22" on="1"/>
        <pt x="1020" y="16" on="1"/>
        <pt x="741" y="-567" on="1"/>
        <pt x="459" y="-1152" on="0"/>
        <pt x="459" y="-1153" on="1"/>
        <pt x="455" y="-1157" on="0"/>
        <pt x="453" y="-1158" on="1"/>
        <pt x="449" y="-1160" on="0"/>
        <pt x="436" y="-1160" on="1"/>
        <pt x="424" y="-1159" on="1"/>
        <pt x="319" y="-915" on="1"/>
        <pt x="213" y="-670" on="1"/>
        <pt x="213" y="-668" on="0"/>
        <pt x="179" y="-696" on="1"/>
        <pt x="144" y="-723" on="1"/>
        <pt x="127" y="-707" on="1"/>
        <pt x="111" y="-690" on="1"/>
        <pt x="192" y="-625" on="1"/>
        <pt x="274" y="-560" on="1"/>
        <pt x="276" y="-564" on="1"/>
        <pt x="475" y="-1027" on="1"/>
        <pt x="728" y="-501" on="1"/>
        <pt x="983" y="30" on="0"/>
        <pt x="983" y="31" on="1"/>
        <pt x="987" y="35" on="0"/>
      </contour>
    </TTGlyph>
    <TTGlyph name="parenleft" xMin="141" yMin="-2959" xMax="661" yMax="40">
      <contour>
        <pt x="600" y="29" on="1"/>
        <pt x="622" y="40" on="1"/>
        <pt x="638" y="40" on="1"/>
        <pt x="655" y="40" on="0"/>
        <pt x="658" y="38" on="1"/>
        <pt x="661" y="35" on="1"/>
        <pt x="661" y="19" on="1"/>
        <pt x="661" y="1" on="0"/>
        <pt x="660" y="0" on="1"/>
        <pt x="660" y="-2" on="0"/>
        <pt x="655" y="-5" on="1"/>
        <pt x="636" y="-18" on="1"/>
        <pt x="522" y="-93" on="0"/>
        <pt x="481" y="-222" on="1"/>
        <pt x="474" y="-245" on="0"/>
        <pt x="470" y="-268" on="1"/>
        <pt x="464" y="-296" on="0"/>
        <pt x="464" y="-373" on="1"/>
        <pt x="464" y="-398" on="0"/>
        <pt x="463" y="-703" on="1"/>
        <pt x="463" y="-1096" on="0"/>
        <pt x="461" y="-1112" on="1"/>
        <pt x="450" y="-1228" on="0"/>
        <pt x="369" y="-1328" on="1"/>
        <pt x="348" y="-1353" on="0"/>
        <pt x="321" y="-1378" on="1"/>
        <pt x="275" y="-1419" on="0"/>
        <pt x="216" y="-1452" on="1"/>
        <pt x="202" y="-1459" on="1"/>
        <pt x="209" y="-1463" on="1"/>
        <pt x="259" y="-1490" on="0"/>
        <pt x="304" y="-1526" on="1"/>
        <pt x="329" y="-1547" on="0"/>
        <pt x="354" y="-1574" on="1"/>
        <pt x="445" y="-1674" on="0"/>
        <pt x="460" y="-1794" on="1"/>
        <pt x="462" y="-1809" on="0"/>
        <pt x="462" y="-2196" on="1"/>
        <pt x="462" y="-2578" on="0"/>
        <pt x="464" y="-2600" on="1"/>
        <pt x="472" y="-2726" on="0"/>
        <pt x="550" y="-2824" on="1"/>
        <pt x="576" y="-2855" on="0"/>
        <pt x="601" y="-2875" on="1"/>
        <pt x="622" y="-2893" on="0"/>
        <pt x="645" y="-2907" on="1"/>
        <pt x="658" y="-2916" on="1"/>
        <pt x="661" y="-2918" on="1"/>
        <pt x="661" y="-2935" on="1"/>
        <pt x="661" y="-2953" on="0"/>
        <pt x="659" y="-2956" on="1"/>
        <pt x="656" y="-2958" on="1"/>
        <pt x="639" y="-2959" on="1"/>
        <pt x="622" y="-2959" on="1"/>
        <pt x="603" y="-2950" on="1"/>
        <pt x="522" y="-2910" on="0"/>
        <pt x="462" y="-2850" on="1"/>
        <pt x="410" y="-2801" on="0"/>
        <pt x="381" y="-2741" on="1"/>
        <pt x="357" y="-2695" on="0"/>
        <pt x="348" y="-2649" on="1"/>
        <pt x="343" y="-2622" on="0"/>
        <pt x="342" y="-2515" on="1"/>
        <pt x="342" y="-2452" on="0"/>
        <pt x="341" y="-2213" on="1"/>
        <pt x="340" y="-1812" on="0"/>
        <pt x="339" y="-1798" on="1"/>
        <pt x="322" y="-1630" on="0"/>
        <pt x="203" y="-1522" on="1"/>
        <pt x="182" y="-1504" on="0"/>
        <pt x="159" y="-1488" on="1"/>
        <pt x="146" y="-1479" on="0"/>
        <pt x="146" y="-1478" on="1"/>
        <pt x="141" y="-1473" on="0"/>
        <pt x="144" y="-1447" on="1"/>
        <pt x="145" y="-1442" on="0"/>
        <pt x="146" y="-1441" on="1"/>
        <pt x="146" y="-1440" on="0"/>
        <pt x="159" y="-1431" on="1"/>
        <pt x="284" y="-1346" on="0"/>
        <pt x="325" y="-1196" on="1"/>
        <pt x="330" y="-1175" on="0"/>
        <pt x="334" y="-1153" on="1"/>
        <pt x="340" y="-1122" on="0"/>
        <pt x="340" y="-1037" on="1"/>
        <pt x="340" y="-1014" on="0"/>
        <pt x="341" y="-709" on="1"/>
        <pt x="342" y="-307" on="0"/>
        <pt x="343" y="-297" on="1"/>
        <pt x="351" y="-247" on="0"/>
        <pt x="364" y="-214" on="1"/>
        <pt x="375" y="-185" on="0"/>
        <pt x="397" y="-148" on="1"/>
        <pt x="454" y="-59" on="0"/>
        <pt x="546" y="-2" on="1"/>
        <pt x="568" y="13" on="0"/>
      </contour>
    </TTGlyph>
    <TTGlyph name="parenright" xMin="144" yMin="-2959" xMax="663" yMax="40">
      <contour>
        <pt x="149" y="39" on="1"/>
        <pt x="151" y="40" on="0"/>
        <pt x="167" y="40" on="1"/>
        <pt x="183" y="40" on="1"/>
        <pt x="199" y="32" on="1"/>
        <pt x="260" y="2" on="0"/>
        <pt x="309" y="-38" on="1"/>
        <pt x="338" y="-60" on="0"/>
        <pt x="373" y="-101" on="1"/>
        <pt x="438" y="-180" on="0"/>
        <pt x="456" y="-270" on="1"/>
        <pt x="462" y="-297" on="0"/>
        <pt x="462" y="-366" on="1"/>
        <pt x="462" y="-394" on="0"/>
        <pt x="463" y="-704" on="1"/>
        <pt x="463" y="-1097" on="0"/>
        <pt x="465" y="-1113" on="1"/>
        <pt x="477" y="-1268" on="0"/>
        <pt x="579" y="-1374" on="1"/>
        <pt x="610" y="-1406" on="0"/>
        <pt x="644" y="-1429" on="1"/>
        <pt x="659" y="-1438" on="0"/>
        <pt x="659" y="-1440" on="1"/>
        <pt x="663" y="-1447" on="0"/>
        <pt x="660" y="-1477" on="1"/>
        <pt x="659" y="-1479" on="0"/>
        <pt x="652" y="-1484" on="1"/>
        <pt x="634" y="-1496" on="0"/>
        <pt x="618" y="-1508" on="1"/>
        <pt x="585" y="-1536" on="0"/>
        <pt x="557" y="-1570" on="1"/>
        <pt x="488" y="-1656" on="0"/>
        <pt x="470" y="-1766" on="1"/>
        <pt x="465" y="-1795" on="0"/>
        <pt x="464" y="-1922" on="1"/>
        <pt x="464" y="-1984" on="0"/>
        <pt x="463" y="-2205" on="1"/>
        <pt x="463" y="-2599" on="0"/>
        <pt x="461" y="-2613" on="1"/>
        <pt x="453" y="-2695" on="0"/>
        <pt x="410" y="-2766" on="1"/>
        <pt x="359" y="-2851" on="0"/>
        <pt x="269" y="-2911" on="1"/>
        <pt x="236" y="-2932" on="0"/>
        <pt x="205" y="-2948" on="1"/>
        <pt x="185" y="-2958" on="1"/>
        <pt x="169" y="-2959" on="1"/>
        <pt x="149" y="-2959" on="0"/>
        <pt x="146" y="-2955" on="1"/>
        <pt x="145" y="-2922" on="1"/>
        <pt x="145" y="-2920" on="0"/>
        <pt x="145" y="-2919" on="1"/>
        <pt x="146" y="-2916" on="0"/>
        <pt x="151" y="-2913" on="1"/>
        <pt x="165" y="-2904" on="0"/>
        <pt x="192" y="-2885" on="1"/>
        <pt x="307" y="-2795" on="0"/>
        <pt x="334" y="-2651" on="1"/>
        <pt x="339" y="-2624" on="0"/>
        <pt x="340" y="-2510" on="1"/>
        <pt x="340" y="-2447" on="0"/>
        <pt x="341" y="-2215" on="1"/>
        <pt x="341" y="-1827" on="0"/>
        <pt x="343" y="-1805" on="1"/>
        <pt x="350" y="-1730" on="0"/>
        <pt x="393" y="-1652" on="1"/>
        <pt x="412" y="-1619" on="0"/>
        <pt x="429" y="-1599" on="1"/>
        <pt x="495" y="-1518" on="0"/>
        <pt x="589" y="-1467" on="1"/>
        <pt x="603" y="-1459" on="1"/>
        <pt x="595" y="-1456" on="1"/>
        <pt x="497" y="-1404" on="0"/>
        <pt x="429" y="-1320" on="1"/>
        <pt x="409" y="-1297" on="0"/>
        <pt x="393" y="-1266" on="1"/>
        <pt x="354" y="-1200" on="0"/>
        <pt x="344" y="-1123" on="1"/>
        <pt x="342" y="-1108" on="1"/>
        <pt x="341" y="-708" on="1"/>
        <pt x="340" y="-306" on="0"/>
        <pt x="339" y="-295" on="1"/>
        <pt x="321" y="-169" on="0"/>
        <pt x="240" y="-79" on="1"/>
        <pt x="204" y="-38" on="0"/>
        <pt x="156" y="-9" on="1"/>
        <pt x="147" y="-4" on="0"/>
        <pt x="145" y="-1" on="1"/>
        <pt x="144" y="1" on="0"/>
        <pt x="144" y="17" on="1"/>
        <pt x="144" y="35" on="0"/>
      </contour>
    </TTGlyph>
    <TTGlyph name="percent" xMin="1" yMin="-2959" xMax="373" yMax="40">
      <contour>
        <pt x="292" y="-1419" on="1"/>
        <pt x="292" y="40" on="1"/>
        <pt x="333" y="40" on="1"/>
        <pt x="373" y="40" on="1"/>
        <pt x="373" y="-1459" on="1"/>
        <pt x="373" y="-2958" on="1"/>
        <pt x="187" y="-2959" on="1"/>
        <pt x="1" y="-2959" on="1"/>
        <pt x="1" y="-2918" on="1"/>
        <pt x="1" y="-2878" on="1"/>
        <pt x="147" y="-2878" on="1"/>
        <pt x="292" y="-2877" on="1"/>
      </contour>
    </TTGlyph>
    <TTGlyph name="period" xMin="56" yMin="-1758" xMax="755" yMax="40">
      <contour>
        <pt x="720" y="37" on="1"/>
        <pt x="725" y="40" on="0"/>
        <pt x="732" y="40" on="1"/>
        <pt x="746" y="38" on="0"/>
        <pt x="751" y="29" on="1"/>
        <pt x="755" y="22" on="0"/>
        <pt x="755" y="16" on="1"/>
        <pt x="755" y="9" on="1"/>
        <pt x="428" y="-867" on="1"/>
        <pt x="100" y="-1744" on="0"/>
        <pt x="99" y="-1747" on="1"/>
        <pt x="97" y="-1752" on="0"/>
        <pt x="87" y="-1758" on="0"/>
        <pt x="71" y="-1758" on="0"/>
        <pt x="66" y="-1755" on="1"/>
        <pt x="61" y="-1753" on="0"/>
        <pt x="59" y="-1748" on="1"/>
        <pt x="56" y="-1743" on="0"/>
        <pt x="56" y="-1735" on="1"/>
        <pt x="56" y="-1727" on="1"/>
        <pt x="382" y="-851" on="1"/>
        <pt x="711" y="28" on="0"/>
        <pt x="712" y="29" on="1"/>
        <pt x="715" y="34" on="0"/>
      </contour>
    </TTGlyph>
    <TTGlyph name="plus" xMin="95" yMin="-2963" xMax="666" yMax="40">
      <contour>
        <pt x="128" y="38" on="1"/>
        <pt x="136" y="40" on="0"/>
        <pt x="145" y="39" on="1"/>
        <pt x="164" y="36" on="0"/>
        <pt x="173" y="19" on="1"/>
        <pt x="175" y="17" on="0"/>
        <pt x="421" y="-718" on="1"/>
        <pt x="665" y="-1450" on="1"/>
        <pt x="665" y="-1459" on="1"/>
        <pt x="666" y="-1468" on="1"/>
        <pt x="422" y="-2198" on="1"/>
        <pt x="174" y="-2936" on="0"/>
        <pt x="174" y="-2935" on="1"/>
        <pt x="166" y="-2955" on="0"/>
        <pt x="145" y="-2958" on="1"/>
        <pt x="120" y="-2963" on="0"/>
        <pt x="105" y="-2941" on="1"/>
        <pt x="99" y="-2931" on="0"/>
        <pt x="99" y="-2918" on="1"/>
        <pt x="99" y="-2909" on="1"/>
        <pt x="341" y="-2185" on="1"/>
        <pt x="584" y="-1460" on="1"/>
        <pt x="341" y="-735" on="1"/>
        <pt x="98" y="-4" on="1"/>
        <pt x="95" y="21" on="0"/>
        <pt x="119" y="34" on="1"/>
        <pt x="124" y="37" on="0"/>
      </contour>
    </TTGlyph>
    <TTGlyph name="q" xMin="111" yMin="-1760" xMax="1020" yMax="42">
      <contour>
        <pt x="991" y="37" on="1"/>
        <pt x="1000" y="42" on="0"/>
        <pt x="1009" y="38" on="1"/>
        <pt x="1018" y="33" on="0"/>
        <pt x="1020" y="22" on="1"/>
        <pt x="1020" y="15" on="0"/>
        <pt x="742" y="-863" on="1"/>
        <pt x="463" y="-1746" on="0"/>
        <pt x="461" y="-1748" on="1"/>
        <pt x="460" y="-1753" on="0"/>
        <pt x="455" y="-1756" on="1"/>
        <pt x="450" y="-1760" on="0"/>
        <pt x="438" y="-1760" on="1"/>
        <pt x="424" y="-1760" on="1"/>
        <pt x="423" y="-1757" on="1"/>
        <pt x="423" y="-1756" on="0"/>
        <pt x="317" y="-1385" on="1"/>
        <pt x="209" y="-1013" on="0"/>
        <pt x="210" y="-1014" on="1"/>
        <pt x="210" y="-1012" on="0"/>
        <pt x="198" y="-1026" on="1"/>
        <pt x="191" y="-1034" on="0"/>
        <pt x="177" y="-1051" on="1"/>
        <pt x="145" y="-1089" on="0"/>
        <pt x="144" y="-1090" on="1"/>
        <pt x="127" y="-1074" on="1"/>
        <pt x="111" y="-1057" on="1"/>
        <pt x="192" y="-959" on="1"/>
        <pt x="274" y="-861" on="0"/>
        <pt x="274" y="-862" on="1"/>
        <pt x="375" y="-1214" on="1"/>
        <pt x="477" y="-1566" on="0"/>
        <pt x="477" y="-1567" on="1"/>
        <pt x="729" y="-772" on="1"/>
        <pt x="983" y="30" on="1"/>
        <pt x="985" y="34" on="0"/>
      </contour>
    </TTGlyph>
    <TTGlyph name="question" xMin="312" yMin="-601" xMax="355" yMax="1">
      <contour>
        <pt x="312" y="-300" on="1"/>
        <pt x="312" y="1" on="1"/>
        <pt x="334" y="1" on="1"/>
        <pt x="355" y="1" on="1"/>
        <pt x="355" y="-300" on="1"/>
        <pt x="355" y="-601" on="1"/>
        <pt x="334" y="-601" on="1"/>
        <pt x="312" y="-601" on="1"/>
      </contour>
    </TTGlyph>
    <TTGlyph name="quotedbl" xMin="265" yMin="-2959" xMax="581" yMax="40">
      <contour>
        <pt x="265" y="-1459" on="1"/>
        <pt x="265" y="40" on="1"/>
        <pt x="423" y="40" on="1"/>
        <pt x="581" y="40" on="1"/>
        <pt x="581" y="0" on="1"/>
        <pt x="581" y="-41" on="1"/>
        <pt x="464" y="-41" on="1"/>
        <pt x="346" y="-41" on="1"/>
        <pt x="346" y="-1459" on="1"/>
        <pt x="346" y="-2877" on="1"/>
        <pt x="464" y="-2878" on="1"/>
        <pt x="581" y="-2878" on="1"/>
        <pt x="581" y="-2918" on="1"/>
        <pt x="581" y="-2959" on="1"/>
        <pt x="423" y="-2959" on="1"/>
        <pt x="265" y="-2958" on="1"/>
      </contour>
    </TTGlyph>
    <TTGlyph name="quotesingle" xMin="1" yMin="-2958" xMax="373" yMax="40">
      <contour>
        <pt x="1" y="0" on="1"/>
        <pt x="1" y="40" on="1"/>
        <pt x="187" y="40" on="1"/>
        <pt x="373" y="40" on="1"/>
        <pt x="373" y="-1459" on="1"/>
        <pt x="373" y="-2958" on="1"/>
        <pt x="333" y="-2958" on="1"/>
        <pt x="292" y="-2958" on="1"/>
        <pt x="292" y="-1500" on="1"/>
        <pt x="292" y="-41" on="1"/>
        <pt x="147" y="-41" on="1"/>
        <pt x="1" y="-41" on="1"/>
      </contour>
    </TTGlyph>
    <TTGlyph name="r" xMin="111" yMin="-2360" xMax="1020" yMax="40">
      <contour>
        <pt x="991" y="37" on="1"/>
        <pt x="996" y="40" on="0"/>
        <pt x="1000" y="40" on="1"/>
        <pt x="1014" y="40" on="0"/>
        <pt x="1020" y="23" on="1"/>
        <pt x="1020" y="18" on="0"/>
        <pt x="742" y="-1162" on="1"/>
        <pt x="463" y="-2346" on="0"/>
        <pt x="461" y="-2348" on="1"/>
        <pt x="460" y="-2353" on="0"/>
        <pt x="455" y="-2356" on="1"/>
        <pt x="450" y="-2360" on="0"/>
        <pt x="438" y="-2360" on="1"/>
        <pt x="425" y="-2360" on="0"/>
        <pt x="425" y="-2359" on="1"/>
        <pt x="317" y="-1861" on="1"/>
        <pt x="209" y="-1361" on="0"/>
        <pt x="209" y="-1360" on="1"/>
        <pt x="208" y="-1355" on="1"/>
        <pt x="185" y="-1393" on="1"/>
        <pt x="153" y="-1444" on="1"/>
        <pt x="144" y="-1458" on="1"/>
        <pt x="128" y="-1441" on="1"/>
        <pt x="111" y="-1424" on="1"/>
        <pt x="192" y="-1293" on="1"/>
        <pt x="273" y="-1162" on="1"/>
        <pt x="376" y="-1634" on="1"/>
        <pt x="478" y="-2106" on="1"/>
        <pt x="983" y="29" on="1"/>
        <pt x="985" y="35" on="0"/>
      </contour>
    </TTGlyph>
    <TTGlyph name="s" xMin="111" yMin="-2960" xMax="1020" yMax="40">
      <contour>
        <pt x="991" y="37" on="1"/>
        <pt x="996" y="40" on="0"/>
        <pt x="1000" y="40" on="1"/>
        <pt x="1014" y="40" on="0"/>
        <pt x="1020" y="23" on="1"/>
        <pt x="1020" y="20" on="0"/>
        <pt x="742" y="-1462" on="1"/>
        <pt x="463" y="-2945" on="0"/>
        <pt x="461" y="-2948" on="1"/>
        <pt x="460" y="-2953" on="0"/>
        <pt x="455" y="-2956" on="1"/>
        <pt x="450" y="-2960" on="0"/>
        <pt x="438" y="-2960" on="1"/>
        <pt x="425" y="-2960" on="0"/>
        <pt x="425" y="-2959" on="1"/>
        <pt x="316" y="-2331" on="1"/>
        <pt x="207" y="-1704" on="0"/>
        <pt x="207" y="-1698" on="0"/>
        <pt x="188" y="-1737" on="1"/>
        <pt x="183" y="-1747" on="0"/>
        <pt x="176" y="-1761" on="1"/>
        <pt x="145" y="-1824" on="1"/>
        <pt x="144" y="-1826" on="0"/>
        <pt x="127" y="-1809" on="1"/>
        <pt x="111" y="-1792" on="1"/>
        <pt x="192" y="-1627" on="1"/>
        <pt x="273" y="-1462" on="1"/>
        <pt x="375" y="-2045" on="1"/>
        <pt x="475" y="-2628" on="0"/>
        <pt x="477" y="-2637" on="1"/>
        <pt x="479" y="-2647" on="1"/>
        <pt x="730" y="-1312" on="1"/>
        <pt x="979" y="19" on="0"/>
        <pt x="983" y="29" on="1"/>
        <pt x="985" y="35" on="0"/>
      </contour>
    </TTGlyph>
    <TTGlyph name="semicolon" xMin="170" yMin="-899" xMax="504" yMax="9">
      <contour>
        <pt x="389" y="9" on="1"/>
        <pt x="496" y="9" on="1"/>
        <pt x="498" y="9" on="1"/>
        <pt x="501" y="8" on="0"/>
        <pt x="502" y="5" on="1"/>
        <pt x="504" y="-5" on="0"/>
        <pt x="504" y="-230" on="1"/>
        <pt x="504" y="-467" on="0"/>
        <pt x="503" y="-476" on="1"/>
        <pt x="499" y="-548" on="0"/>
        <pt x="470" y="-619" on="1"/>
        <pt x="458" y="-652" on="0"/>
        <pt x="435" y="-691" on="1"/>
        <pt x="357" y="-820" on="0"/>
        <pt x="222" y="-893" on="1"/>
        <pt x="211" y="-899" on="1"/>
        <pt x="195" y="-899" on="1"/>
        <pt x="173" y="-899" on="0"/>
        <pt x="171" y="-892" on="1"/>
        <pt x="170" y="-889" on="0"/>
        <pt x="170" y="-874" on="1"/>
        <pt x="170" y="-857" on="0"/>
        <pt x="171" y="-856" on="1"/>
        <pt x="177" y="-850" on="0"/>
        <pt x="184" y="-846" on="1"/>
        <pt x="314" y="-756" on="0"/>
        <pt x="362" y="-596" on="1"/>
        <pt x="373" y="-561" on="0"/>
        <pt x="378" y="-525" on="1"/>
        <pt x="383" y="-493" on="0"/>
        <pt x="384" y="-377" on="1"/>
        <pt x="384" y="-239" on="1"/>
        <pt x="384" y="2" on="0"/>
        <pt x="386" y="6" on="0"/>
      </contour>
    </TTGlyph>
    <TTGlyph name="seven" xMin="258" yMin="-601" xMax="352" yMax="1">
      <contour>
        <pt x="258" y="-300" on="1"/>
        <pt x="258" y="1" on="1"/>
        <pt x="305" y="1" on="1"/>
        <pt x="352" y="1" on="1"/>
        <pt x="352" y="-300" on="1"/>
        <pt x="352" y="-601" on="1"/>
        <pt x="305" y="-601" on="1"/>
        <pt x="258" y="-601" on="1"/>
      </contour>
    </TTGlyph>
    <TTGlyph name="six" xMin="314" yMin="-601" xMax="408" yMax="1">
      <contour>
        <pt x="314" y="-300" on="1"/>
        <pt x="314" y="1" on="1"/>
        <pt x="361" y="1" on="1"/>
        <pt x="408" y="1" on="1"/>
        <pt x="408" y="-300" on="1"/>
        <pt x="408" y="-601" on="1"/>
        <pt x="361" y="-601" on="1"/>
        <pt x="314" y="-601" on="1"/>
      </contour>
    </TTGlyph>
    <TTGlyph name="slash" xMin="55" yMin="-1766" xMax="755" yMax="46">
      <contour>
        <pt x="68" y="37" on="1"/>
        <pt x="85" y="46" on="0"/>
        <pt x="98" y="30" on="1"/>
        <pt x="101" y="25" on="0"/>
        <pt x="428" y="-850" on="1"/>
        <pt x="755" y="-1726" on="1"/>
        <pt x="755" y="-1735" on="1"/>
        <pt x="755" y="-1741" on="0"/>
        <pt x="751" y="-1748" on="1"/>
        <pt x="749" y="-1753" on="0"/>
        <pt x="744" y="-1755" on="1"/>
        <pt x="727" y="-1766" on="0"/>
        <pt x="715" y="-1752" on="1"/>
        <pt x="713" y="-1751" on="0"/>
        <pt x="712" y="-1749" on="1"/>
        <pt x="705" y="-1735" on="0"/>
        <pt x="383" y="-868" on="1"/>
        <pt x="56" y="7" on="0"/>
        <pt x="55" y="19" on="1"/>
        <pt x="56" y="23" on="1"/>
        <pt x="60" y="34" on="0"/>
      </contour>
    </TTGlyph>
    <TTGlyph name="t" xMin="111" yMin="-1800" xMax="742" yMax="26">
      <contour>
        <pt x="713" y="18" on="1"/>
        <pt x="730" y="26" on="0"/>
        <pt x="738" y="11" on="1"/>
        <pt x="742" y="7" on="1"/>
        <pt x="742" y="-889" on="1"/>
        <pt x="742" y="-1786" on="1"/>
        <pt x="738" y="-1790" on="1"/>
        <pt x="733" y="-1799" on="0"/>
        <pt x="714" y="-1800" on="1"/>
        <pt x="703" y="-1800" on="0"/>
        <pt x="703" y="-1799" on="1"/>
        <pt x="231" y="-374" on="0"/>
        <pt x="231" y="-373" on="1"/>
        <pt x="188" y="-462" on="1"/>
        <pt x="144" y="-550" on="0"/>
        <pt x="144" y="-551" on="1"/>
        <pt x="127" y="-535" on="1"/>
        <pt x="111" y="-518" on="1"/>
        <pt x="193" y="-349" on="1"/>
        <pt x="275" y="-179" on="1"/>
        <pt x="489" y="-825" on="1"/>
        <pt x="702" y="-1471" on="1"/>
        <pt x="702" y="-732" on="1"/>
        <pt x="703" y="7" on="1"/>
        <pt x="706" y="11" on="1"/>
        <pt x="708" y="14" on="0"/>
      </contour>
    </TTGlyph>
    <TTGlyph name="three" xMin="-5" yMin="-1760" xMax="352" yMax="39">
      <contour>
        <pt x="-5" y="-8" on="1"/>
        <pt x="-5" y="39" on="1"/>
        <pt x="174" y="39" on="1"/>
        <pt x="352" y="39" on="1"/>
        <pt x="352" y="-860" on="1"/>
        <pt x="352" y="-1760" on="1"/>
        <pt x="305" y="-1760" on="1"/>
        <pt x="258" y="-1760" on="1"/>
        <pt x="258" y="-907" on="1"/>
        <pt x="258" y="-55" on="1"/>
        <pt x="127" y="-55" on="1"/>
        <pt x="-5" y="-55" on="1"/>
      </contour>
    </TTGlyph>
    <TTGlyph name="two" xMin="314" yMin="-1760" xMax="671" yMax="39">
      <contour>
        <pt x="314" y="-860" on="1"/>
        <pt x="314" y="39" on="1"/>
        <pt x="493" y="39" on="1"/>
        <pt x="671" y="39" on="1"/>
        <pt x="671" y="-8" on="1"/>
        <pt x="671" y="-55" on="1"/>
        <pt x="540" y="-55" on="1"/>
        <pt x="408" y="-55" on="1"/>
        <pt x="408" y="-907" on="1"/>
        <pt x="408" y="-1760" on="1"/>
        <pt x="361" y="-1760" on="1"/>
        <pt x="314" y="-1760" on="1"/>
      </contour>
    </TTGlyph>
    <TTGlyph name="u" xMin="702" yMin="-619" xMax="742" yMax="26">
      <contour>
        <pt x="713" y="18" on="1"/>
        <pt x="727" y="26" on="0"/>
        <pt x="740" y="9" on="1"/>
        <pt x="742" y="5" on="1"/>
        <pt x="742" y="-300" on="1"/>
        <pt x="742" y="-605" on="1"/>
        <pt x="740" y="-609" on="1"/>
        <pt x="736" y="-614" on="0"/>
        <pt x="733" y="-616" on="1"/>
        <pt x="729" y="-619" on="0"/>
        <pt x="715" y="-619" on="0"/>
        <pt x="711" y="-616" on="1"/>
        <pt x="708" y="-614" on="0"/>
        <pt x="704" y="-609" on="1"/>
        <pt x="702" y="-605" on="1"/>
        <pt x="702" y="-299" on="1"/>
        <pt x="703" y="7" on="1"/>
        <pt x="706" y="11" on="1"/>
      </contour>
    </TTGlyph>
    <TTGlyph name="u00B0" xMin="178" yMin="-1759" xMax="561" yMax="40">
      <contour>
        <pt x="520" y="34" on="1"/>
        <pt x="527" y="40" on="1"/>
        <pt x="541" y="40" on="1"/>
        <pt x="555" y="40" on="1"/>
        <pt x="558" y="37" on="1"/>
        <pt x="561" y="34" on="0"/>
        <pt x="561" y="31" on="1"/>
        <pt x="561" y="26" on="0"/>
        <pt x="548" y="13" on="1"/>
        <pt x="361" y="-195" on="0"/>
        <pt x="306" y="-528" on="1"/>
        <pt x="265" y="-777" on="0"/>
        <pt x="289" y="-1056" on="1"/>
        <pt x="292" y="-1083" on="0"/>
        <pt x="295" y="-1109" on="1"/>
        <pt x="341" y="-1501" on="0"/>
        <pt x="548" y="-1732" on="1"/>
        <pt x="561" y="-1745" on="0"/>
        <pt x="561" y="-1750" on="1"/>
        <pt x="561" y="-1753" on="0"/>
        <pt x="558" y="-1756" on="1"/>
        <pt x="555" y="-1759" on="1"/>
        <pt x="541" y="-1759" on="1"/>
        <pt x="527" y="-1759" on="1"/>
        <pt x="520" y="-1753" on="1"/>
        <pt x="440" y="-1684" on="0"/>
        <pt x="374" y="-1586" on="1"/>
        <pt x="281" y="-1450" on="0"/>
        <pt x="232" y="-1271" on="1"/>
        <pt x="191" y="-1120" on="0"/>
        <pt x="182" y="-944" on="1"/>
        <pt x="178" y="-887" on="0"/>
        <pt x="181" y="-791" on="1"/>
        <pt x="182" y="-781" on="0"/>
        <pt x="182" y="-775" on="1"/>
        <pt x="191" y="-599" on="0"/>
        <pt x="232" y="-448" on="1"/>
        <pt x="295" y="-220" on="0"/>
        <pt x="428" y="-61" on="1"/>
        <pt x="473" y="-6" on="0"/>
      </contour>
    </TTGlyph>
    <TTGlyph name="u00B5" xMin="89" yMin="-2358" xMax="624" yMax="46">
      <contour>
        <pt x="114" y="38" on="1"/>
        <pt x="135" y="46" on="0"/>
        <pt x="149" y="29" on="1"/>
        <pt x="151" y="27" on="0"/>
        <pt x="152" y="25" on="1"/>
        <pt x="154" y="23" on="0"/>
        <pt x="389" y="-565" on="1"/>
        <pt x="623" y="-1150" on="1"/>
        <pt x="623" y="-1159" on="1"/>
        <pt x="624" y="-1168" on="1"/>
        <pt x="391" y="-1749" on="1"/>
        <pt x="158" y="-2331" on="0"/>
        <pt x="156" y="-2337" on="1"/>
        <pt x="150" y="-2349" on="0"/>
        <pt x="139" y="-2356" on="1"/>
        <pt x="134" y="-2358" on="0"/>
        <pt x="125" y="-2358" on="1"/>
        <pt x="110" y="-2358" on="0"/>
        <pt x="92" y="-2340" on="0"/>
        <pt x="92" y="-2325" on="1"/>
        <pt x="92" y="-2316" on="1"/>
        <pt x="322" y="-1742" on="1"/>
        <pt x="554" y="-1162" on="0"/>
        <pt x="553" y="-1164" on="1"/>
        <pt x="554" y="-1159" on="1"/>
        <pt x="323" y="-580" on="1"/>
        <pt x="92" y="-4" on="0"/>
        <pt x="91" y="5" on="1"/>
        <pt x="89" y="28" on="0"/>
      </contour>
    </TTGlyph>
    <TTGlyph name="u00B6" xMin="56" yMin="-2363" xMax="988" yMax="40">
      <contour>
        <pt x="953" y="39" on="1"/>
        <pt x="955" y="40" on="0"/>
        <pt x="963" y="40" on="1"/>
        <pt x="982" y="39" on="0"/>
        <pt x="987" y="20" on="1"/>
        <pt x="988" y="15" on="0"/>
        <pt x="988" y="7" on="0"/>
        <pt x="918" y="-176" on="1"/>
        <pt x="479" y="-1351" on="1"/>
        <pt x="107" y="-2344" on="0"/>
        <pt x="104" y="-2347" on="1"/>
        <pt x="94" y="-2363" on="0"/>
        <pt x="75" y="-2358" on="1"/>
        <pt x="64" y="-2354" on="0"/>
        <pt x="59" y="-2345" on="1"/>
        <pt x="56" y="-2340" on="0"/>
        <pt x="56" y="-2332" on="1"/>
        <pt x="56" y="-2323" on="0"/>
        <pt x="68" y="-2294" on="1"/>
        <pt x="72" y="-2282" on="0"/>
        <pt x="507" y="-1122" on="1"/>
        <pt x="929" y="10" on="0"/>
        <pt x="937" y="25" on="1"/>
        <pt x="940" y="30" on="0"/>
        <pt x="945" y="35" on="1"/>
      </contour>
    </TTGlyph>
    <TTGlyph name="u00B7" xMin="8" yMin="-2359" xMax="338" yMax="40">
      <contour>
        <pt x="271" y="-1126" on="1"/>
        <pt x="271" y="40" on="1"/>
        <pt x="305" y="40" on="1"/>
        <pt x="338" y="40" on="1"/>
        <pt x="338" y="-1159" on="1"/>
        <pt x="338" y="-2358" on="1"/>
        <pt x="173" y="-2359" on="1"/>
        <pt x="8" y="-2359" on="1"/>
        <pt x="8" y="-2325" on="1"/>
        <pt x="8" y="-2292" on="1"/>
        <pt x="140" y="-2292" on="1"/>
        <pt x="271" y="-2291" on="1"/>
      </contour>
    </TTGlyph>
    <TTGlyph name="u00C0" xMin="153" yMin="-1159" xMax="427" yMax="40">
      <contour>
        <pt x="376" y="34" on="1"/>
        <pt x="383" y="40" on="1"/>
        <pt x="402" y="40" on="1"/>
        <pt x="421" y="40" on="1"/>
        <pt x="424" y="37" on="1"/>
        <pt x="427" y="34" on="0"/>
        <pt x="427" y="31" on="1"/>
        <pt x="427" y="26" on="0"/>
        <pt x="417" y="16" on="1"/>
        <pt x="283" y="-139" on="0"/>
        <pt x="255" y="-396" on="1"/>
        <pt x="247" y="-460" on="0"/>
        <pt x="247" y="-559" on="1"/>
        <pt x="247" y="-659" on="0"/>
        <pt x="255" y="-723" on="1"/>
        <pt x="283" y="-980" on="0"/>
        <pt x="417" y="-1135" on="1"/>
        <pt x="427" y="-1145" on="0"/>
        <pt x="427" y="-1150" on="1"/>
        <pt x="427" y="-1153" on="0"/>
        <pt x="424" y="-1156" on="1"/>
        <pt x="421" y="-1159" on="1"/>
        <pt x="402" y="-1159" on="1"/>
        <pt x="383" y="-1159" on="1"/>
        <pt x="376" y="-1153" on="1"/>
        <pt x="338" y="-1120" on="0"/>
        <pt x="300" y="-1071" on="1"/>
        <pt x="188" y="-921" on="0"/>
        <pt x="161" y="-701" on="1"/>
        <pt x="153" y="-643" on="0"/>
        <pt x="153" y="-559" on="1"/>
        <pt x="153" y="-476" on="0"/>
        <pt x="161" y="-418" on="1"/>
        <pt x="191" y="-174" on="0"/>
        <pt x="323" y="-20" on="1"/>
        <pt x="348" y="10" on="0"/>
      </contour>
    </TTGlyph>
    <TTGlyph name="u00C1" xMin="30" yMin="-1159" xMax="304" yMax="40">
      <contour>
        <pt x="35" y="39" on="1"/>
        <pt x="37" y="40" on="0"/>
        <pt x="56" y="40" on="1"/>
        <pt x="74" y="40" on="1"/>
        <pt x="81" y="34" on="1"/>
        <pt x="119" y="1" on="0"/>
        <pt x="157" y="-48" on="1"/>
        <pt x="269" y="-198" on="0"/>
        <pt x="296" y="-418" on="1"/>
        <pt x="304" y="-476" on="0"/>
        <pt x="304" y="-559" on="1"/>
        <pt x="304" y="-643" on="0"/>
        <pt x="296" y="-701" on="1"/>
        <pt x="266" y="-945" on="0"/>
        <pt x="134" y="-1099" on="1"/>
        <pt x="109" y="-1129" on="0"/>
        <pt x="81" y="-1153" on="1"/>
        <pt x="74" y="-1159" on="1"/>
        <pt x="56" y="-1159" on="1"/>
        <pt x="33" y="-1159" on="0"/>
        <pt x="31" y="-1153" on="1"/>
        <pt x="30" y="-1151" on="0"/>
        <pt x="30" y="-1147" on="1"/>
        <pt x="40" y="-1134" on="1"/>
        <pt x="131" y="-1030" on="0"/>
        <pt x="171" y="-885" on="1"/>
        <pt x="200" y="-788" on="0"/>
        <pt x="209" y="-640" on="1"/>
        <pt x="213" y="-592" on="0"/>
        <pt x="210" y="-495" on="1"/>
        <pt x="209" y="-484" on="0"/>
        <pt x="209" y="-478" on="1"/>
        <pt x="200" y="-331" on="0"/>
        <pt x="171" y="-233" on="1"/>
        <pt x="131" y="-89" on="0"/>
        <pt x="40" y="15" on="1"/>
        <pt x="30" y="28" on="1"/>
        <pt x="30" y="36" on="0"/>
      </contour>
    </TTGlyph>
    <TTGlyph name="u00C2" xMin="202" yMin="-1159" xMax="394" yMax="40">
      <contour>
        <pt x="202" y="-559" on="1"/>
        <pt x="202" y="40" on="1"/>
        <pt x="298" y="40" on="1"/>
        <pt x="394" y="40" on="1"/>
        <pt x="394" y="20" on="1"/>
        <pt x="394" y="0" on="1"/>
        <pt x="318" y="0" on="1"/>
        <pt x="242" y="0" on="1"/>
        <pt x="242" y="-559" on="1"/>
        <pt x="242" y="-1119" on="1"/>
        <pt x="318" y="-1119" on="1"/>
        <pt x="394" y="-1119" on="1"/>
        <pt x="394" y="-1139" on="1"/>
        <pt x="394" y="-1159" on="1"/>
        <pt x="298" y="-1159" on="1"/>
        <pt x="202" y="-1159" on="1"/>
      </contour>
    </TTGlyph>
    <TTGlyph name="u00C3" xMin="22" yMin="-1159" xMax="214" yMax="40">
      <contour>
        <pt x="22" y="20" on="1"/>
        <pt x="22" y="40" on="1"/>
        <pt x="118" y="40" on="1"/>
        <pt x="214" y="40" on="1"/>
        <pt x="214" y="-559" on="1"/>
        <pt x="214" y="-1159" on="1"/>
        <pt x="118" y="-1159" on="1"/>
        <pt x="22" y="-1159" on="1"/>
        <pt x="22" y="-1139" on="1"/>
        <pt x="22" y="-1119" on="1"/>
        <pt x="98" y="-1119" on="1"/>
        <pt x="174" y="-1119" on="1"/>
        <pt x="174" y="-559" on="1"/>
        <pt x="174" y="0" on="1"/>
        <pt x="98" y="0" on="1"/>
        <pt x="22" y="0" on="1"/>
      </contour>
    </TTGlyph>
    <TTGlyph name="u00C4" xMin="202" yMin="-1159" xMax="449" yMax="40">
      <contour>
        <pt x="202" y="-559" on="1"/>
        <pt x="202" y="40" on="1"/>
        <pt x="222" y="40" on="1"/>
        <pt x="242" y="40" on="1"/>
        <pt x="242" y="-539" on="1"/>
        <pt x="242" y="-1119" on="1"/>
        <pt x="346" y="-1119" on="1"/>
        <pt x="449" y="-1119" on="1"/>
        <pt x="449" y="-1139" on="1"/>
        <pt x="449" y="-1159" on="1"/>
        <pt x="326" y="-1159" on="1"/>
        <pt x="202" y="-1159" on="1"/>
      </contour>
    </TTGlyph>
    <TTGlyph name="u00C5" xMin="22" yMin="-1159" xMax="269" yMax="40">
      <contour>
        <pt x="229" y="-539" on="1"/>
        <pt x="229" y="40" on="1"/>
        <pt x="249" y="40" on="1"/>
        <pt x="269" y="40" on="1"/>
        <pt x="269" y="-559" on="1"/>
        <pt x="269" y="-1159" on="1"/>
        <pt x="146" y="-1159" on="1"/>
        <pt x="22" y="-1159" on="1"/>
        <pt x="22" y="-1139" on="1"/>
        <pt x="22" y="-1119" on="1"/>
        <pt x="126" y="-1119" on="1"/>
        <pt x="229" y="-1119" on="1"/>
      </contour>
    </TTGlyph>
    <TTGlyph name="u00C6" xMin="202" yMin="-1159" xMax="449" yMax="40">
      <contour>
        <pt x="202" y="-559" on="1"/>
        <pt x="202" y="40" on="1"/>
        <pt x="326" y="40" on="1"/>
        <pt x="449" y="40" on="1"/>
        <pt x="449" y="20" on="1"/>
        <pt x="449" y="0" on="1"/>
        <pt x="346" y="0" on="1"/>
        <pt x="242" y="0" on="1"/>
        <pt x="242" y="-579" on="1"/>
        <pt x="242" y="-1159" on="1"/>
        <pt x="222" y="-1159" on="1"/>
        <pt x="202" y="-1159" on="1"/>
      </contour>
    </TTGlyph>
    <TTGlyph name="u00C7" xMin="22" yMin="-1159" xMax="269" yMax="40">
      <contour>
        <pt x="22" y="20" on="1"/>
        <pt x="22" y="40" on="1"/>
        <pt x="146" y="40" on="1"/>
        <pt x="269" y="40" on="1"/>
        <pt x="269" y="-559" on="1"/>
        <pt x="269" y="-1159" on="1"/>
        <pt x="249" y="-1159" on="1"/>
        <pt x="229" y="-1159" on="1"/>
        <pt x="229" y="-579" on="1"/>
        <pt x="229" y="0" on="1"/>
        <pt x="126" y="0" on="1"/>
        <pt x="22" y="0" on="1"/>
      </contour>
    </TTGlyph>
    <TTGlyph name="u00C8" xMin="100" yMin="-1159" xMax="482" yMax="40">
      <contour>
        <pt x="419" y="34" on="1"/>
        <pt x="439" y="40" on="1"/>
        <pt x="457" y="40" on="1"/>
        <pt x="476" y="40" on="1"/>
        <pt x="479" y="37" on="1"/>
        <pt x="482" y="34" on="1"/>
        <pt x="482" y="15" on="1"/>
        <pt x="482" y="-6" on="0"/>
        <pt x="477" y="-9" on="1"/>
        <pt x="475" y="-10" on="0"/>
        <pt x="465" y="-13" on="1"/>
        <pt x="390" y="-32" on="0"/>
        <pt x="360" y="-62" on="1"/>
        <pt x="346" y="-76" on="0"/>
        <pt x="342" y="-91" on="1"/>
        <pt x="339" y="-99" on="1"/>
        <pt x="338" y="-259" on="1"/>
        <pt x="337" y="-420" on="0"/>
        <pt x="336" y="-426" on="1"/>
        <pt x="330" y="-450" on="0"/>
        <pt x="316" y="-471" on="1"/>
        <pt x="303" y="-489" on="0"/>
        <pt x="285" y="-503" on="1"/>
        <pt x="251" y="-533" on="0"/>
        <pt x="185" y="-555" on="1"/>
        <pt x="173" y="-560" on="1"/>
        <pt x="183" y="-563" on="1"/>
        <pt x="245" y="-583" on="0"/>
        <pt x="285" y="-616" on="1"/>
        <pt x="302" y="-630" on="0"/>
        <pt x="316" y="-648" on="1"/>
        <pt x="330" y="-669" on="0"/>
        <pt x="336" y="-693" on="1"/>
        <pt x="337" y="-699" on="0"/>
        <pt x="338" y="-860" on="1"/>
        <pt x="339" y="-1019" on="1"/>
        <pt x="342" y="-1028" on="1"/>
        <pt x="346" y="-1043" on="0"/>
        <pt x="360" y="-1057" on="1"/>
        <pt x="390" y="-1087" on="0"/>
        <pt x="465" y="-1106" on="1"/>
        <pt x="480" y="-1110" on="0"/>
        <pt x="481" y="-1115" on="1"/>
        <pt x="482" y="-1118" on="0"/>
        <pt x="482" y="-1134" on="1"/>
        <pt x="482" y="-1153" on="1"/>
        <pt x="479" y="-1156" on="1"/>
        <pt x="476" y="-1159" on="1"/>
        <pt x="458" y="-1159" on="1"/>
        <pt x="440" y="-1159" on="1"/>
        <pt x="421" y="-1154" on="1"/>
        <pt x="284" y="-1116" on="0"/>
        <pt x="254" y="-1052" on="1"/>
        <pt x="250" y="-1043" on="0"/>
        <pt x="247" y="-1033" on="1"/>
        <pt x="245" y="-1023" on="1"/>
        <pt x="244" y="-863" on="1"/>
        <pt x="243" y="-698" on="0"/>
        <pt x="240" y="-689" on="1"/>
        <pt x="240" y="-690" on="0"/>
        <pt x="238" y="-683" on="1"/>
        <pt x="214" y="-624" on="0"/>
        <pt x="120" y="-589" on="1"/>
        <pt x="106" y="-584" on="0"/>
        <pt x="102" y="-580" on="1"/>
        <pt x="100" y="-578" on="0"/>
        <pt x="100" y="-559" on="1"/>
        <pt x="100" y="-541" on="0"/>
        <pt x="102" y="-539" on="1"/>
        <pt x="106" y="-535" on="0"/>
        <pt x="120" y="-530" on="1"/>
        <pt x="214" y="-495" on="0"/>
        <pt x="238" y="-436" on="1"/>
        <pt x="243" y="-422" on="0"/>
        <pt x="243" y="-371" on="1"/>
        <pt x="243" y="-390" on="0"/>
        <pt x="244" y="-256" on="1"/>
        <pt x="245" y="-95" on="1"/>
        <pt x="247" y="-86" on="1"/>
        <pt x="265" y="-19" on="0"/>
        <pt x="368" y="18" on="1"/>
        <pt x="391" y="26" on="0"/>
      </contour>
    </TTGlyph>
    <TTGlyph name="u00C9" xMin="98" yMin="-1159" xMax="482" yMax="40">
      <contour>
        <pt x="105" y="39" on="1"/>
        <pt x="107" y="40" on="0"/>
        <pt x="125" y="40" on="1"/>
        <pt x="142" y="40" on="1"/>
        <pt x="161" y="35" on="1"/>
        <pt x="298" y="-3" on="0"/>
        <pt x="328" y="-67" on="1"/>
        <pt x="332" y="-76" on="0"/>
        <pt x="335" y="-86" on="1"/>
        <pt x="337" y="-95" on="1"/>
        <pt x="338" y="-256" on="1"/>
        <pt x="339" y="-421" on="0"/>
        <pt x="342" y="-430" on="1"/>
        <pt x="342" y="-429" on="0"/>
        <pt x="344" y="-436" on="1"/>
        <pt x="367" y="-497" on="0"/>
        <pt x="468" y="-533" on="1"/>
        <pt x="480" y="-537" on="0"/>
        <pt x="481" y="-543" on="1"/>
        <pt x="482" y="-546" on="0"/>
        <pt x="482" y="-559" on="1"/>
        <pt x="482" y="-580" on="0"/>
        <pt x="476" y="-583" on="1"/>
        <pt x="474" y="-584" on="0"/>
        <pt x="468" y="-586" on="1"/>
        <pt x="367" y="-622" on="0"/>
        <pt x="344" y="-683" on="1"/>
        <pt x="339" y="-697" on="0"/>
        <pt x="339" y="-748" on="1"/>
        <pt x="339" y="-729" on="0"/>
        <pt x="338" y="-863" on="1"/>
        <pt x="337" y="-1023" on="1"/>
        <pt x="335" y="-1033" on="1"/>
        <pt x="317" y="-1101" on="0"/>
        <pt x="210" y="-1139" on="1"/>
        <pt x="188" y="-1147" on="0"/>
        <pt x="161" y="-1154" on="1"/>
        <pt x="142" y="-1159" on="1"/>
        <pt x="125" y="-1159" on="1"/>
        <pt x="105" y="-1159" on="0"/>
        <pt x="101" y="-1154" on="1"/>
        <pt x="98" y="-1148" on="0"/>
        <pt x="100" y="-1120" on="1"/>
        <pt x="100" y="-1115" on="0"/>
        <pt x="101" y="-1114" on="1"/>
        <pt x="104" y="-1109" on="0"/>
        <pt x="120" y="-1106" on="1"/>
        <pt x="192" y="-1086" on="0"/>
        <pt x="222" y="-1057" on="1"/>
        <pt x="236" y="-1043" on="0"/>
        <pt x="240" y="-1028" on="1"/>
        <pt x="244" y="-1019" on="1"/>
        <pt x="244" y="-860" on="1"/>
        <pt x="245" y="-699" on="0"/>
        <pt x="246" y="-693" on="1"/>
        <pt x="252" y="-669" on="0"/>
        <pt x="266" y="-648" on="1"/>
        <pt x="280" y="-630" on="0"/>
        <pt x="297" y="-616" on="1"/>
        <pt x="331" y="-586" on="0"/>
        <pt x="397" y="-564" on="1"/>
        <pt x="409" y="-559" on="1"/>
        <pt x="399" y="-556" on="1"/>
        <pt x="337" y="-536" on="0"/>
        <pt x="297" y="-503" on="1"/>
        <pt x="279" y="-489" on="0"/>
        <pt x="266" y="-471" on="1"/>
        <pt x="252" y="-450" on="0"/>
        <pt x="246" y="-426" on="1"/>
        <pt x="245" y="-420" on="0"/>
        <pt x="244" y="-259" on="1"/>
        <pt x="244" y="-99" on="1"/>
        <pt x="240" y="-91" on="1"/>
        <pt x="236" y="-76" on="0"/>
        <pt x="222" y="-62" on="1"/>
        <pt x="192" y="-33" on="0"/>
        <pt x="120" y="-13" on="1"/>
        <pt x="104" y="-10" on="0"/>
        <pt x="101" y="-5" on="1"/>
        <pt x="100" y="-3" on="0"/>
        <pt x="100" y="15" on="1"/>
        <pt x="100" y="35" on="0"/>
      </contour>
    </TTGlyph>
    <TTGlyph name="u00CA" xMin="97" yMin="-1160" xMax="394" yMax="42">
      <contour>
        <pt x="367" y="39" on="1"/>
        <pt x="374" y="42" on="0"/>
        <pt x="383" y="38" on="1"/>
        <pt x="392" y="32" on="0"/>
        <pt x="394" y="22" on="1"/>
        <pt x="394" y="15" on="0"/>
        <pt x="267" y="-272" on="1"/>
        <pt x="139" y="-560" on="1"/>
        <pt x="267" y="-848" on="1"/>
        <pt x="394" y="-1135" on="0"/>
        <pt x="394" y="-1142" on="1"/>
        <pt x="393" y="-1158" on="0"/>
        <pt x="378" y="-1160" on="1"/>
        <pt x="375" y="-1160" on="0"/>
        <pt x="373" y="-1160" on="1"/>
        <pt x="361" y="-1159" on="0"/>
        <pt x="356" y="-1148" on="1"/>
        <pt x="354" y="-1142" on="0"/>
        <pt x="225" y="-853" on="1"/>
        <pt x="97" y="-565" on="0"/>
        <pt x="97" y="-555" on="0"/>
        <pt x="225" y="-267" on="1"/>
        <pt x="354" y="22" on="0"/>
        <pt x="356" y="28" on="1"/>
        <pt x="360" y="36" on="0"/>
      </contour>
    </TTGlyph>
    <TTGlyph name="u00CB" xMin="77" yMin="-1162" xMax="374" yMax="40">
      <contour>
        <pt x="88" y="38" on="1"/>
        <pt x="92" y="40" on="0"/>
        <pt x="98" y="40" on="1"/>
        <pt x="110" y="39" on="0"/>
        <pt x="115" y="28" on="1"/>
        <pt x="117" y="22" on="0"/>
        <pt x="246" y="-267" on="1"/>
        <pt x="374" y="-555" on="0"/>
        <pt x="374" y="-565" on="0"/>
        <pt x="246" y="-853" on="1"/>
        <pt x="117" y="-1142" on="0"/>
        <pt x="115" y="-1148" on="1"/>
        <pt x="110" y="-1159" on="0"/>
        <pt x="98" y="-1160" on="1"/>
        <pt x="81" y="-1162" on="0"/>
        <pt x="77" y="-1142" on="1"/>
        <pt x="77" y="-1135" on="0"/>
        <pt x="204" y="-848" on="1"/>
        <pt x="332" y="-560" on="1"/>
        <pt x="204" y="-272" on="1"/>
        <pt x="77" y="15" on="0"/>
        <pt x="77" y="22" on="1"/>
        <pt x="79" y="32" on="0"/>
      </contour>
    </TTGlyph>
    <TTGlyph name="u00CC" xMin="146" yMin="-621" xMax="187" yMax="24">
      <contour>
        <pt x="163" y="21" on="1"/>
        <pt x="179" y="24" on="0"/>
        <pt x="187" y="6" on="1"/>
        <pt x="187" y="-606" on="1"/>
        <pt x="184" y="-621" on="0"/>
        <pt x="166" y="-621" on="1"/>
        <pt x="149" y="-621" on="0"/>
        <pt x="146" y="-606" on="1"/>
        <pt x="146" y="6" on="1"/>
        <pt x="150" y="19" on="0"/>
      </contour>
    </TTGlyph>
    <TTGlyph name="u00CD" xMin="146" yMin="-621" xMax="409" yMax="24">
      <contour>
        <pt x="163" y="21" on="1"/>
        <pt x="179" y="24" on="0"/>
        <pt x="187" y="6" on="1"/>
        <pt x="187" y="-606" on="1"/>
        <pt x="184" y="-621" on="0"/>
        <pt x="166" y="-621" on="1"/>
        <pt x="149" y="-621" on="0"/>
        <pt x="146" y="-606" on="1"/>
        <pt x="146" y="6" on="1"/>
        <pt x="150" y="19" on="0"/>
      </contour>
      <contour>
        <pt x="385" y="21" on="1"/>
        <pt x="401" y="24" on="0"/>
        <pt x="409" y="6" on="1"/>
        <pt x="409" y="-606" on="1"/>
        <pt x="406" y="-621" on="0"/>
        <pt x="389" y="-621" on="1"/>
        <pt x="371" y="-621" on="0"/>
        <pt x="368" y="-606" on="1"/>
        <pt x="368" y="6" on="1"/>
        <pt x="372" y="19" on="0"/>
      </contour>
    </TTGlyph>
    <TTGlyph name="u00CE" xMin="55" yMin="-1164" xMax="522" yMax="44">
      <contour>
        <pt x="494" y="39" on="1"/>
        <pt x="511" y="44" on="0"/>
        <pt x="520" y="27" on="1"/>
        <pt x="522" y="23" on="0"/>
        <pt x="522" y="17" on="1"/>
        <pt x="96" y="-1147" on="1"/>
        <pt x="88" y="-1164" on="0"/>
        <pt x="70" y="-1158" on="1"/>
        <pt x="61" y="-1155" on="0"/>
        <pt x="57" y="-1146" on="1"/>
        <pt x="55" y="-1142" on="0"/>
        <pt x="55" y="-1136" on="1"/>
        <pt x="481" y="28" on="1"/>
        <pt x="486" y="36" on="0"/>
      </contour>
    </TTGlyph>
    <TTGlyph name="u00CF" xMin="53" yMin="-1164" xMax="522" yMax="44">
      <contour>
        <pt x="70" y="39" on="1"/>
        <pt x="87" y="44" on="0"/>
        <pt x="96" y="28" on="1"/>
        <pt x="522" y="-1136" on="1"/>
        <pt x="522" y="-1142" on="0"/>
        <pt x="520" y="-1146" on="1"/>
        <pt x="511" y="-1164" on="0"/>
        <pt x="493" y="-1158" on="1"/>
        <pt x="485" y="-1155" on="0"/>
        <pt x="481" y="-1147" on="1"/>
        <pt x="55" y="17" on="1"/>
        <pt x="53" y="32" on="0"/>
      </contour>
    </TTGlyph>
    <TTGlyph name="u00D1" xMin="34" yMin="-1759" xMax="418" yMax="40">
      <contour>
        <pt x="40" y="39" on="1"/>
        <pt x="42" y="40" on="0"/>
        <pt x="56" y="40" on="1"/>
        <pt x="69" y="40" on="1"/>
        <pt x="76" y="34" on="1"/>
        <pt x="156" y="-35" on="0"/>
        <pt x="222" y="-133" on="1"/>
        <pt x="315" y="-269" on="0"/>
        <pt x="364" y="-448" on="1"/>
        <pt x="405" y="-599" on="0"/>
        <pt x="414" y="-775" on="1"/>
        <pt x="418" y="-832" on="0"/>
        <pt x="415" y="-928" on="1"/>
        <pt x="414" y="-938" on="0"/>
        <pt x="414" y="-944" on="1"/>
        <pt x="405" y="-1120" on="0"/>
        <pt x="364" y="-1271" on="1"/>
        <pt x="301" y="-1499" on="0"/>
        <pt x="168" y="-1658" on="1"/>
        <pt x="123" y="-1713" on="0"/>
        <pt x="76" y="-1753" on="1"/>
        <pt x="69" y="-1759" on="1"/>
        <pt x="56" y="-1759" on="1"/>
        <pt x="38" y="-1759" on="0"/>
        <pt x="34" y="-1747" on="0"/>
        <pt x="44" y="-1736" on="1"/>
        <pt x="80" y="-1695" on="0"/>
        <pt x="99" y="-1669" on="1"/>
        <pt x="261" y="-1454" on="0"/>
        <pt x="301" y="-1109" on="1"/>
        <pt x="329" y="-866" on="0"/>
        <pt x="302" y="-619" on="1"/>
        <pt x="302" y="-615" on="0"/>
        <pt x="301" y="-610" on="1"/>
        <pt x="255" y="-216" on="0"/>
        <pt x="49" y="12" on="1"/>
        <pt x="35" y="27" on="0"/>
        <pt x="35" y="31" on="1"/>
        <pt x="35" y="36" on="0"/>
      </contour>
    </TTGlyph>
    <TTGlyph name="u00D2" xMin="209" yMin="-2359" xMax="701" yMax="40">
      <contour>
        <pt x="660" y="36" on="1"/>
        <pt x="664" y="40" on="1"/>
        <pt x="680" y="40" on="1"/>
        <pt x="695" y="40" on="1"/>
        <pt x="698" y="37" on="1"/>
        <pt x="701" y="34" on="0"/>
        <pt x="701" y="31" on="1"/>
        <pt x="701" y="26" on="0"/>
        <pt x="687" y="12" on="1"/>
        <pt x="568" y="-116" on="0"/>
        <pt x="490" y="-273" on="1"/>
        <pt x="342" y="-572" on="0"/>
        <pt x="320" y="-1000" on="1"/>
        <pt x="317" y="-1054" on="0"/>
        <pt x="317" y="-1159" on="1"/>
        <pt x="317" y="-1265" on="0"/>
        <pt x="320" y="-1318" on="1"/>
        <pt x="342" y="-1748" on="0"/>
        <pt x="490" y="-2045" on="1"/>
        <pt x="567" y="-2202" on="0"/>
        <pt x="687" y="-2331" on="1"/>
        <pt x="701" y="-2345" on="0"/>
        <pt x="701" y="-2350" on="1"/>
        <pt x="701" y="-2353" on="0"/>
        <pt x="698" y="-2356" on="1"/>
        <pt x="695" y="-2359" on="1"/>
        <pt x="680" y="-2359" on="1"/>
        <pt x="664" y="-2359" on="1"/>
        <pt x="660" y="-2355" on="1"/>
        <pt x="630" y="-2331" on="0"/>
        <pt x="573" y="-2270" on="1"/>
        <pt x="280" y="-1948" on="0"/>
        <pt x="222" y="-1415" on="1"/>
        <pt x="218" y="-1386" on="0"/>
        <pt x="216" y="-1357" on="1"/>
        <pt x="209" y="-1276" on="0"/>
        <pt x="209" y="-1159" on="1"/>
        <pt x="209" y="-1043" on="0"/>
        <pt x="216" y="-961" on="1"/>
        <pt x="260" y="-420" on="0"/>
        <pt x="542" y="-84" on="1"/>
        <pt x="557" y="-66" on="0"/>
        <pt x="573" y="-49" on="1"/>
        <pt x="630" y="12" on="0"/>
      </contour>
    </TTGlyph>
    <TTGlyph name="u00D3" xMin="34" yMin="-2359" xMax="526" yMax="40">
      <contour>
        <pt x="39" y="39" on="1"/>
        <pt x="41" y="40" on="0"/>
        <pt x="56" y="40" on="1"/>
        <pt x="71" y="40" on="1"/>
        <pt x="75" y="36" on="1"/>
        <pt x="105" y="12" on="0"/>
        <pt x="162" y="-49" on="1"/>
        <pt x="453" y="-369" on="0"/>
        <pt x="513" y="-895" on="1"/>
        <pt x="516" y="-928" on="0"/>
        <pt x="519" y="-961" on="1"/>
        <pt x="526" y="-1043" on="0"/>
        <pt x="526" y="-1159" on="1"/>
        <pt x="526" y="-1276" on="0"/>
        <pt x="519" y="-1357" on="1"/>
        <pt x="474" y="-1903" on="0"/>
        <pt x="189" y="-2239" on="1"/>
        <pt x="176" y="-2255" on="0"/>
        <pt x="162" y="-2270" on="1"/>
        <pt x="105" y="-2331" on="0"/>
        <pt x="75" y="-2355" on="1"/>
        <pt x="71" y="-2359" on="1"/>
        <pt x="56" y="-2359" on="1"/>
        <pt x="37" y="-2359" on="0"/>
        <pt x="35" y="-2353" on="1"/>
        <pt x="34" y="-2351" on="0"/>
        <pt x="34" y="-2347" on="1"/>
        <pt x="48" y="-2331" on="1"/>
        <pt x="49" y="-2330" on="1"/>
        <pt x="169" y="-2199" on="0"/>
        <pt x="245" y="-2045" on="1"/>
        <pt x="393" y="-1748" on="0"/>
        <pt x="415" y="-1318" on="1"/>
        <pt x="418" y="-1265" on="0"/>
        <pt x="418" y="-1159" on="1"/>
        <pt x="418" y="-1054" on="0"/>
        <pt x="415" y="-1000" on="1"/>
        <pt x="393" y="-572" on="0"/>
        <pt x="245" y="-273" on="1"/>
        <pt x="169" y="-119" on="0"/>
        <pt x="49" y="11" on="1"/>
        <pt x="48" y="12" on="0"/>
        <pt x="34" y="28" on="1"/>
        <pt x="34" y="36" on="0"/>
      </contour>
    </TTGlyph>
    <TTGlyph name="u00D4" xMin="244" yMin="-2359" xMax="519" yMax="40">
      <contour>
        <pt x="244" y="-1159" on="1"/>
        <pt x="244" y="40" on="1"/>
        <pt x="382" y="40" on="1"/>
        <pt x="519" y="40" on="1"/>
        <pt x="519" y="7" on="1"/>
        <pt x="519" y="-27" on="1"/>
        <pt x="415" y="-27" on="1"/>
        <pt x="311" y="-27" on="1"/>
        <pt x="311" y="-1159" on="1"/>
        <pt x="311" y="-2291" on="1"/>
        <pt x="415" y="-2292" on="1"/>
        <pt x="519" y="-2292" on="1"/>
        <pt x="519" y="-2325" on="1"/>
        <pt x="519" y="-2359" on="1"/>
        <pt x="382" y="-2359" on="1"/>
        <pt x="244" y="-2358" on="1"/>
      </contour>
    </TTGlyph>
    <TTGlyph name="u00D5" xMin="8" yMin="-2359" xMax="283" yMax="40">
      <contour>
        <pt x="8" y="7" on="1"/>
        <pt x="8" y="40" on="1"/>
        <pt x="146" y="40" on="1"/>
        <pt x="283" y="40" on="1"/>
        <pt x="283" y="-1159" on="1"/>
        <pt x="283" y="-2358" on="1"/>
        <pt x="146" y="-2359" on="1"/>
        <pt x="8" y="-2359" on="1"/>
        <pt x="8" y="-2325" on="1"/>
        <pt x="8" y="-2292" on="1"/>
        <pt x="112" y="-2292" on="1"/>
        <pt x="216" y="-2291" on="1"/>
        <pt x="216" y="-1159" on="1"/>
        <pt x="216" y="-27" on="1"/>
        <pt x="112" y="-27" on="1"/>
        <pt x="8" y="-27" on="1"/>
      </contour>
    </TTGlyph>
    <TTGlyph name="u00D6" xMin="244" yMin="-2359" xMax="574" yMax="40">
      <contour>
        <pt x="244" y="-1159" on="1"/>
        <pt x="244" y="40" on="1"/>
        <pt x="278" y="40" on="1"/>
        <pt x="311" y="40" on="1"/>
        <pt x="311" y="-1126" on="1"/>
        <pt x="311" y="-2291" on="1"/>
        <pt x="443" y="-2292" on="1"/>
        <pt x="574" y="-2292" on="1"/>
        <pt x="574" y="-2325" on="1"/>
        <pt x="574" y="-2359" on="1"/>
        <pt x="409" y="-2359" on="1"/>
        <pt x="244" y="-2358" on="1"/>
      </contour>
    </TTGlyph>
    <TTGlyph name="u00D8" xMin="244" yMin="-2358" xMax="574" yMax="40">
      <contour>
        <pt x="244" y="-1159" on="1"/>
        <pt x="244" y="40" on="1"/>
        <pt x="409" y="40" on="1"/>
        <pt x="574" y="40" on="1"/>
        <pt x="574" y="7" on="1"/>
        <pt x="574" y="-27" on="1"/>
        <pt x="443" y="-27" on="1"/>
        <pt x="311" y="-27" on="1"/>
        <pt x="311" y="-1193" on="1"/>
        <pt x="311" y="-2358" on="1"/>
        <pt x="278" y="-2358" on="1"/>
        <pt x="244" y="-2358" on="1"/>
      </contour>
    </TTGlyph>
    <TTGlyph name="u00D9" xMin="8" yMin="-2358" xMax="338" yMax="40">
      <contour>
        <pt x="8" y="7" on="1"/>
        <pt x="8" y="40" on="1"/>
        <pt x="173" y="40" on="1"/>
        <pt x="338" y="40" on="1"/>
        <pt x="338" y="-1159" on="1"/>
        <pt x="338" y="-2358" on="1"/>
        <pt x="305" y="-2358" on="1"/>
        <pt x="271" y="-2358" on="1"/>
        <pt x="271" y="-1193" on="1"/>
        <pt x="271" y="-27" on="1"/>
        <pt x="140" y="-27" on="1"/>
        <pt x="8" y="-27" on="1"/>
      </contour>
    </TTGlyph>
    <TTGlyph name="u00DA" xMin="129" yMin="-2359" xMax="618" yMax="40">
      <contour>
        <pt x="569" y="35" on="1"/>
        <pt x="582" y="40" on="1"/>
        <pt x="597" y="40" on="1"/>
        <pt x="612" y="40" on="1"/>
        <pt x="615" y="37" on="1"/>
        <pt x="618" y="34" on="1"/>
        <pt x="618" y="19" on="1"/>
        <pt x="618" y="1" on="0"/>
        <pt x="610" y="-3" on="1"/>
        <pt x="592" y="-13" on="1"/>
        <pt x="481" y="-75" on="0"/>
        <pt x="444" y="-176" on="1"/>
        <pt x="437" y="-196" on="0"/>
        <pt x="433" y="-217" on="1"/>
        <pt x="429" y="-242" on="1"/>
        <pt x="428" y="-250" on="0"/>
        <pt x="428" y="-559" on="1"/>
        <pt x="428" y="-869" on="0"/>
        <pt x="427" y="-877" on="1"/>
        <pt x="419" y="-964" on="0"/>
        <pt x="357" y="-1037" on="1"/>
        <pt x="321" y="-1081" on="0"/>
        <pt x="267" y="-1116" on="1"/>
        <pt x="246" y="-1131" on="0"/>
        <pt x="209" y="-1150" on="1"/>
        <pt x="189" y="-1160" on="1"/>
        <pt x="207" y="-1168" on="1"/>
        <pt x="360" y="-1243" on="0"/>
        <pt x="409" y="-1368" on="1"/>
        <pt x="424" y="-1404" on="0"/>
        <pt x="427" y="-1442" on="1"/>
        <pt x="428" y="-1450" on="0"/>
        <pt x="428" y="-1759" on="1"/>
        <pt x="428" y="-2069" on="0"/>
        <pt x="429" y="-2077" on="1"/>
        <pt x="433" y="-2102" on="1"/>
        <pt x="451" y="-2208" on="0"/>
        <pt x="555" y="-2282" on="1"/>
        <pt x="572" y="-2295" on="0"/>
        <pt x="592" y="-2306" on="1"/>
        <pt x="610" y="-2316" on="1"/>
        <pt x="618" y="-2329" on="0"/>
        <pt x="618" y="-2338" on="1"/>
        <pt x="618" y="-2353" on="1"/>
        <pt x="615" y="-2356" on="1"/>
        <pt x="612" y="-2359" on="1"/>
        <pt x="597" y="-2359" on="1"/>
        <pt x="582" y="-2359" on="1"/>
        <pt x="570" y="-2354" on="1"/>
        <pt x="495" y="-2323" on="0"/>
        <pt x="438" y="-2278" on="1"/>
        <pt x="400" y="-2245" on="0"/>
        <pt x="381" y="-2221" on="1"/>
        <pt x="352" y="-2183" on="0"/>
        <pt x="339" y="-2149" on="1"/>
        <pt x="329" y="-2127" on="0"/>
        <pt x="322" y="-2088" on="1"/>
        <pt x="321" y="-2085" on="0"/>
        <pt x="320" y="-1760" on="1"/>
        <pt x="319" y="-1432" on="0"/>
        <pt x="316" y="-1417" on="1"/>
        <pt x="317" y="-1419" on="0"/>
        <pt x="314" y="-1406" on="1"/>
        <pt x="293" y="-1299" on="0"/>
        <pt x="199" y="-1221" on="1"/>
        <pt x="195" y="-1219" on="0"/>
        <pt x="192" y="-1216" on="1"/>
        <pt x="174" y="-1200" on="0"/>
        <pt x="145" y="-1185" on="1"/>
        <pt x="134" y="-1179" on="0"/>
        <pt x="132" y="-1176" on="1"/>
        <pt x="129" y="-1169" on="0"/>
        <pt x="131" y="-1148" on="1"/>
        <pt x="131" y="-1144" on="0"/>
        <pt x="132" y="-1143" on="1"/>
        <pt x="134" y="-1140" on="0"/>
        <pt x="145" y="-1134" on="1"/>
        <pt x="174" y="-1119" on="0"/>
        <pt x="192" y="-1103" on="1"/>
        <pt x="289" y="-1028" on="0"/>
        <pt x="313" y="-919" on="1"/>
        <pt x="313" y="-915" on="0"/>
        <pt x="314" y="-912" on="1"/>
        <pt x="319" y="-888" on="0"/>
        <pt x="319" y="-797" on="1"/>
        <pt x="319" y="-813" on="0"/>
        <pt x="320" y="-558" on="1"/>
        <pt x="321" y="-234" on="0"/>
        <pt x="322" y="-231" on="1"/>
        <pt x="329" y="-192" on="0"/>
        <pt x="339" y="-169" on="1"/>
        <pt x="352" y="-135" on="0"/>
        <pt x="381" y="-98" on="1"/>
        <pt x="400" y="-74" on="0"/>
        <pt x="438" y="-41" on="1"/>
        <pt x="494" y="3" on="0"/>
      </contour>
    </TTGlyph>
    <TTGlyph name="u00DB" xMin="131" yMin="-2359" xMax="618" yMax="40">
      <contour>
        <pt x="136" y="39" on="1"/>
        <pt x="138" y="40" on="0"/>
        <pt x="153" y="40" on="1"/>
        <pt x="167" y="40" on="1"/>
        <pt x="185" y="32" on="1"/>
        <pt x="357" y="-41" on="0"/>
        <pt x="410" y="-169" on="1"/>
        <pt x="417" y="-188" on="0"/>
        <pt x="422" y="-207" on="1"/>
        <pt x="427" y="-230" on="0"/>
        <pt x="427" y="-311" on="1"/>
        <pt x="427" y="-308" on="0"/>
        <pt x="428" y="-559" on="1"/>
        <pt x="429" y="-884" on="1"/>
        <pt x="430" y="-886" on="0"/>
        <pt x="432" y="-898" on="1"/>
        <pt x="448" y="-1008" on="0"/>
        <pt x="538" y="-1088" on="1"/>
        <pt x="544" y="-1094" on="0"/>
        <pt x="551" y="-1099" on="1"/>
        <pt x="583" y="-1124" on="0"/>
        <pt x="609" y="-1137" on="1"/>
        <pt x="618" y="-1150" on="0"/>
        <pt x="618" y="-1159" on="1"/>
        <pt x="618" y="-1177" on="0"/>
        <pt x="613" y="-1180" on="1"/>
        <pt x="612" y="-1181" on="0"/>
        <pt x="609" y="-1182" on="1"/>
        <pt x="583" y="-1195" on="0"/>
        <pt x="551" y="-1220" on="1"/>
        <pt x="458" y="-1294" on="0"/>
        <pt x="435" y="-1404" on="1"/>
        <pt x="433" y="-1413" on="0"/>
        <pt x="432" y="-1421" on="1"/>
        <pt x="430" y="-1433" on="0"/>
        <pt x="429" y="-1435" on="1"/>
        <pt x="428" y="-1757" on="1"/>
        <pt x="428" y="-1759" on="1"/>
        <pt x="427" y="-2087" on="0"/>
        <pt x="424" y="-2101" on="1"/>
        <pt x="425" y="-2097" on="0"/>
        <pt x="422" y="-2111" on="1"/>
        <pt x="390" y="-2246" on="0"/>
        <pt x="230" y="-2330" on="1"/>
        <pt x="208" y="-2341" on="0"/>
        <pt x="185" y="-2351" on="1"/>
        <pt x="167" y="-2359" on="1"/>
        <pt x="153" y="-2359" on="1"/>
        <pt x="134" y="-2359" on="0"/>
        <pt x="132" y="-2354" on="1"/>
        <pt x="132" y="-2322" on="1"/>
        <pt x="133" y="-2320" on="0"/>
        <pt x="148" y="-2311" on="1"/>
        <pt x="200" y="-2283" on="0"/>
        <pt x="239" y="-2244" on="1"/>
        <pt x="286" y="-2196" on="0"/>
        <pt x="307" y="-2134" on="1"/>
        <pt x="311" y="-2122" on="0"/>
        <pt x="318" y="-2090" on="1"/>
        <pt x="319" y="-2082" on="0"/>
        <pt x="320" y="-1759" on="1"/>
        <pt x="320" y="-1743" on="0"/>
        <pt x="321" y="-1436" on="1"/>
        <pt x="322" y="-1435" on="0"/>
        <pt x="324" y="-1420" on="1"/>
        <pt x="345" y="-1298" on="0"/>
        <pt x="471" y="-1209" on="1"/>
        <pt x="505" y="-1186" on="0"/>
        <pt x="544" y="-1167" on="1"/>
        <pt x="560" y="-1159" on="1"/>
        <pt x="547" y="-1153" on="1"/>
        <pt x="498" y="-1131" on="0"/>
        <pt x="460" y="-1101" on="1"/>
        <pt x="344" y="-1016" on="0"/>
        <pt x="324" y="-898" on="1"/>
        <pt x="322" y="-884" on="0"/>
        <pt x="321" y="-883" on="1"/>
        <pt x="320" y="-561" on="1"/>
        <pt x="320" y="-559" on="1"/>
        <pt x="319" y="-237" on="0"/>
        <pt x="318" y="-229" on="1"/>
        <pt x="302" y="-140" on="0"/>
        <pt x="239" y="-75" on="1"/>
        <pt x="200" y="-36" on="0"/>
        <pt x="148" y="-8" on="1"/>
        <pt x="133" y="1" on="0"/>
        <pt x="132" y="3" on="1"/>
        <pt x="131" y="4" on="0"/>
        <pt x="131" y="19" on="1"/>
        <pt x="131" y="35" on="0"/>
      </contour>
    </TTGlyph>
    <TTGlyph name="u00DC" xMin="126" yMin="-2361" xMax="658" yMax="43">
      <contour>
        <pt x="614" y="38" on="1"/>
        <pt x="625" y="43" on="0"/>
        <pt x="639" y="37" on="1"/>
        <pt x="650" y="32" on="0"/>
        <pt x="655" y="21" on="1"/>
        <pt x="657" y="16" on="0"/>
        <pt x="657" y="7" on="1"/>
        <pt x="658" y="-1" on="1"/>
        <pt x="428" y="-576" on="1"/>
        <pt x="194" y="-1160" on="0"/>
        <pt x="196" y="-1156" on="1"/>
        <pt x="195" y="-1160" on="1"/>
        <pt x="426" y="-1738" on="1"/>
        <pt x="658" y="-2315" on="1"/>
        <pt x="658" y="-2324" on="1"/>
        <pt x="658" y="-2338" on="0"/>
        <pt x="649" y="-2348" on="1"/>
        <pt x="640" y="-2357" on="0"/>
        <pt x="627" y="-2359" on="1"/>
        <pt x="606" y="-2361" on="0"/>
        <pt x="597" y="-2343" on="1"/>
        <pt x="595" y="-2340" on="0"/>
        <pt x="360" y="-1754" on="1"/>
        <pt x="126" y="-1169" on="1"/>
        <pt x="126" y="-1160" on="1"/>
        <pt x="126" y="-1150" on="1"/>
        <pt x="360" y="-565" on="1"/>
        <pt x="595" y="23" on="0"/>
        <pt x="597" y="25" on="1"/>
        <pt x="602" y="34" on="0"/>
      </contour>
    </TTGlyph>
    <TTGlyph name="u00DF" xMin="56" yMin="-2358" xMax="990" yMax="44">
      <contour>
        <pt x="74" y="39" on="1"/>
        <pt x="91" y="44" on="0"/>
        <pt x="103" y="29" on="1"/>
        <pt x="105" y="27" on="0"/>
        <pt x="397" y="-751" on="1"/>
        <pt x="838" y="-1926" on="1"/>
        <pt x="988" y="-2325" on="0"/>
        <pt x="988" y="-2330" on="1"/>
        <pt x="990" y="-2346" on="0"/>
        <pt x="974" y="-2355" on="1"/>
        <pt x="969" y="-2358" on="0"/>
        <pt x="961" y="-2358" on="1"/>
        <pt x="946" y="-2358" on="0"/>
        <pt x="940" y="-2348" on="1"/>
        <pt x="935" y="-2340" on="0"/>
        <pt x="205" y="-393" on="1"/>
        <pt x="56" y="6" on="0"/>
        <pt x="56" y="14" on="1"/>
        <pt x="56" y="21" on="0"/>
        <pt x="59" y="26" on="1"/>
        <pt x="64" y="36" on="0"/>
      </contour>
    </TTGlyph>
    <TTGlyph name="u00FF" xMin="57" yMin="-599" xMax="721" yMax="0">
      <contour>
        <pt x="257" y="-182" on="1"/>
        <pt x="257" y="0" on="1"/>
        <pt x="279" y="0" on="1"/>
        <pt x="300" y="0" on="1"/>
        <pt x="300" y="-202" on="1"/>
        <pt x="300" y="-405" on="1"/>
        <pt x="312" y="-417" on="1"/>
        <pt x="351" y="-460" on="0"/>
        <pt x="379" y="-502" on="1"/>
        <pt x="388" y="-515" on="0"/>
        <pt x="389" y="-516" on="1"/>
        <pt x="399" y="-502" on="1"/>
        <pt x="427" y="-460" on="0"/>
        <pt x="466" y="-417" on="1"/>
        <pt x="478" y="-405" on="1"/>
        <pt x="478" y="-202" on="1"/>
        <pt x="478" y="0" on="1"/>
        <pt x="499" y="0" on="1"/>
        <pt x="521" y="0" on="1"/>
        <pt x="521" y="-182" on="1"/>
        <pt x="522" y="-364" on="1"/>
        <pt x="532" y="-356" on="1"/>
        <pt x="597" y="-303" on="0"/>
        <pt x="667" y="-269" on="1"/>
        <pt x="700" y="-252" on="0"/>
        <pt x="719" y="-247" on="1"/>
        <pt x="721" y="-246" on="1"/>
        <pt x="721" y="-267" on="1"/>
        <pt x="721" y="-289" on="1"/>
        <pt x="708" y="-294" on="1"/>
        <pt x="677" y="-305" on="0"/>
        <pt x="636" y="-329" on="1"/>
        <pt x="489" y="-413" on="0"/>
        <pt x="408" y="-561" on="1"/>
        <pt x="402" y="-572" on="0"/>
        <pt x="397" y="-583" on="1"/>
        <pt x="389" y="-598" on="0"/>
        <pt x="389" y="-599" on="1"/>
        <pt x="381" y="-583" on="1"/>
        <pt x="307" y="-431" on="0"/>
        <pt x="161" y="-341" on="1"/>
        <pt x="152" y="-335" on="0"/>
        <pt x="142" y="-329" on="1"/>
        <pt x="101" y="-305" on="0"/>
        <pt x="70" y="-294" on="1"/>
        <pt x="57" y="-289" on="1"/>
        <pt x="57" y="-267" on="1"/>
        <pt x="57" y="-246" on="1"/>
        <pt x="59" y="-247" on="1"/>
        <pt x="78" y="-252" on="0"/>
        <pt x="111" y="-269" on="1"/>
        <pt x="180" y="-302" on="0"/>
        <pt x="247" y="-356" on="1"/>
        <pt x="257" y="-364" on="1"/>
      </contour>
    </TTGlyph>
    <TTGlyph name="underscore" xMin="55" yMin="-1406" xMax="1060" yMax="10">
      <contour>
        <pt x="96" y="-2" on="1"/>
        <pt x="123" y="6" on="0"/>
        <pt x="146" y="-15" on="1"/>
        <pt x="153" y="-22" on="0"/>
        <pt x="157" y="-31" on="1"/>
        <pt x="164" y="-45" on="0"/>
        <pt x="358" y="-610" on="1"/>
        <pt x="555" y="-1179" on="1"/>
        <pt x="752" y="-610" on="1"/>
        <pt x="946" y="-45" on="0"/>
        <pt x="953" y="-31" on="1"/>
        <pt x="957" y="-22" on="0"/>
        <pt x="964" y="-15" on="1"/>
        <pt x="990" y="10" on="0"/>
        <pt x="1023" y="-5" on="1"/>
        <pt x="1032" y="-9" on="0"/>
        <pt x="1039" y="-16" on="1"/>
        <pt x="1060" y="-37" on="0"/>
        <pt x="1054" y="-65" on="1"/>
        <pt x="603" y="-1371" on="1"/>
        <pt x="593" y="-1393" on="0"/>
        <pt x="568" y="-1398" on="1"/>
        <pt x="537" y="-1406" on="0"/>
        <pt x="515" y="-1381" on="1"/>
        <pt x="511" y="-1376" on="0"/>
        <pt x="508" y="-1371" on="1"/>
        <pt x="93" y="-174" on="1"/>
        <pt x="57" y="-68" on="0"/>
        <pt x="55" y="-62" on="0"/>
        <pt x="55" y="-54" on="1"/>
        <pt x="55" y="-21" on="0"/>
        <pt x="85" y="-6" on="1"/>
        <pt x="91" y="-3" on="0"/>
      </contour>
    </TTGlyph>
    <TTGlyph name="v" xMin="702" yMin="-579" xMax="1076" yMax="40">
      <contour>
        <pt x="713" y="37" on="1"/>
        <pt x="718" y="40" on="1"/>
        <pt x="890" y="40" on="1"/>
        <pt x="1061" y="40" on="1"/>
        <pt x="1065" y="38" on="1"/>
        <pt x="1068" y="36" on="0"/>
        <pt x="1073" y="31" on="1"/>
        <pt x="1076" y="25" on="0"/>
        <pt x="1076" y="15" on="0"/>
        <pt x="1073" y="9" on="1"/>
        <pt x="1068" y="4" on="0"/>
        <pt x="1065" y="2" on="1"/>
        <pt x="1061" y="0" on="1"/>
        <pt x="901" y="0" on="1"/>
        <pt x="742" y="0" on="1"/>
        <pt x="742" y="-282" on="1"/>
        <pt x="742" y="-565" on="1"/>
        <pt x="740" y="-569" on="1"/>
        <pt x="736" y="-574" on="0"/>
        <pt x="733" y="-576" on="1"/>
        <pt x="729" y="-579" on="0"/>
        <pt x="715" y="-579" on="0"/>
        <pt x="711" y="-576" on="1"/>
        <pt x="708" y="-574" on="0"/>
        <pt x="704" y="-569" on="1"/>
        <pt x="702" y="-565" on="1"/>
        <pt x="702" y="-271" on="1"/>
        <pt x="702" y="24" on="1"/>
        <pt x="705" y="29" on="1"/>
        <pt x="707" y="35" on="0"/>
      </contour>
    </TTGlyph>
    <TTGlyph name="w" xMin="257" yMin="-601" xMax="521" yMax="1">
      <contour>
        <pt x="257" y="-300" on="1"/>
        <pt x="257" y="1" on="1"/>
        <pt x="279" y="1" on="1"/>
        <pt x="300" y="1" on="1"/>
        <pt x="300" y="-300" on="1"/>
        <pt x="300" y="-601" on="1"/>
        <pt x="279" y="-601" on="1"/>
        <pt x="257" y="-601" on="1"/>
      </contour>
      <contour>
        <pt x="478" y="-300" on="1"/>
        <pt x="478" y="1" on="1"/>
        <pt x="500" y="1" on="1"/>
        <pt x="521" y="1" on="1"/>
        <pt x="521" y="-300" on="1"/>
        <pt x="521" y="-601" on="1"/>
        <pt x="500" y="-601" on="1"/>
        <pt x="478" y="-601" on="1"/>
      </contour>
    </TTGlyph>
    <TTGlyph name="x" xMin="112" yMin="-600" xMax="555" yMax="0">
      <contour>
        <pt x="324" y="-14" on="1"/>
        <pt x="333" y="0" on="1"/>
        <pt x="343" y="-14" on="1"/>
        <pt x="420" y="-127" on="0"/>
        <pt x="550" y="-175" on="1"/>
        <pt x="555" y="-177" on="1"/>
        <pt x="555" y="-201" on="1"/>
        <pt x="555" y="-225" on="0"/>
        <pt x="553" y="-225" on="1"/>
        <pt x="547" y="-222" on="1"/>
        <pt x="446" y="-187" on="0"/>
        <pt x="366" y="-110" on="1"/>
        <pt x="355" y="-100" on="1"/>
        <pt x="355" y="-350" on="1"/>
        <pt x="355" y="-600" on="1"/>
        <pt x="334" y="-600" on="1"/>
        <pt x="312" y="-600" on="1"/>
        <pt x="312" y="-350" on="1"/>
        <pt x="312" y="-100" on="1"/>
        <pt x="301" y="-110" on="1"/>
        <pt x="222" y="-186" on="0"/>
        <pt x="121" y="-222" on="1"/>
        <pt x="115" y="-224" on="0"/>
        <pt x="114" y="-225" on="1"/>
        <pt x="112" y="-225" on="0"/>
        <pt x="112" y="-201" on="1"/>
        <pt x="112" y="-177" on="1"/>
        <pt x="117" y="-175" on="1"/>
        <pt x="129" y="-171" on="0"/>
        <pt x="157" y="-159" on="1"/>
        <pt x="260" y="-108" on="0"/>
      </contour>
    </TTGlyph>
</ttFont>
